<?xml version="1.0" encoding="utf-8"?>
<!-- Generator: Adobe Illustrator 26.0.2, SVG Export Plug-In . SVG Version: 6.00 Build 0)  -->
<svg version="1.1" id="Calque_1" xmlns="http://www.w3.org/2000/svg" xmlns:xlink="http://www.w3.org/1999/xlink" x="0px" y="0px"
	 viewBox="0 0 147.4 147.4" style="enable-background:new 0 0 147.4 147.4;" xml:space="preserve">
<style type="text/css">
	.st0{fill:url(#SVGID_1_);}
	.st1{fill:url(#SVGID_00000043417472854273655430000005258105570030316975_);}
	.st2{fill:url(#SVGID_00000136392848010709026320000004650673415131610272_);}
	.st3{fill:url(#SVGID_00000021837265351542538320000002043384043813105821_);}
	.st4{fill:url(#SVGID_00000160159756503971849310000007298753458650028712_);}
	.st5{fill:url(#SVGID_00000052076498888475582050000014343935867478696077_);}
	.st6{fill:url(#SVGID_00000095341027615702499250000018328836510390897081_);}
	.st7{fill:url(#XMLID_00000036250114699190392270000012289342105952416651_);}
	.st8{fill:url(#XMLID_00000066486432184947352950000011421910217812087427_);}
	.st9{fill:url(#XMLID_00000179632791198388170410000011564808449346783934_);}
	.st10{fill:url(#XMLID_00000141420244215044224420000016805972921146891199_);}
	.st11{fill:url(#XMLID_00000088835149308126260160000011987757013670074032_);}
	.st12{fill:url(#XMLID_00000039110788662215650540000010268297892512339080_);}
	.st13{fill:url(#XMLID_00000078757129747702418820000010861220392932925622_);}
	.st14{fill:url(#XMLID_00000074432993304228724840000007439508034439165874_);}
	.st15{fill:none;stroke:#FFFFFF;stroke-miterlimit:10;}
	.st16{fill:url(#SVGID_00000165204507729919544620000015297337621953006779_);}
	.st17{fill:url(#SVGID_00000133517266528540347540000013651422234154784941_);}
	.st18{fill:url(#SVGID_00000106129663631207977080000009200183241163149703_);}
	.st19{fill:url(#SVGID_00000089547165194286270480000003713094844054977166_);}
	.st20{fill:url(#SVGID_00000062186291848794013380000004157688526130708385_);}
	.st21{fill:url(#SVGID_00000131367042388645695820000014420959557313046944_);}
	.st22{fill:url(#SVGID_00000140730366714627011460000016842941129497437091_);}
	.st23{fill:url(#SVGID_00000019659380077157738570000004540182151187395748_);}
	.st24{fill:url(#SVGID_00000127749149149582100480000008739876137112754097_);}
	.st25{fill:url(#SVGID_00000077306550185600622840000010982469425867164828_);}
	.st26{fill:url(#SVGID_00000026869373972041658370000001610838021310311814_);}
	.st27{fill:url(#SVGID_00000120533561134784519660000011361735931515040436_);}
	.st28{fill:url(#SVGID_00000103968554864797479900000009905481107993180093_);}
	.st29{fill:url(#SVGID_00000072260545298607028760000003655218039969454009_);}
	.st30{fill:url(#SVGID_00000104668995411434336420000011714397771451718812_);}
	.st31{fill:url(#SVGID_00000052822913229290447340000010513724077583461507_);}
	.st32{fill:url(#SVGID_00000003101731644792934940000012378022304732631447_);}
	.st33{fill:url(#SVGID_00000159466925125303310130000005150456504453842574_);}
	.st34{fill:url(#SVGID_00000104669828264426517010000016305743820011549883_);}
	.st35{fill:url(#SVGID_00000070827271184586595280000014618066019875201432_);}
	.st36{fill:url(#SVGID_00000145743550039551310810000013472725904176679309_);}
	.st37{fill:url(#SVGID_00000176045538104045635450000008970357167182347958_);}
	.st38{fill:url(#SVGID_00000099634941064400042450000003386339292538978478_);}
	.st39{fill:url(#SVGID_00000003091748272057923480000014091538562924115597_);}
	.st40{fill:url(#SVGID_00000008865710545508188410000004434656524340495531_);}
	.st41{fill:url(#SVGID_00000121984996091044421950000002080805145914284160_);}
	.st42{fill:url(#SVGID_00000089556304918957616090000007646726344614564011_);}
	.st43{fill:url(#SVGID_00000099656601474769256870000016038140958571915175_);}
	.st44{fill:url(#SVGID_00000114056003891258751550000008203042591167178897_);}
	.st45{fill:url(#SVGID_00000117674946065602938820000018197748307564858001_);}
	.st46{fill:url(#SVGID_00000159458732673296770980000001233068039765373318_);}
</style>
<g id="XMLID_00000108294541039113841050000002829354807178060717_">
	
		<radialGradient id="XMLID_00000132779512679996291140000006853517545995768251_" cx="61.7332" cy="31.4965" r="170.1927" gradientUnits="userSpaceOnUse">
		<stop  offset="0" style="stop-color:#FFFFFF"/>
		<stop  offset="1" style="stop-color:#C4BBBB"/>
	</radialGradient>
	
		<circle id="XMLID_00000093872985052287375590000008587160951209057720_" style="fill:url(#XMLID_00000132779512679996291140000006853517545995768251_);" cx="73.7" cy="73.7" r="73.7"/>
	
		<linearGradient id="XMLID_00000158748742393634518050000016742539599550180238_" gradientUnits="userSpaceOnUse" x1="5.0394" y1="73.702" x2="142.3644" y2="73.702">
		<stop  offset="0" style="stop-color:#C4BBBB"/>
		<stop  offset="1" style="stop-color:#FFFFFF"/>
	</linearGradient>
	
		<circle id="XMLID_00000101105713001579408860000015594861892431723909_" style="fill:url(#XMLID_00000158748742393634518050000016742539599550180238_);" cx="73.7" cy="73.7" r="68.7"/>
</g>
<g>
	<polygon points="47.6,112.8 47.6,112.8 47.6,112.8 	"/>
	<polygon points="99.8,113.1 99.8,113.1 99.8,113.1 	"/>
</g>
<g>
	<radialGradient id="SVGID_1_" cx="73.6187" cy="121.1635" r="125.9805" gradientUnits="userSpaceOnUse">
		<stop  offset="0" style="stop-color:#00746D"/>
		<stop  offset="0.2174" style="stop-color:#00746D"/>
		<stop  offset="0.4101" style="stop-color:#09998F"/>
		<stop  offset="0.6425" style="stop-color:#16CABD"/>
		<stop  offset="1" style="stop-color:#16CABD"/>
	</radialGradient>
	<path class="st0" d="M43.5,86.4c1,3.8,3.4,4.7,4.5,4.8c0,0,0,0,0.1,0c0,0,0,0,0.1,0c1.1-0.1,3.5-1,4.5-4.8c0,0,0.5-0.6,0.5-1.9
		c0-0.4-0.3-0.7-0.3-0.7s0.3-1,0.3-2.1c0-1-1-4.2-5-4.2c0,0,0,0-0.1,0s0,0-0.1,0c-4,0.1-5,3.2-5,4.2c0,1,0.3,2.1,0.3,2.1
		s-0.3,0.3-0.3,0.7C42.9,85.8,43.5,86.4,43.5,86.4z"/>
	
		<radialGradient id="SVGID_00000144301187885753763920000014177339353018407579_" cx="73.6187" cy="121.1635" r="125.9805" gradientUnits="userSpaceOnUse">
		<stop  offset="0" style="stop-color:#00746D"/>
		<stop  offset="0.2174" style="stop-color:#00746D"/>
		<stop  offset="0.4101" style="stop-color:#09998F"/>
		<stop  offset="0.6425" style="stop-color:#16CABD"/>
		<stop  offset="1" style="stop-color:#16CABD"/>
	</radialGradient>
	<path style="fill:url(#SVGID_00000144301187885753763920000014177339353018407579_);" d="M65.2,77.6C65.2,77.6,65.2,77.6,65.2,77.6
		c-0.1,0-0.1,0-0.1,0c-4,0.1-5,3.2-5,4.2c0,1,0.3,2.1,0.3,2.1S60,84.2,60,84.7c0,1.3,0.5,1.9,0.5,1.9c1,3.8,3.4,4.7,4.5,4.8
		c0,0,0,0,0.1,0c0,0,0,0,0.1,0c1.1-0.1,3.5-1,4.5-4.8c0,0,0.5-0.6,0.5-1.9c0-0.4-0.3-0.7-0.3-0.7s0.3-1,0.3-2.1
		C70.3,80.8,69.3,77.7,65.2,77.6z"/>
	
		<radialGradient id="SVGID_00000033368688027648688790000012576085340829739707_" cx="73.6187" cy="121.1635" r="125.9805" gradientUnits="userSpaceOnUse">
		<stop  offset="0" style="stop-color:#00746D"/>
		<stop  offset="0.2174" style="stop-color:#00746D"/>
		<stop  offset="0.4101" style="stop-color:#09998F"/>
		<stop  offset="0.6425" style="stop-color:#16CABD"/>
		<stop  offset="1" style="stop-color:#16CABD"/>
	</radialGradient>
	<path style="fill:url(#SVGID_00000033368688027648688790000012576085340829739707_);" d="M82.3,77.8C82.3,77.8,82.3,77.8,82.3,77.8
		c-0.1,0-0.1,0-0.1,0c-4,0.1-5,3.2-5,4.2c0,1,0.3,2.1,0.3,2.1s-0.3,0.3-0.3,0.7c0,1.3,0.5,1.9,0.5,1.9c1,3.8,3.4,4.7,4.5,4.8
		c0,0,0,0,0.1,0c0,0,0,0,0.1,0c1.1-0.1,3.5-1,4.5-4.8c0,0,0.5-0.6,0.5-1.9c0-0.4-0.3-0.7-0.3-0.7s0.3-1,0.3-2.1
		C87.4,81,86.4,77.8,82.3,77.8z"/>
	
		<radialGradient id="SVGID_00000048463973862425028320000017568598969731507843_" cx="73.6187" cy="121.1635" r="125.9805" gradientUnits="userSpaceOnUse">
		<stop  offset="0" style="stop-color:#00746D"/>
		<stop  offset="0.2174" style="stop-color:#00746D"/>
		<stop  offset="0.4101" style="stop-color:#09998F"/>
		<stop  offset="0.6425" style="stop-color:#16CABD"/>
		<stop  offset="1" style="stop-color:#16CABD"/>
	</radialGradient>
	<path style="fill:url(#SVGID_00000048463973862425028320000017568598969731507843_);" d="M94.8,86.8c1,3.8,3.4,4.7,4.5,4.8
		c0,0,0,0,0.1,0c0,0,0,0,0.1,0c1.1-0.1,3.5-1,4.5-4.8c0,0,0.5-0.6,0.5-1.9c0-0.4-0.3-0.7-0.3-0.7s0.3-1,0.3-2.1c0-1-1-4.2-5-4.2
		c0,0,0,0-0.1,0s0,0-0.1,0c-4,0.1-5,3.2-5,4.2c0,1,0.3,2.1,0.3,2.1s-0.3,0.3-0.3,0.7C94.3,86.3,94.8,86.8,94.8,86.8z"/>
	
		<radialGradient id="SVGID_00000143589317417245869160000014265077160422011804_" cx="73.6187" cy="121.1635" r="125.9805" gradientUnits="userSpaceOnUse">
		<stop  offset="0" style="stop-color:#00746D"/>
		<stop  offset="0.2174" style="stop-color:#00746D"/>
		<stop  offset="0.4101" style="stop-color:#09998F"/>
		<stop  offset="0.6425" style="stop-color:#16CABD"/>
		<stop  offset="1" style="stop-color:#16CABD"/>
	</radialGradient>
	<path style="fill:url(#SVGID_00000143589317417245869160000014265077160422011804_);" d="M107.9,93.4c-1.8-1.4-2.7-1.1-3.8-1.8
		c-0.5-0.3-0.8-0.5-1-0.7c-0.7,0.8-1.5,1.2-2.2,1.5c-0.1,0-0.2,0.1-0.3,0.1l0,0c-0.5,0.2-0.9,0.2-1.1,0.2c0,0-0.1,0-0.1,0l0,0l0,0
		c0,0-0.1,0-0.1,0c-0.2,0-0.6-0.1-1.1-0.2l0,0c-0.1,0-0.2-0.1-0.3-0.1c-0.5-0.2-1-0.5-1.6-0.9c-0.2-0.2-0.4-0.4-0.6-0.6
		c-0.2,0.2-0.5,0.4-1,0.7c-1.1,0.6-2,0.4-3.7,1.7c0,0-0.1-0.1-0.1-0.1c-1.8-1.4-2.7-1.1-3.8-1.8c-0.5-0.3-0.8-0.5-1-0.7
		c-0.7,0.8-1.5,1.2-2.2,1.5c-0.1,0-0.2,0.1-0.3,0.1l0,0c-0.5,0.2-0.9,0.2-1.1,0.2c0,0-0.1,0-0.1,0h-0.1c0,0-0.1,0-0.1,0
		c-0.2,0-0.6-0.1-1.1-0.2l0,0c-0.1,0-0.2-0.1-0.3-0.1c-0.5-0.2-1-0.5-1.6-0.9c-0.2-0.2-0.4-0.4-0.6-0.6c-0.2,0.2-0.5,0.4-1,0.7
		c-1.1,0.6-2,0.4-3.7,1.7c0,0-0.1-0.1-0.1-0.1c-1.8-1.4-2.7-1.1-3.8-1.8c-0.5-0.3-0.8-0.5-1-0.7c-0.7,0.8-1.5,1.2-2.2,1.5
		c-0.1,0-0.2,0.1-0.3,0.1l0,0c-0.5,0.2-0.9,0.2-1.1,0.2c0,0-0.1,0-0.1,0h-0.1c0,0-0.1,0-0.1,0c-0.2,0-0.6-0.1-1.1-0.2l0,0
		c-0.1,0-0.2-0.1-0.3-0.1c-0.5-0.2-1-0.5-1.6-0.9c-0.2-0.2-0.4-0.4-0.6-0.6c-0.2,0.2-0.5,0.4-1,0.7c-1.1,0.6-2,0.4-3.7,1.7
		c0,0-0.1-0.1-0.1-0.1c-1.8-1.4-2.7-1.1-3.8-1.8c-0.5-0.3-0.8-0.5-1-0.7c-0.7,0.8-1.5,1.2-2.2,1.5c-0.1,0-0.2,0.1-0.3,0.1l0,0
		c-0.5,0.2-0.9,0.2-1.1,0.2c0,0-0.1,0-0.1,0l0,0l0,0c0,0-0.1,0-0.1,0c-0.2,0-0.6-0.1-1.1-0.2l0,0c-0.1,0-0.2-0.1-0.3-0.1
		c-0.5-0.2-1-0.5-1.6-0.9c-0.2-0.2-0.4-0.4-0.6-0.6c-0.2,0.2-0.5,0.4-1,0.7c-1.1,0.7-2,0.4-3.8,1.8c-1.8,1.4-2,6.2-2,7.3
		c0,1.1,0.1,1.5,0.3,1.7c0.2,0.2,1.2,0.6,4.1,1c2.5,0.3,5.4,0.4,6.1,0.4h0.1c0.4,0,1.5,0,2.8-0.1c-0.1-0.4-0.3-0.9-0.3-1.6
		c0-0.2,0-0.4,0.1-0.6c0.1-0.1,0.1-0.2,0.2-0.3c0-0.1-0.1-0.2-0.1-0.3c-0.1-0.4-0.2-1-0.2-1.6c0-0.3,0-0.6,0.1-1
		c0.1-0.4,0.3-0.8,0.5-1.2c0.4-0.8,1.2-1.7,2.4-2.2c0.8-0.4,1.7-0.6,2.8-0.6h0.2c1.5,0,2.6,0.4,3.5,1c0.9,0.6,1.4,1.3,1.8,2.1
		c0.2,0.5,0.4,0.9,0.5,1.3c0,0.2,0.1,0.4,0.1,0.6c0,0.6-0.1,1.2-0.2,1.6c0,0.1-0.1,0.2-0.1,0.3c0.1,0.1,0.1,0.2,0.2,0.3
		c0.1,0.2,0.1,0.4,0.1,0.6c0,0.8-0.2,1.3-0.3,1.7c1.4,0.1,2.5,0.1,2.9,0.1h0.1c0.4,0,1.5,0,2.8-0.1c-0.1-0.4-0.3-0.9-0.3-1.6
		c0-0.2,0-0.4,0.1-0.6c0.1-0.1,0.1-0.2,0.2-0.3c0-0.1-0.1-0.2-0.1-0.3c-0.1-0.4-0.2-1-0.2-1.6c0-0.3,0-0.6,0.1-1
		c0.1-0.4,0.3-0.8,0.5-1.2c0.4-0.8,1.2-1.7,2.4-2.2c0.8-0.4,1.7-0.6,2.8-0.6h0.2c1.5,0,2.6,0.4,3.5,1c0.9,0.6,1.4,1.4,1.8,2.1
		c0.2,0.5,0.4,0.9,0.5,1.3c0,0.2,0.1,0.4,0.1,0.6c0,0.6-0.1,1.2-0.2,1.6c0,0.1-0.1,0.2-0.1,0.3c0.1,0.1,0.1,0.2,0.2,0.3
		c0.1,0.2,0.1,0.4,0.1,0.6c0,0.8-0.2,1.3-0.3,1.7c1.4,0.1,2.5,0.1,2.9,0.1h0.1c0.4,0,1.5,0,2.8-0.1c-0.1-0.4-0.3-0.9-0.3-1.6
		c0-0.2,0-0.4,0.1-0.6c0.1-0.1,0.1-0.2,0.2-0.3c0-0.1-0.1-0.2-0.1-0.3c-0.1-0.4-0.2-1-0.2-1.6c0-0.3,0-0.6,0.1-1
		c0.1-0.4,0.3-0.8,0.5-1.2c0.4-0.8,1.2-1.7,2.4-2.2c0.8-0.4,1.7-0.6,2.8-0.6h0l0.1,0h0l0.1,0c1.5,0,2.6,0.4,3.5,1
		c0.9,0.6,1.4,1.4,1.8,2.1c0.2,0.5,0.4,0.9,0.5,1.3c0,0.2,0.1,0.4,0.1,0.6c0,0.6-0.1,1.2-0.2,1.6c0,0.1-0.1,0.2-0.1,0.3
		c0.1,0.1,0.1,0.2,0.2,0.3c0.1,0.2,0.1,0.4,0.1,0.6c0,0.8-0.2,1.3-0.3,1.7c1.4,0.1,2.5,0.1,2.9,0.1h0.1c0.7,0,3.5-0.1,6.1-0.4
		c2.9-0.3,3.8-0.8,4.1-1c0.2-0.2,0.3-0.6,0.3-1.7S109.7,94.8,107.9,93.4z"/>
	
		<radialGradient id="SVGID_00000088115332148377755620000017373326023519903926_" cx="73.6187" cy="121.1635" r="125.9805" gradientUnits="userSpaceOnUse">
		<stop  offset="0" style="stop-color:#00746D"/>
		<stop  offset="0.2174" style="stop-color:#00746D"/>
		<stop  offset="0.4101" style="stop-color:#09998F"/>
		<stop  offset="0.6425" style="stop-color:#16CABD"/>
		<stop  offset="1" style="stop-color:#16CABD"/>
	</radialGradient>
	<path style="fill:url(#SVGID_00000088115332148377755620000017373326023519903926_);" d="M52,103.5c1,3.8,3.4,4.7,4.5,4.8
		c0,0,0,0,0.1,0c0,0,0,0,0.1,0c1.1-0.1,3.5-1,4.5-4.8c0,0,0.5-0.6,0.5-1.9c0-0.4-0.3-0.7-0.3-0.7s0.3-1,0.3-2.1c0-1-1-4.2-5-4.2
		c0,0,0,0-0.1,0s0,0-0.1,0c-4,0.1-5,3.2-5,4.2c0,1,0.3,2.1,0.3,2.1s-0.3,0.3-0.3,0.7C51.5,102.9,52,103.5,52,103.5z"/>
	
		<radialGradient id="SVGID_00000152970335566451502500000008687634248261839765_" cx="73.6187" cy="121.1635" r="125.9805" gradientUnits="userSpaceOnUse">
		<stop  offset="0" style="stop-color:#00746D"/>
		<stop  offset="0.2174" style="stop-color:#00746D"/>
		<stop  offset="0.4101" style="stop-color:#09998F"/>
		<stop  offset="0.6425" style="stop-color:#16CABD"/>
		<stop  offset="1" style="stop-color:#16CABD"/>
	</radialGradient>
	<path style="fill:url(#SVGID_00000152970335566451502500000008687634248261839765_);" d="M69.1,103.6c1,3.8,3.4,4.7,4.5,4.8
		c0,0,0,0,0.1,0c0,0,0,0,0.1,0c1.1-0.1,3.5-1,4.5-4.8c0,0,0.5-0.6,0.5-1.9c0-0.4-0.3-0.7-0.3-0.7s0.3-1,0.3-2.1c0-1-1-4.2-5-4.2
		c0,0,0,0-0.1,0s0,0-0.1,0c-4,0.1-5,3.2-5,4.2c0,1,0.3,2.1,0.3,2.1s-0.3,0.3-0.3,0.7C68.6,103.1,69.1,103.6,69.1,103.6z"/>
	
		<radialGradient id="SVGID_00000104675231946990404740000011352405395479445691_" cx="73.6187" cy="121.1635" r="125.9805" gradientUnits="userSpaceOnUse">
		<stop  offset="0" style="stop-color:#00746D"/>
		<stop  offset="0.2174" style="stop-color:#00746D"/>
		<stop  offset="0.4101" style="stop-color:#09998F"/>
		<stop  offset="0.6425" style="stop-color:#16CABD"/>
		<stop  offset="1" style="stop-color:#16CABD"/>
	</radialGradient>
	<path style="fill:url(#SVGID_00000104675231946990404740000011352405395479445691_);" d="M86.2,103.8c1,3.8,3.4,4.7,4.5,4.8
		c0,0,0,0,0.1,0c0,0,0,0,0.1,0c1.1-0.1,3.5-1,4.5-4.8c0,0,0.5-0.6,0.5-1.9c0-0.4-0.3-0.7-0.3-0.7s0.3-1,0.3-2.1c0-1-1-4.2-5-4.2
		c0,0,0,0-0.1,0s0,0-0.1,0c-4,0.1-5,3.2-5,4.2c0,1,0.3,2.1,0.3,2.1s-0.3,0.3-0.3,0.7C85.7,103.2,86.2,103.8,86.2,103.8z"/>
	
		<radialGradient id="SVGID_00000109734440855439212390000016568987740744811171_" cx="73.6187" cy="121.1635" r="125.9805" gradientUnits="userSpaceOnUse">
		<stop  offset="0" style="stop-color:#00746D"/>
		<stop  offset="0.2174" style="stop-color:#00746D"/>
		<stop  offset="0.4101" style="stop-color:#09998F"/>
		<stop  offset="0.6425" style="stop-color:#16CABD"/>
		<stop  offset="1" style="stop-color:#16CABD"/>
	</radialGradient>
	<path style="fill:url(#SVGID_00000109734440855439212390000016568987740744811171_);" d="M99.3,110.4c-1.8-1.4-2.7-1.1-3.8-1.8
		c-0.5-0.3-0.8-0.5-1-0.7c-0.7,0.8-1.5,1.2-2.2,1.5c-0.1,0-0.2,0.1-0.3,0.1l0,0c-0.5,0.2-0.9,0.2-1.1,0.2c0,0-0.1,0-0.1,0l0,0l0,0
		c0,0-0.1,0-0.1,0c-0.2,0-0.6-0.1-1.1-0.2l0,0c-0.1,0-0.2-0.1-0.3-0.1c-0.5-0.2-1-0.5-1.6-0.9c-0.2-0.2-0.4-0.4-0.6-0.6
		c-0.2,0.2-0.5,0.4-1,0.7c-1.1,0.6-2,0.4-3.7,1.7c0,0-0.1-0.1-0.1-0.1c-1.8-1.4-2.7-1.1-3.8-1.8c-0.5-0.3-0.8-0.5-1-0.7
		c-0.7,0.8-1.5,1.2-2.2,1.5c-0.1,0-0.2,0.1-0.3,0.1l0,0c-0.5,0.2-0.9,0.2-1.1,0.2c0,0-0.1,0-0.1,0l0,0l0,0c0,0-0.1,0-0.1,0
		c-0.2,0-0.6-0.1-1.1-0.2l0,0c-0.1,0-0.2-0.1-0.3-0.1c-0.5-0.2-1-0.5-1.6-0.9c-0.2-0.2-0.4-0.4-0.6-0.6c-0.2,0.2-0.5,0.4-1,0.7
		c-1.1,0.6-2,0.4-3.7,1.7c0,0-0.1-0.1-0.1-0.1c-1.8-1.4-2.7-1.1-3.8-1.8c-0.5-0.3-0.8-0.5-1-0.7c-0.7,0.8-1.5,1.2-2.2,1.5
		c-0.1,0-0.2,0.1-0.3,0.1l0,0c-0.5,0.2-0.9,0.2-1.1,0.2c0,0-0.1,0-0.1,0l0,0l0,0c0,0-0.1,0-0.1,0c-0.2,0-0.6-0.1-1.1-0.2l0,0
		c-0.1,0-0.2-0.1-0.3-0.1c-0.5-0.2-1-0.5-1.6-0.9c-0.2-0.2-0.4-0.4-0.6-0.6c-0.2,0.2-0.5,0.4-1,0.7c-1.1,0.7-2,0.4-3.8,1.8
		c-1.8,1.4-2,6.2-2,7.3s0.1,1.5,0.3,1.7c0.2,0.2,1.2,0.6,4.1,1c2.5,0.3,5.4,0.4,6.1,0.4h0.1c0.7,0,3.5-0.1,6.1-0.4
		c0.8-0.1,1.5-0.2,2.1-0.3c0.6,0.2,1.5,0.3,2.8,0.5c2.5,0.3,5.4,0.4,6.1,0.4h0.1c0.7,0,3.5-0.1,6.1-0.4c0.8-0.1,1.5-0.2,2.1-0.3
		c0.6,0.2,1.5,0.3,2.8,0.5c2.5,0.3,5.4,0.4,6.1,0.4h0.1c0.7,0,3.5-0.1,6.1-0.4c2.9-0.3,3.8-0.8,4.1-1c0.2-0.2,0.3-0.6,0.3-1.7
		S101.1,111.7,99.3,110.4z"/>
	
		<radialGradient id="SVGID_00000040538043148548584460000017639984980621056398_" cx="73.6187" cy="121.1635" r="125.9805" gradientUnits="userSpaceOnUse">
		<stop  offset="0" style="stop-color:#00746D"/>
		<stop  offset="0.2174" style="stop-color:#00746D"/>
		<stop  offset="0.4101" style="stop-color:#09998F"/>
		<stop  offset="0.6425" style="stop-color:#16CABD"/>
		<stop  offset="1" style="stop-color:#16CABD"/>
	</radialGradient>
	<path style="fill:url(#SVGID_00000040538043148548584460000017639984980621056398_);" d="M65.9,45.9c0.4-0.4,0.8-0.7,1.1-1.1l0-0.3
		l0.2-0.1l0.3-0.2c0.2-0.2,0.4-0.3,0.7-0.4l0.4,0.4c-0.1,0.3-0.2,0.5-0.4,0.8L68,45.2l-0.1,0.1l-0.3,0c-0.4,0.3-0.8,0.7-1.2,1
		c-0.8,0.7-1.6,1.4-2.3,2.1c-0.4,0.4-0.8,0.9-1.2,1.4v0.2c0,0.9,0.1,1.4,0.3,1.6h10.2l-3.1-7.9l0.1-3.3c-0.2-0.1-0.3-0.3-0.5-0.5
		c-0.2,0.2-0.5,0.4-1.1,0.7c-1.1,0.7-2.1,0.4-3.9,1.8c-1.5,1.1-1.9,4.5-2,6.4c0.2-0.3,0.5-0.6,0.8-0.9
		C64.4,47.3,65.2,46.6,65.9,45.9z"/>
	
		<radialGradient id="SVGID_00000021081870180255377660000010939331437398351763_" cx="73.6187" cy="121.1635" r="125.9805" gradientUnits="userSpaceOnUse">
		<stop  offset="0" style="stop-color:#00746D"/>
		<stop  offset="0.2174" style="stop-color:#00746D"/>
		<stop  offset="0.4101" style="stop-color:#09998F"/>
		<stop  offset="0.6425" style="stop-color:#16CABD"/>
		<stop  offset="1" style="stop-color:#16CABD"/>
	</radialGradient>
	<path style="fill:url(#SVGID_00000021081870180255377660000010939331437398351763_);" d="M81,46.3c-0.4-0.3-0.8-0.7-1.2-1l-0.3,0
		l-0.1-0.1l-0.2-0.3c-0.2-0.2-0.3-0.5-0.4-0.8l0.5-0.4c0.3,0.1,0.5,0.2,0.7,0.4l0.3,0.2l0.1,0.1l0,0.3c0.3,0.4,0.7,0.7,1.1,1.1
		c0.8,0.7,1.5,1.5,2.2,2.2c0.3,0.3,0.5,0.6,0.8,0.9c-0.1-1.9-0.6-5.3-2-6.4c-1.8-1.4-2.8-1.1-3.9-1.8c-0.5-0.3-0.9-0.6-1.1-0.7
		c-0.2,0.2-0.3,0.3-0.5,0.5l0.1,3.3L74,51.7h10.2c0.2-0.2,0.2-0.7,0.2-1.6c0-0.1,0-0.2,0-0.2c-0.4-0.5-0.8-0.9-1.2-1.4
		C82.6,47.7,81.8,47,81,46.3z"/>
	
		<radialGradient id="SVGID_00000169530188176037949700000007411866675346160539_" cx="73.6187" cy="121.1635" r="125.9805" gradientUnits="userSpaceOnUse">
		<stop  offset="0" style="stop-color:#00746D"/>
		<stop  offset="0.2174" style="stop-color:#00746D"/>
		<stop  offset="0.4101" style="stop-color:#09998F"/>
		<stop  offset="0.6425" style="stop-color:#16CABD"/>
		<stop  offset="1" style="stop-color:#16CABD"/>
	</radialGradient>
	<path style="fill:url(#SVGID_00000169530188176037949700000007411866675346160539_);" d="M69,35.8c1.1,3.9,3.5,4.9,4.6,4.9
		c0,0,0,0,0.1,0c0,0,0,0,0.1,0c1.1-0.1,3.6-1,4.6-4.9c0,0,0.5-0.6,0.5-1.9c0-0.4-0.4-0.8-0.4-0.8s0.4-1.1,0.4-2.1c0-1-1-4.3-5.2-4.3
		c0,0,0,0-0.1,0c0,0,0,0-0.1,0c-4.1,0.1-5.2,3.3-5.2,4.3c0,1.1,0.4,2.1,0.4,2.1s-0.4,0.3-0.4,0.8C68.5,35.3,69,35.8,69,35.8z"/>
	
		<radialGradient id="SVGID_00000179646759864622203280000014628452973513319311_" cx="73.6187" cy="121.1635" r="125.9805" gradientUnits="userSpaceOnUse">
		<stop  offset="0" style="stop-color:#00746D"/>
		<stop  offset="0.2174" style="stop-color:#00746D"/>
		<stop  offset="0.4101" style="stop-color:#09998F"/>
		<stop  offset="0.6425" style="stop-color:#16CABD"/>
		<stop  offset="1" style="stop-color:#16CABD"/>
	</radialGradient>
	<path style="fill:url(#SVGID_00000179646759864622203280000014628452973513319311_);" d="M73.9,41.9c0,0-0.1,0-0.1,0l0,0l0,0
		c0,0-0.1,0-0.1,0c-0.2,0-0.6-0.1-1.1-0.2l1.2,1.8l-1,1l1,6.2l0.1,0.4l0.1-0.4l1-6.2l-1-1l1.2-1.8C74.5,41.8,74.1,41.9,73.9,41.9z"
		/>
	
		<radialGradient id="SVGID_00000016756055237829243580000003371064042064602515_" cx="73.6187" cy="121.1635" r="125.9805" gradientUnits="userSpaceOnUse">
		<stop  offset="0" style="stop-color:#00746D"/>
		<stop  offset="0.2174" style="stop-color:#00746D"/>
		<stop  offset="0.4101" style="stop-color:#09998F"/>
		<stop  offset="0.6425" style="stop-color:#16CABD"/>
		<stop  offset="1" style="stop-color:#16CABD"/>
	</radialGradient>
	<path style="fill:url(#SVGID_00000016756055237829243580000003371064042064602515_);" d="M58.8,58.7h29.7c0.1-0.1,0.2-0.2,0.3-0.3
		c0.6-0.6,1-1.4,1-2.4c0-1.8-1.5-3.3-3.3-3.3h0c-0.2-0.7-0.5-1.4-0.9-2.1c-0.3-0.6-0.7-1.1-1.2-1.6c0,0.3,0,0.6,0,0.8
		c0.3,0.3,0.5,0.7,0.7,1.1c0.3,0.6,0.6,1.2,0.7,1.8H61.5c0.1-0.6,0.4-1.3,0.7-1.8c0.2-0.4,0.4-0.7,0.7-1c0-0.2,0-0.5,0-0.8
		c-0.4,0.5-0.8,1-1.2,1.6c-0.4,0.6-0.7,1.3-0.9,2.1h0c-0.9,0-1.8,0.4-2.4,1c-0.6,0.6-1,1.4-1,2.4C57.5,57.1,58,58.1,58.8,58.7z"/>
	
		<radialGradient id="SVGID_00000142139059663282469290000004768965875945118106_" cx="73.6187" cy="121.1635" r="125.9805" gradientUnits="userSpaceOnUse">
		<stop  offset="0" style="stop-color:#00746D"/>
		<stop  offset="0.2174" style="stop-color:#00746D"/>
		<stop  offset="0.4101" style="stop-color:#09998F"/>
		<stop  offset="0.6425" style="stop-color:#16CABD"/>
		<stop  offset="1" style="stop-color:#16CABD"/>
	</radialGradient>
	<path style="fill:url(#SVGID_00000142139059663282469290000004768965875945118106_);" d="M75.9,79.3c0.6-1,1.5-2.1,2.9-2.8
		c0.9-0.5,2.1-0.7,3.3-0.8h0.2c0.1,0,0.2,0,0.3,0l2.7-16.1H62.1l2.7,15.9c0.1,0,0.2,0,0.3,0h0.2c1.9,0,3.5,0.7,4.6,1.5
		c1.1,0.9,1.7,2,2.1,2.9c0.2,0.6,0.3,1.2,0.3,1.8c0,0.7-0.1,1.3-0.2,1.8c0,0,0,0,0,0.1c0.1,0.3,0.2,0.6,0.2,1c0,0.9-0.2,1.7-0.4,2.2
		c-0.1,0.2-0.2,0.4-0.3,0.5c-0.2,0.8-0.5,1.5-0.8,2.1c0.1,0,0.1,0.1,0.2,0.1l0,0c0.1,0.1,0.2,0.1,0.4,0.2s0.5,0.1,0.8,0.2
		c0.5,0.1,1.1,0.4,1.7,0.8c0.3-0.2,0.6-0.3,0.9-0.4c0.6-0.2,1.1-0.3,1.4-0.4c0.2-0.1,0.3-0.1,0.4-0.2c0.1,0,0.1-0.1,0.2-0.1
		c-0.3-0.6-0.6-1.3-0.9-2.1c-0.1-0.1-0.2-0.3-0.3-0.5c-0.2-0.5-0.4-1.3-0.4-2.2c0-0.4,0.1-0.7,0.2-1c0,0,0-0.1,0-0.1
		c-0.1-0.5-0.2-1.1-0.2-1.8c0-0.4,0.1-0.8,0.2-1.3C75.5,80.3,75.7,79.8,75.9,79.3z"/>
</g>
</svg>
