<?xml version="1.0" encoding="utf-8"?>
<!-- Generator: Adobe Illustrator 26.0.2, SVG Export Plug-In . SVG Version: 6.00 Build 0)  -->
<svg version="1.1" id="Calque_1" xmlns="http://www.w3.org/2000/svg" xmlns:xlink="http://www.w3.org/1999/xlink" x="0px" y="0px"
	 viewBox="0 0 147.4 147.4" style="enable-background:new 0 0 147.4 147.4;" xml:space="preserve">
<style type="text/css">
	.st0{fill:url(#SVGID_1_);}
	.st1{fill:url(#SVGID_00000144331678957786036410000008478609527028673153_);}
	.st2{fill:url(#SVGID_00000052070021620081444370000012406637218757976496_);}
	.st3{fill:url(#SVGID_00000023987656848323767710000010238336272532191395_);}
	.st4{fill:url(#SVGID_00000026867936183478939780000010980095734655044254_);}
	.st5{fill:url(#SVGID_00000148622160208010471390000018010221372167155845_);}
	.st6{fill:url(#SVGID_00000099638507885179426100000010172392685745686686_);}
	.st7{fill:url(#XMLID_00000146459571844841153590000000252148771570590899_);}
	.st8{fill:url(#XMLID_00000098911297260977016930000006805589286439969718_);}
	.st9{fill:url(#XMLID_00000176010620624918090270000013347698248768526266_);}
	.st10{fill:url(#XMLID_00000179631772419279211630000000454553106531315341_);}
	.st11{fill:url(#XMLID_00000157293498002419511120000000556315919139431596_);}
	.st12{fill:url(#XMLID_00000077310406531871978600000004378871830989581742_);}
	.st13{fill:url(#XMLID_00000152225618117769633720000013429828821362652093_);}
	.st14{fill:url(#XMLID_00000114044144408691131340000018406811076517242536_);}
	.st15{fill:none;stroke:#FFFFFF;stroke-miterlimit:10;}
	.st16{fill:url(#SVGID_00000016786299023751545140000001235031396696423067_);}
	.st17{fill:url(#SVGID_00000163047331026208781730000000764401134449777319_);}
	.st18{fill:url(#SVGID_00000129193255567773456680000016439002329438592441_);}
	.st19{fill:url(#SVGID_00000029012892207653427230000006914315419300940464_);}
	.st20{fill:url(#SVGID_00000105396386921804496010000005873042434330630291_);}
	.st21{fill:url(#SVGID_00000118360447105242233460000017849756535497578133_);}
	.st22{fill:url(#SVGID_00000161619147901939381320000014620956150398467205_);}
	.st23{fill:url(#SVGID_00000013888483991618894630000008456171552677814168_);}
	.st24{fill:url(#SVGID_00000139284634740944028540000001423793936118582925_);}
	.st25{fill:url(#SVGID_00000151533375470293771090000001992084845701157551_);}
	.st26{fill:url(#SVGID_00000142857104477786872990000002119353357985229987_);}
	.st27{fill:url(#SVGID_00000157991952331717610150000013370295909173363346_);}
	.st28{fill:url(#SVGID_00000052087198395349714160000008762850479745019314_);}
	.st29{fill:url(#SVGID_00000074434614648377944270000003322748400443051182_);}
	.st30{fill:url(#SVGID_00000154388352548654063600000005745826307042624399_);}
	.st31{fill:url(#SVGID_00000013168713553583345530000002103587759598768537_);}
	.st32{fill:url(#SVGID_00000001622765575926110680000009189543381430562457_);}
	.st33{fill:url(#SVGID_00000011007161141057898370000012082100282777715091_);}
	.st34{fill:url(#SVGID_00000132045690322057695310000004732999972279571585_);}
	.st35{fill:url(#SVGID_00000048484242015864658840000009620400243149349517_);}
	.st36{fill:url(#SVGID_00000073687167667673860550000007580153927147336868_);}
	.st37{fill:url(#SVGID_00000033346117221055124670000006817387079714967485_);}
	.st38{fill:url(#SVGID_00000083785550350809346510000016742414679669802639_);}
	.st39{fill:url(#SVGID_00000178170588645883231860000016045365483749930627_);}
	.st40{fill:url(#SVGID_00000116222434299621988070000010339862256568264365_);}
	.st41{fill:url(#SVGID_00000155829156480855021550000015460850055834871178_);}
	.st42{fill:url(#SVGID_00000155863121182991061290000000825215517595688086_);}
	.st43{fill:url(#SVGID_00000007406155372580254070000006266775688432338339_);}
	.st44{fill:url(#SVGID_00000071548483192746674870000001657695389358255767_);}
	.st45{fill:url(#SVGID_00000177466831482380610380000003819846760159752359_);}
	.st46{fill:url(#SVGID_00000079463552548513148750000013477633643167738806_);}
</style>
<g id="XMLID_226_">
	
		<radialGradient id="XMLID_00000040568854275045766600000008936162639472358558_" cx="61.7332" cy="31.4965" r="170.1927" gradientUnits="userSpaceOnUse">
		<stop  offset="0" style="stop-color:#FFFFFF"/>
		<stop  offset="1" style="stop-color:#C4BBBB"/>
	</radialGradient>
	
		<circle id="XMLID_228_" style="fill:url(#XMLID_00000040568854275045766600000008936162639472358558_);" cx="73.7" cy="73.7" r="73.7"/>
	
		<linearGradient id="XMLID_00000152957815910105712340000006706533048215587003_" gradientUnits="userSpaceOnUse" x1="5.0394" y1="73.702" x2="142.3644" y2="73.702">
		<stop  offset="0" style="stop-color:#C4BBBB"/>
		<stop  offset="1" style="stop-color:#FFFFFF"/>
	</linearGradient>
	
		<circle id="XMLID_227_" style="fill:url(#XMLID_00000152957815910105712340000006706533048215587003_);" cx="73.7" cy="73.7" r="68.7"/>
</g>
<g>
	<g>
		<radialGradient id="SVGID_1_" cx="86.7887" cy="35.317" r="165.2461" gradientUnits="userSpaceOnUse">
			<stop  offset="0.2174" style="stop-color:#00746D"/>
			<stop  offset="0.4001" style="stop-color:#09968D"/>
			<stop  offset="0.6425" style="stop-color:#16CABD"/>
		</radialGradient>
		<path class="st0" d="M120.6,107.2c0,3.4-0.4,4.8-1.1,5.4c-0.7,0.6-3.7,1.9-12.8,3c-8,1-17,1.1-19.1,1.2c-0.1,0-0.1,0-0.2,0
			c-0.1,0-0.2,0-0.3,0c-2.1,0-11.2-0.2-19.1-1.2c-9.1-1.1-12.1-2.5-12.8-3c-0.7-0.6-1.1-1.9-1.1-5.4c0-3.4,0.7-18.7,6.3-23.1
			c5.6-4.4,8.6-3.5,12-5.6c1.7-1,2.7-1.7,3.3-2.3c0.5,0.5,1,1,1.5,1.4L77,87.8l10.4,27l10.4-27l-0.3-10.1c0.5-0.4,1-0.9,1.5-1.4
			c0.7,0.5,1.7,1.3,3.3,2.3c3.4,2.1,6.4,1.2,12,5.6C119.9,88.5,120.6,103.8,120.6,107.2z"/>
		
			<radialGradient id="SVGID_00000160172442761298184630000018241282825017525413_" cx="86.7887" cy="35.317" r="165.2461" gradientUnits="userSpaceOnUse">
			<stop  offset="0.2174" style="stop-color:#00746D"/>
			<stop  offset="0.4001" style="stop-color:#09968D"/>
			<stop  offset="0.6425" style="stop-color:#16CABD"/>
		</radialGradient>
		<path style="fill:url(#SVGID_00000160172442761298184630000018241282825017525413_);" d="M103.5,57.5c0,4.1-1.7,5.9-1.7,5.9
			c-3.3,12.1-10.7,15-14.2,15.2c-0.1,0-0.2,0-0.2,0c-0.1,0-0.1,0-0.2,0c-3.5-0.2-11-3.1-14.2-15.2c0,0-1.7-1.8-1.7-5.9
			c0-1.4,1.1-2.3,1.1-2.3s-1.1-3.3-1.1-6.5c0-3.2,3.2-13.1,15.9-13.3c0.1,0,0.1,0,0.2,0s0.1,0,0.2,0c12.7,0.2,15.9,10.1,15.9,13.3
			c0,3.2-1.1,6.5-1.1,6.5S103.5,56.1,103.5,57.5z"/>
		
			<radialGradient id="SVGID_00000174599218561933291640000013715827081937104050_" cx="86.7887" cy="35.317" r="165.2461" gradientUnits="userSpaceOnUse">
			<stop  offset="0.2174" style="stop-color:#00746D"/>
			<stop  offset="0.4001" style="stop-color:#09968D"/>
			<stop  offset="0.6425" style="stop-color:#16CABD"/>
		</radialGradient>
		<path style="fill:url(#SVGID_00000174599218561933291640000013715827081937104050_);" d="M87.6,86.9l3.2,3l-3.2,19.2l-0.2,1.4
			l-0.2-1.4L84,89.9l3.2-3l-3.7-5.6c1.5,0.5,2.7,0.6,3.4,0.7c0.1,0,0.2,0,0.3,0l0.1,0l0.1,0c0.1,0,0.2,0,0.3,0
			c0.7,0,1.9-0.2,3.4-0.7L87.6,86.9z"/>
	</g>
	
		<radialGradient id="SVGID_00000160870280432089134800000011179116011880093576_" cx="66.2461" cy="72.4095" r="81.6063" gradientUnits="userSpaceOnUse">
		<stop  offset="0.2174" style="stop-color:#00746D"/>
		<stop  offset="0.4001" style="stop-color:#09968D"/>
		<stop  offset="0.6425" style="stop-color:#16CABD"/>
	</radialGradient>
	<path style="fill:url(#SVGID_00000160870280432089134800000011179116011880093576_);" d="M52.8,71.4c-1.7,0.4-3.5,0.7-5.3,0.7
		c-5.7,0-10.9-2.3-14.6-6.1c-3.7-3.7-6.1-8.9-6.1-14.6c0-5.7,2.3-10.9,6.1-14.6c3.7-3.7,8.9-6.1,14.6-6.1c5.7,0,10.9,2.3,14.6,6.1
		c3.8,3.8,6.1,8.9,6.1,14.6c0,2.2-0.3,4.2-0.9,6.2c-0.6,2-1.5,3.9-2.7,5.6c-1.5,3.1,3.6,7.4,4.9,8.5c0.5,0.4,0.8,0.7,0.7,1.3
		c0,0.1,0,0.1,0,0.2l0,0c-0.1,0.4-0.5,0.8-1,0.7c-3.8,0.4-6.6,0-8.6-0.7c-2-0.7-3.3-1.9-3.9-3.1C55.4,70.5,54.1,71,52.8,71.4
		 M47.5,69.9c1.7,0,3.2-0.2,4.8-0.6c1.6-0.4,3.1-1,4.4-1.8v0c0.4-0.3,1-0.1,1.3,0.2c0,0,0.1,0.1,0.1,0.1l0,0l0,0l0,0l0,0l0,0
		c0,0.1,0.1,0.1,0.1,0.2l0,0l0,0l0,0.1l0,0.1l0,0v0c0.2,1.1,1.1,2.1,3,2.8c1.3,0.5,3,0.7,5.3,0.7c-2.3-2.2-5.6-6-3.9-9.6
		c0-0.1,0.1-0.2,0.2-0.3c1-1.5,1.9-3.2,2.4-5c0.6-1.8,0.8-3.6,0.8-5.6c0-5.1-2.1-9.8-5.5-13.2c-3.4-3.4-8-5.4-13.2-5.4
		c-5.1,0-9.8,2.1-13.2,5.4c-3.4,3.4-5.4,8-5.4,13.2c0,5.1,2.1,9.8,5.4,13.2C37.7,67.9,42.3,69.9,47.5,69.9z"/>
	
		<radialGradient id="SVGID_00000168081662850095962580000009558715553117739443_" cx="66.2461" cy="72.4095" r="81.6063" gradientUnits="userSpaceOnUse">
		<stop  offset="0.2174" style="stop-color:#00746D"/>
		<stop  offset="0.4001" style="stop-color:#09968D"/>
		<stop  offset="0.6425" style="stop-color:#16CABD"/>
	</radialGradient>
	<path style="fill:url(#SVGID_00000168081662850095962580000009558715553117739443_);" d="M56.1,52.7c0,0.9,0.2,1.5,0.6,2
		c0.4,0.5,0.9,0.7,1.5,0.7c0.6,0,1.1-0.2,1.5-0.7c0.4-0.5,0.6-1.1,0.6-2c0-0.9-0.2-1.5-0.6-2c-0.4-0.5-0.9-0.7-1.5-0.7
		c-0.6,0-1.1,0.2-1.5,0.7C56.3,51.2,56.1,51.8,56.1,52.7 M53.7,52.6c0-0.8,0.2-1.5,0.6-2.2c0.4-0.7,0.9-1.3,1.6-1.7
		c0.7-0.4,1.5-0.6,2.3-0.6c1.3,0,2.4,0.4,3.3,1.3c0.8,0.9,1.3,2,1.3,3.3c0,1.3-0.4,2.4-1.3,3.3c-0.9,0.9-1.9,1.3-3.2,1.3
		c-0.8,0-1.6-0.2-2.3-0.5c-0.7-0.4-1.3-0.9-1.7-1.6C53.9,54.5,53.7,53.6,53.7,52.6z M47.6,48.3h1.3v-0.7c0-0.7,0.1-1.3,0.2-1.7
		c0.2-0.4,0.4-0.7,0.9-0.9c0.4-0.2,1-0.3,1.6-0.3c0.7,0,1.3,0.1,1.9,0.3l-0.3,1.6c-0.4-0.1-0.7-0.1-1.1-0.1c-0.3,0-0.6,0.1-0.7,0.2
		c-0.1,0.2-0.2,0.5-0.2,0.9v0.6H53v1.8h-1.7v7h-2.3v-7h-1.3V48.3z M46.3,57.1h-2.3v-4.5c0-0.9-0.1-1.6-0.1-1.8
		c-0.1-0.3-0.3-0.5-0.5-0.6c-0.2-0.2-0.5-0.2-0.8-0.2c-0.4,0-0.8,0.1-1.1,0.3c-0.3,0.2-0.5,0.5-0.7,0.9c-0.1,0.4-0.2,1-0.2,2v4h-2.3
		v-8.8h2.2v1.3c0.8-1,1.7-1.5,2.9-1.5c0.5,0,1,0.1,1.4,0.3c0.4,0.2,0.7,0.4,1,0.7c0.2,0.3,0.4,0.6,0.5,1c0.1,0.4,0.1,0.9,0.1,1.6
		V57.1z M33.5,57.1v-8.8h2.3v8.8H33.5z M33.5,47.1V45h2.3v2.2H33.5z"/>
</g>
</svg>
