<?xml version="1.0" encoding="utf-8"?>
<!-- Generator: Adobe Illustrator 24.0.2, SVG Export Plug-In . SVG Version: 6.00 Build 0)  -->
<svg version="1.1" id="Calque_1" xmlns="http://www.w3.org/2000/svg" xmlns:xlink="http://www.w3.org/1999/xlink" x="0px" y="0px"
	 viewBox="0 0 611.2 155.2" style="enable-background:new 0 0 611.2 155.2;" xml:space="preserve">
<style type="text/css">
	.st0{fill:#FFFFFF;}
</style>
<g>
	<path class="st0" d="M116.5,116.7c-3,6.2-6.4,9.8-11.6,9.5c-2.8-0.1-10.1-2.6-15.1-15.9c-1.2-3.1-2.1-6.2-2.7-9
		c-1.4,9.8-4,19.1-7.8,27.9c9.3,22.3,22.8,26.1,28.2,26.1c11.1,0,18.9-8.1,25.9-21.6c0,0,15.9-7.1,20-18.1
		c4.1-10.9,0.9-21.9-14.4-30.8c-4.8-2.8-9.7-5.1-14.6-7c-11-4.2-22.5-6.5-33.7-7.1c-0.6,0-1.2-0.1-1.7-0.1c0.1,1.3,0.1,2.6,0.1,3.7
		c0,0,0,0,0,0c-0.1,2.3-0.2,5.7-0.4,10.6c0,0.2,0,0.3,0,0.5c1.5,0.1,3.6,0.3,6.4,0.6c7.7,0.8,15.6,3.3,23.1,7.8
		c7.5,4.6,9.2,9.8,7.5,14.8C123.8,113.7,116.5,116.7,116.5,116.7z"/>
	<path class="st0" d="M44.9,89.8c3.2-1.2,6.2-2.1,9.1-2.8c-8.2-1.2-16.1-3.2-23.6-6.1L29,80.5c-0.4-0.1-0.7-0.3-1.1-0.5l-0.2-0.1
		l-0.9-0.4l0,0c-0.2-0.1-0.5-0.2-0.7-0.3c0,0,0,0,0,0C3.8,88.5,0,102,0,107.4c0,1.7,0.2,3.4,0.6,5c0.1,0.5,0.3,1,0.5,1.6
		c0,0,0,0,0,0c0.3,1,0.7,2,1.2,2.9c0,0,0,0,0,0.1c0.1,0.3,0.3,0.6,0.5,0.9c0,0.1,0.1,0.1,0.1,0.2c0.5,0.8,1.1,1.7,1.7,2.5
		c0.1,0.1,0.1,0.2,0.2,0.3c0.2,0.2,0.4,0.5,0.6,0.7c0.1,0.1,0.2,0.2,0.3,0.3c0.4,0.5,0.9,1,1.4,1.5c1.6,1.6,3.4,3.1,5.5,4.6
		c0.7,0.5,1.5,1,2.3,1.5c0.5,0.3,1,0.6,1.5,0.9c1.7,1,3.4,2,5.3,3c0,0,0.1,0.2,0.2,0.5l0,0c0.1,0.1,0.1,0.2,0.2,0.4
		c0,0.1,0.1,0.2,0.1,0.2c0.1,0.1,0.1,0.2,0.2,0.4c0.1,0.1,0.1,0.3,0.2,0.4l0,0c0.2,0.3,0.4,0.7,0.6,1.1c0.1,0.3,0.3,0.5,0.5,0.8
		c0,0,0,0,0,0c0.1,0.2,0.2,0.4,0.4,0.6c0.1,0.1,0.1,0.2,0.2,0.3c0.1,0.2,0.3,0.5,0.4,0.7c0.1,0.2,0.3,0.5,0.5,0.7
		c0.2,0.2,0.3,0.5,0.5,0.7c0.2,0.3,0.3,0.5,0.5,0.8c0.3,0.4,0.5,0.8,0.8,1.2c1.6,2.2,3.5,4.5,5.6,6.5c0.3,0.3,0.7,0.6,1,0.9
		c0.2,0.2,0.5,0.4,0.7,0.6l0,0c0.3,0.3,0.7,0.5,1,0.7c0.5,0.4,1.1,0.7,1.7,1.1c0.3,0.2,0.7,0.4,1,0.5c0.6,0.3,1.1,0.5,1.7,0.7
		c1,0.4,2.1,0.7,3.1,1c0.5,0.1,1,0.2,1.6,0.3c0.3,0.1,0.5,0.1,0.8,0.1c0.5,0.1,1,0.1,1.5,0.2c0,0,0,0,0,0c0.5,0,1,0.1,1.5,0.1
		c0.7,0,1.3,0,2-0.1c0.6-0.1,1.2-0.1,1.7-0.3c0.3-0.1,0.5-0.1,0.8-0.2c0.2-0.1,0.5-0.1,0.7-0.2c0.4-0.1,0.9-0.3,1.3-0.4
		c0.6-0.2,1.2-0.4,1.7-0.7c0.6-0.3,1.2-0.6,1.8-1c4.3-2.5,8.4-6.8,12.1-13.3c2.8-4.8,5.1-9.7,7-14.6c0,0,0,0,0,0
		c4.2-11.1,6.5-22.5,7.1-33.7c0-0.5,0.1-1.1,0.1-1.6c0.1-1.3,0.1-2.5,0.2-3.6c0-0.1,0-0.1,0-0.2c0.2-4.7,0.4-8,0.4-10.3v-0.1
		c0,0,0,0,0-0.1c0-0.1,0-0.2,0-0.3v-0.1c0-1.2-0.1-2.5-0.1-3.8c0-0.1,0-0.1,0-0.2v0c-0.1-1.1-0.1-2.3-0.2-3.6
		c-0.1-2.1-0.4-4.3-0.6-6.6c-0.1-0.7-0.2-1.3-0.2-2c-0.2-1.5-0.4-3.1-0.7-4.7c-0.1-0.3-0.1-0.7-0.2-1c-0.1-0.4-0.1-0.8-0.2-1.2
		c-0.1-0.4-0.1-0.8-0.2-1.2c-0.2-1.3-0.5-2.6-0.8-4c-0.1-0.7-0.3-1.3-0.4-2c-0.1-0.5-0.2-0.9-0.3-1.4c-0.2-0.9-0.4-1.8-0.7-2.7
		c-0.1-0.4-0.2-0.7-0.3-1.1c-0.4-1.3-0.8-2.7-1.2-4.1c-0.2-0.8-0.5-1.6-0.8-2.4c-0.1-0.4-0.3-0.8-0.4-1.2C68.6,4.3,53.6,0,47.8,0
		c-0.4,0-0.8,0-1.1,0c-0.6,0-1.1,0.1-1.7,0.1c-0.4,0-0.7,0.1-1.1,0.2c-1.6,0.3-3.2,0.8-4.6,1.5c-0.3,0.1-0.7,0.3-1,0.5
		c-0.9,0.5-1.9,1.1-2.8,1.7c-0.5,0.3-0.9,0.7-1.4,1.1c-0.4,0.4-0.9,0.7-1.3,1.1c-0.3,0.3-0.6,0.5-0.9,0.8c-2.5,2.5-4.8,5.6-7,9.2
		c-0.4,0.7-0.8,1.3-1.2,2c-0.6,1-1.2,2.1-1.8,3.2c0,0-0.6,0.3-1.7,0.8c-0.2,0.1-0.5,0.3-0.8,0.4c-0.3,0.2-0.6,0.3-1,0.5
		c-0.3,0.1-0.6,0.3-0.9,0.5c-0.3,0.2-0.7,0.4-1.1,0.6c-0.4,0.2-0.7,0.5-1.1,0.7c-0.4,0.3-0.8,0.5-1.2,0.8c-0.4,0.3-0.8,0.5-1.2,0.8
		c-1.8,1.3-3.7,2.8-5.4,4.6C6,33,4.5,34.8,3.3,36.8c-0.2,0.4-0.4,0.7-0.6,1.1C2.4,38.5,2.2,39,2,39.6c-4.1,10.9-1,21.9,14.4,30.8
		c1,0.6,1.9,1.1,2.9,1.6c0.4,0.2,0.8,0.4,1.2,0.6c1.1,0.5,2.1,1.1,3.2,1.6c0.5,0.2,1,0.5,1.5,0.7c0.3,0.2,0.7,0.3,1,0.5
		c0.4,0.2,0.8,0.4,1.2,0.5c0.3,0.1,0.5,0.2,0.8,0.3c0.4,0.1,0.7,0.3,1.1,0.4c0.6,0.2,1.2,0.5,1.8,0.7c0,0,0,0,0,0
		c11,4.2,22.4,6.5,33.7,7.1c0.6,0,1.2,0.1,1.8,0.1c0.1-2.4,0.2-4.8,0.2-7.3c0-2.4-0.1-4.7-0.2-7c0-0.2,0-0.3,0-0.5
		c-1.5-0.1-3.5-0.3-6.1-0.6c-7.7-0.9-15.6-3.3-23.1-7.8c-7.4-4.6-9.2-9.8-7.5-14.8c1.7-5,8.9-8,8.9-8c2.9-6.2,6.4-9.8,11.6-9.5
		c1.6,0.1,4.9,1,8.3,4.5l0,0c2.3,2.4,4.7,6,6.8,11.4c1.1,2.9,1.9,5.7,2.6,8.4c0,0,0,0.1,0,0.1c2.3,9.4,2.1,16.4,2.1,16.4
		s0,0.1,0,0.2c0,0,0,0,0,0c0,0.1,0,0.1,0,0.2c0.3,4.8,0.3,9.7,0,14.6c0,0.2,0,0.3,0,0.5c-0.1,1-0.1,2-0.2,3.1
		c-0.1,0.8-0.2,1.7-0.2,2.5c0,0,0,0.1,0,0.1c-0.1,1.1-0.2,2.3-0.4,3.8c-0.3,2.8-0.8,5.6-1.6,8.4c-1.3,5-3.4,9.9-6.3,14.7
		c-1,1.6-2,3-3.1,4.1c-3.8,4-7.8,4.8-11.8,3.5c-5-1.7-8-8.9-8-8.9c-6.2-3-9.8-6.4-9.5-11.6C29.2,102.1,31.7,94.8,44.9,89.8z"/>
	<path class="st0" d="M81.6,31.1c2.7,8,4.4,15.8,5.5,22.9c0.1-0.3,0.1-0.6,0.2-0.8c0.1-0.4,0.2-0.8,0.3-1.3c0-0.1,0-0.1,0.1-0.2
		c0.1-0.2,0.1-0.5,0.2-0.7c0.1-0.2,0.1-0.5,0.2-0.7c0.1-0.5,0.3-1,0.5-1.5c0,0,0,0,0-0.1c0.1-0.3,0.2-0.6,0.3-0.8
		c0.1-0.2,0.1-0.3,0.2-0.5c0,0,0-0.1,0-0.1c0.1-0.4,0.3-0.7,0.4-1.1c0.1-0.4,0.3-0.7,0.4-1.1c0.1-0.4,0.3-0.7,0.5-1.1
		c0.2-0.4,0.3-0.7,0.5-1.1c0.1-0.2,0.2-0.5,0.3-0.7c0.1-0.2,0.2-0.5,0.4-0.7c0-0.1,0-0.1,0.1-0.2c0.3-0.5,0.5-1,0.8-1.5
		c0.3-0.5,0.6-1,0.9-1.5l0,0c0.2-0.3,0.4-0.7,0.6-1c0.3-0.5,0.6-1,0.9-1.4c0.2-0.2,0.3-0.5,0.5-0.7c0.1-0.2,0.2-0.3,0.4-0.5
		c0.1-0.1,0.2-0.3,0.3-0.4c0.1-0.1,0.2-0.3,0.3-0.4c0.1-0.2,0.3-0.3,0.4-0.4c0.1-0.1,0.2-0.2,0.3-0.3c0.2-0.2,0.4-0.5,0.7-0.7
		c0.1-0.1,0.1-0.1,0.2-0.2c0.1-0.1,0.2-0.2,0.3-0.3c0,0,0,0,0,0c0.3-0.2,0.5-0.5,0.8-0.6c0,0,0.1-0.1,0.1-0.1
		c0.3-0.2,0.6-0.4,0.9-0.6c0.2-0.1,0.3-0.2,0.5-0.3c0.3-0.1,0.5-0.3,0.8-0.4c0,0,0,0,0,0c0.2-0.1,0.4-0.2,0.6-0.2
		c0.2-0.1,0.4-0.1,0.6-0.2c0.2-0.1,0.4-0.1,0.6-0.2c0.2-0.1,0.4-0.1,0.6-0.1c0.1,0,0.2-0.1,0.4-0.1c0.3-0.1,0.6-0.1,0.9-0.1
		c0.1,0,0.2,0,0.3,0c0.1,0,0.3,0,0.5,0c0.1,0,0.3,0,0.4,0c0.2,0,0.3,0,0.5,0c0.1,0,0.2,0,0.3,0c0.2,0,0.3,0.1,0.5,0.1
		c0.2,0,0.4,0.1,0.5,0.1c0.3,0.1,0.6,0.2,0.9,0.3c5,1.7,8,8.9,8,8.9c2.7,1.3,5,2.7,6.6,4.3c0.3,0.3,0.5,0.5,0.7,0.8
		c0.1,0.1,0.2,0.3,0.3,0.4c0.1,0.1,0.2,0.3,0.3,0.5c0.1,0.1,0.2,0.2,0.2,0.4c0.1,0.2,0.2,0.3,0.3,0.5c0.1,0.1,0.1,0.2,0.2,0.4
		c0,0,0,0,0,0c0.1,0.1,0.1,0.3,0.2,0.4c0.1,0.2,0.1,0.4,0.2,0.5c0.1,0.1,0.1,0.3,0.1,0.4c0,0.1,0.1,0.2,0.1,0.3c0,0.1,0,0.2,0.1,0.3
		c0,0.1,0.1,0.2,0.1,0.4c0,0.2,0.1,0.3,0.1,0.5c0,0.3,0.1,0.7,0.1,1c0,0.2,0,0.4,0,0.5c0,0.1,0,0.2,0,0.3c0,0.1,0,0.2,0,0.4
		c0,0,0,0.1,0,0.1c0,0.2-0.1,0.4-0.1,0.7c-0.1,0.4-0.3,0.9-0.5,1.4c-0.1,0.2-0.1,0.3-0.2,0.5c-0.1,0.2-0.2,0.4-0.3,0.5
		c-0.1,0.2-0.2,0.4-0.3,0.6c-0.1,0.2-0.2,0.3-0.3,0.5c-0.1,0.2-0.3,0.5-0.5,0.7c-0.1,0.2-0.2,0.3-0.4,0.5c-0.1,0.2-0.2,0.3-0.4,0.5
		c-0.1,0.1-0.2,0.2-0.3,0.3c-0.1,0.2-0.3,0.3-0.4,0.5c-0.2,0.2-0.4,0.4-0.6,0.6c-0.1,0.1-0.2,0.2-0.4,0.4c-0.1,0.1-0.2,0.2-0.2,0.2
		c-0.1,0.1-0.2,0.2-0.4,0.3c-0.2,0.1-0.3,0.3-0.5,0.5c-0.5,0.5-1.1,0.9-1.8,1.3c-0.2,0.1-0.4,0.3-0.7,0.5c-0.2,0.1-0.5,0.3-0.7,0.4
		c-0.2,0.1-0.5,0.3-0.7,0.4c-0.2,0.1-0.5,0.3-0.8,0.4c-0.3,0.1-0.5,0.3-0.8,0.4c-0.5,0.3-1.1,0.6-1.7,0.8c-0.3,0.1-0.6,0.3-0.9,0.4
		c-0.3,0.2-0.7,0.3-1.1,0.4c-0.3,0.1-0.6,0.2-0.9,0.4c-0.6,0.2-1.1,0.4-1.7,0.6c-0.5,0.2-0.9,0.3-1.4,0.5c-0.1,0-0.3,0.1-0.4,0.1
		c-0.3,0.1-0.7,0.2-1,0.3c-0.8,0.2-1.5,0.5-2.3,0.6c-0.4,0.1-0.7,0.2-1.1,0.3c-0.4,0.1-0.7,0.2-1.1,0.3c9.8,1.4,19.1,4,27.8,7.8
		c0.3-0.1,0.6-0.3,0.9-0.4c0.5-0.2,1.1-0.5,1.6-0.7c1.1-0.5,2.2-1.1,3.3-1.6c0.3-0.1,0.5-0.3,0.8-0.4c0.3-0.1,0.5-0.3,0.7-0.4
		c0.2-0.1,0.5-0.3,0.7-0.4c0.2-0.1,0.5-0.3,0.7-0.4c0.4-0.2,0.8-0.5,1.2-0.7c0.1,0,0.1-0.1,0.2-0.1c0.4-0.3,0.9-0.6,1.3-0.9
		c0.2-0.1,0.4-0.2,0.5-0.4c0.2-0.1,0.4-0.3,0.6-0.5c0.2-0.2,0.4-0.3,0.7-0.5c0.6-0.4,1.1-0.9,1.7-1.3c0.4-0.3,0.7-0.6,1-0.9
		c0.2-0.1,0.3-0.3,0.5-0.4c0.5-0.4,0.9-0.9,1.4-1.3c0.3-0.3,0.6-0.6,0.8-0.9c0.2-0.2,0.4-0.4,0.6-0.6c0.1-0.2,0.3-0.3,0.4-0.5
		c0.2-0.2,0.3-0.4,0.5-0.6c0.2-0.2,0.3-0.4,0.5-0.6c0.1-0.2,0.3-0.3,0.4-0.5c0.6-0.8,1.1-1.6,1.6-2.4c0.1-0.2,0.3-0.4,0.4-0.6
		c0.1-0.1,0.1-0.2,0.2-0.3c0,0,0-0.1,0.1-0.1c0.1-0.2,0.3-0.5,0.4-0.7c0.8-1.5,1.3-2.9,1.7-4.2c0.1-0.2,0.1-0.4,0.2-0.5
		c0.1-0.3,0.1-0.5,0.2-0.8c0.1-0.6,0.2-1.2,0.3-1.8c0-0.2,0.1-0.4,0.1-0.6c0-0.5,0.1-0.9,0.1-1.2c0-1.2-0.1-2.3-0.3-3.4
		c0-0.3-0.1-0.5-0.1-0.8c-0.2-0.8-0.4-1.6-0.6-2.4c-0.2-0.5-0.4-1-0.6-1.5c-0.1-0.2-0.1-0.3-0.2-0.5c-0.3-0.7-0.6-1.3-1-1.9
		c-0.3-0.5-0.6-0.9-0.9-1.4c0,0,0,0,0-0.1c-0.1-0.2-0.3-0.4-0.4-0.6c-0.1-0.2-0.3-0.4-0.5-0.6c0,0-0.1-0.1-0.1-0.1c0,0,0,0,0,0
		c-0.2-0.3-0.4-0.5-0.6-0.8c0,0,0,0,0,0c-0.2-0.3-0.4-0.5-0.7-0.8c-3.7-4-8.9-7.6-15.4-10.9c0,0-7.1-15.9-18.1-20
		c-0.3-0.1-0.6-0.2-0.9-0.3c-0.2-0.1-0.4-0.1-0.5-0.2c-0.9-0.3-1.8-0.5-2.6-0.7c-0.2,0-0.3-0.1-0.5-0.1c-0.6-0.1-1.1-0.2-1.7-0.2
		c-0.1,0-0.3,0-0.4,0c-0.3,0-0.5-0.1-0.8-0.1c-0.3,0-0.7,0-1.1,0c-0.3,0-0.5,0-0.8,0c-0.1,0-0.3,0-0.4,0c-0.2,0-0.4,0-0.6,0.1
		c-0.1,0-0.1,0-0.2,0c-0.6,0.1-1.2,0.1-1.8,0.3c-0.4,0.1-0.8,0.2-1.1,0.3c-0.6,0.2-1.3,0.4-1.9,0.6c-0.2,0.1-0.5,0.2-0.7,0.3
		C99.2,2,99,2.1,98.7,2.2c-0.5,0.2-1,0.5-1.5,0.7c-0.5,0.3-1,0.6-1.5,0.9c-0.5,0.3-1,0.7-1.4,1C94.2,5,94,5.1,93.8,5.3
		c-0.1,0.1-0.2,0.1-0.3,0.2c-3.1,2.6-6,6.2-8.8,10.9c-0.3,0.5-0.6,1.1-0.9,1.6c-0.1,0.1-0.1,0.2-0.2,0.4c-0.3,0.5-0.6,1.1-0.9,1.6
		c0,0,0,0,0,0c-0.3,0.6-0.6,1.2-0.9,1.8c-0.2,0.4-0.4,0.8-0.6,1.2c-0.2,0.3-0.3,0.7-0.5,1c-0.2,0.5-0.5,1-0.7,1.5
		c-0.1,0.2-0.2,0.4-0.3,0.6c0,0,0,0,0,0C80.4,27.8,81,29.4,81.6,31.1z"/>
	<path class="st0" d="M201.9,32.5c0.9,0,2.8,1.4,5.6,4c1.3,1.2,2.8,1.9,4.4,1.9c1.2,0,2.2-0.5,3-1.4c0.8-0.9,1.3-2,1.3-3.4
		c0-1.9-0.9-3.6-2.7-5.1c-1.8-1.5-3.9-2.5-6.3-3c-0.8-0.2-1.6-0.3-2.4-0.3c-0.8,0-1.6,0.1-2.2,0.3c-0.7,0.2-1.1,0.4-1.4,0.7
		c-1.3,0.5-4,2.6-8.2,6.4c-4.2,3.8-6.7,6.6-7.5,8.4c-0.7,0.6-1.4,2.7-2.1,6.2c-0.7,3.5-1.1,6.8-1.1,10c0,9.2,1.9,16.4,5.6,21.6
		c3.4,4.7,7.7,7,13,7c3.1,0,6.4-1,9.9-3.1c3.5-2.1,5.2-3.9,5.2-5.4c0-0.8-0.2-1.5-0.5-2c-0.3-0.6-0.8-0.9-1.4-0.9
		c-1.9,1.3-3.8,2.5-5.6,3.7c-1.8,1.2-3.4,1.8-4.8,1.8c-3.4-0.3-6.3-2.8-8.5-7.5c-2.2-4.7-3.3-10.4-3.3-17c0-7.1,0.9-12.8,2.8-16.9
		C196.4,34.6,198.9,32.5,201.9,32.5z"/>
	<path class="st0" d="M247.6,85.4c1.2,0,2.4-0.4,3.6-1.2s1.8-1.8,1.8-3c0-2.5-1.4-6.1-4.2-10.7c-2.1-3.6-4.9-7.5-8.4-11.8v-1.9
		c2.7-1.5,5.2-3.7,7.4-6.7c2.2-2.9,3.3-5.7,3.3-8.4c0-3.6-1.8-7.4-5.6-11.1c-3.7-3.8-7.4-5.6-11.1-5.6c-3.5,0-6.7,1.2-9.6,3.5
		s-4.3,5.4-4.3,9v44.7c0,1,0.4,1.8,1.3,2.4c0.8,0.6,1.8,0.9,2.9,0.9c1.2,0,2.2-0.3,3.1-1c0.9-0.6,1.3-1.5,1.3-2.7V37.7
		c0-1.5,0.3-2.8,0.9-3.8c0.6-1,1.4-1.5,2.4-1.5c2.5,0,4.6,1.2,6.5,3.6c1.9,2.4,2.8,5,2.8,7.7c0,2.6-2.3,6-6.7,10c-2,1.8-3,3.7-3,5.6
		c2.1,3.8,3.8,6.8,4.9,9c3.4,6.6,5.8,11.6,6.9,15c0.7,0.8,1.3,1.3,1.9,1.6C246.3,85.2,246.9,85.4,247.6,85.4z"/>
	<path class="st0" d="M290.1,74.5c-0.4-0.6-0.8-0.9-1.3-0.9c-2.1,1.5-4.1,2.9-6.1,4.3c-2,1.4-3.8,2.1-5.3,2.1c-2.8,0-5.3-2-7.6-5.9
		c-2-3.4-2.9-6.8-2.9-10c0-2.4,0.7-3.5,2-3.5h16.5c1.1,0,2-0.5,2.5-1.4c0.6-0.9,0.8-2,0.8-3.3c0-1.1-0.2-2-0.5-2.6s-0.8-1-1.4-1
		h-18.5c-0.4,0-0.8-0.5-1.1-1.5c-0.3-1-0.4-2.3-0.4-3.8c0-3.5,0.6-6.6,1.9-9.2c1.6-3.2,3.9-4.8,6.8-4.8c1.5,0,3.3,0.9,5.4,2.8
		c2.1,1.9,4,2.8,5.8,2.8c0.8,0,1.5-0.7,1.9-2c0.3-0.8,0.5-2.1,0.7-3.8c0-1.6-1.1-3.1-3.4-4.6c-2.3-1.5-4.4-2.2-6.4-2.2
		c-4.8,0-9.6,2.7-14.4,8.2c-5.7,6.5-8.5,14.5-8.5,24.1c0,8.8,1.8,15.6,5.4,20.5c3.4,4.5,8,6.8,13.7,6.8c2.8,0,6-1,9.5-3.2
		c3.5-2.1,5.3-4,5.3-5.7C290.7,75.7,290.5,75,290.1,74.5z"/>
	<path class="st0" d="M332,86.3c1.4,0,2.6-0.6,3.6-1.8c1-1.2,1.4-2.4,1.1-3.7l-11-47c-0.7-2.7-1.8-4.7-3.3-6c-1.5-1.3-3.3-2-5.3-2
		s-3.8,0.5-5.4,1.7c-1.6,1.1-2.8,2.6-3.4,4.4l-12.8,37.8c-0.3,1-0.4,1.8-0.4,2.5c0,3.3,1.6,6.3,4.7,9.1s6.4,4.3,9.7,4.3
		c2.1,0,4.2-0.9,6.3-2.8c2.1-1.9,4.7-5.1,7.8-9.7c0.1-0.5,0.2-0.8,0.2-1c0-0.7-0.3-1.4-0.8-2c-0.5-0.7-1.1-1.1-1.8-1.2
		c-1.1,1.5-2,2.6-2.8,3.4c-2.2,2.3-4.1,3.4-5.8,3.4c-2.2,0-4.2-0.9-6.1-2.8s-2.8-4-2.8-6.3c0-0.7,0.1-1.5,0.4-2.4l9.8-28
		c0.2-0.7,0.7-1,1.6-1c0.6,0,1,0.3,1.2,0.8l11,45.9c0.4,1.6,1,2.8,1.7,3.5C330.2,85.9,331,86.3,332,86.3z"/>
	<path class="st0" d="M369,34.4c1,0,1.6-0.4,2.1-1.2c0.4-0.8,0.6-1.7,0.6-2.9c0-1.1-0.2-2-0.6-2.9c-0.4-0.8-0.9-1.3-1.5-1.3h-26.9
		c-0.8,0-1.4,0.4-1.7,1.1s-0.6,1.7-0.6,2.8c0,1.1,0.2,2,0.6,2.7c0.4,0.8,1,1.1,1.7,1.1h7.3c0.6,0,1.1,0.2,1.4,0.5
		c0.2,0.2,0.3,0.5,0.3,0.8c0,0.2,0,0.5,0,0.8V81c0,1.3,0.4,2.3,1.3,3.1c0.9,0.8,1.8,1.1,2.9,1.1s2-0.4,2.7-1.1
		c0.8-0.8,1.1-1.8,1.1-3.3v-44c0.3-0.6,0.5-1,0.7-1.4c0.4-0.7,0.7-1,0.9-1L369,34.4L369,34.4z"/>
	<path class="st0" d="M381.5,36.7c1.1-1.9,1.6-5,1.6-9.4c0-1.9-0.3-3.3-1-4.4s-1.6-1.6-2.8-1.6c-1.1,0-2.1,0.6-3,1.7
		c-0.9,1.1-1.4,2.3-1.4,3.5c0,2.2,0.6,3.6,1.9,4.3c1.2,0.7,1.9,1.7,1.9,3c0,0.2-0.2,1.1-0.7,2.7c-0.2,0.6-0.3,1.2-0.3,1.7
		c0,0.7,0.4,1,1.3,0.8C380,38.7,380.9,38,381.5,36.7z"/>
	<path class="st0" d="M416,82c3.5-2.1,5.3-4,5.3-5.7c0-0.7-0.2-1.3-0.6-1.9c-0.4-0.6-0.8-0.9-1.3-0.9c-2.1,1.5-4.1,2.9-6.1,4.3
		c-2,1.4-3.8,2.1-5.3,2.1c-2.8,0-5.3-2-7.6-5.9c-2-3.4-3-6.8-3-10c0-2.4,0.7-3.5,2-3.5H416c1.1,0,2-0.5,2.5-1.4
		c0.6-0.9,0.8-2,0.8-3.3c0-1.1-0.2-2-0.5-2.6s-0.8-1-1.4-1H399c-0.5,0-0.8-0.5-1.1-1.5c-0.3-1-0.4-2.3-0.4-3.8
		c0-3.5,0.6-6.6,1.9-9.2c1.6-3.2,3.9-4.8,6.8-4.8c1.5,0,3.3,0.9,5.4,2.8c2.1,1.9,4,2.8,5.8,2.8c0.8,0,1.5-0.7,1.9-2
		c0.3-0.8,0.5-2.1,0.7-3.8c0-1.6-1.1-3.1-3.4-4.6c-2.3-1.5-4.4-2.2-6.4-2.2c-4.8,0-9.6,2.7-14.4,8.2c-5.7,6.5-8.5,14.5-8.5,24.1
		c0,8.8,1.8,15.6,5.4,20.5c3.4,4.5,8,6.8,13.7,6.8C409.3,85.2,412.5,84.1,416,82z"/>
	<path class="st0" d="M458.6,27.7c-2.5-2.3-5.7-3.4-9.6-3.4c-2.6,0-5.3,1.7-8.1,5.2c-2.5,3-3.7,5.2-3.5,6.6c0,0.7,0.2,1.5,0.5,2.4
		c0.3,0.9,0.8,1.3,1.4,1.3c1,0,2-0.9,3.3-2.6c1.2-1.8,2.6-2.7,4.1-2.7c2.6,0,4.7,0.9,6.3,2.7c1.6,1.8,2.4,4.1,2.4,7
		c0,3.9-1.2,10.2-3.6,18.7c-2.4,8.5-4.3,12.8-5.6,12.8c-2.1,0-4.7-5.5-7.9-16.6c-3.2-11.1-4.8-20.7-4.8-28.8
		c-0.5-2.6-1.7-3.9-3.8-3.9c-1.2,0-2.3,0.4-3.2,1.3s-1.3,2-1.3,3.3c0,2.1,0.7,7.2,2.1,15.1c1.9,10.4,4,19,6.6,25.7
		c3.4,9,7.2,13.6,11.2,13.6c3.1,0,6.2-3.3,9-10c2.4-5.6,4.4-12.4,6-20.6c1.4-7.3,2.1-13.1,2.1-17.6
		C462.3,33.1,461.1,29.9,458.6,27.7z"/>
	<path class="st0" d="M500.2,76.3c0-0.7-0.2-1.3-0.6-1.9c-0.4-0.6-0.8-0.9-1.3-0.9c-2.1,1.5-4.1,2.9-6.1,4.3c-2,1.4-3.8,2.1-5.3,2.1
		c-2.8,0-5.3-2-7.6-5.9c-2-3.4-3-6.8-3-10c0-2.4,0.7-3.5,2-3.5H495c1.1,0,2-0.5,2.5-1.4c0.6-0.9,0.8-2,0.8-3.3c0-1.1-0.2-2-0.5-2.6
		c-0.3-0.7-0.8-1-1.4-1H478c-0.5,0-0.8-0.5-1.1-1.5c-0.3-1-0.4-2.3-0.4-3.8c0-3.5,0.6-6.6,1.9-9.2c1.6-3.2,3.9-4.8,6.8-4.8
		c1.5,0,3.3,0.9,5.4,2.8c2.1,1.9,4,2.8,5.8,2.8c0.8,0,1.5-0.7,1.9-2c0.3-0.8,0.5-2.1,0.7-3.8c0-1.6-1.1-3.1-3.4-4.6
		c-2.3-1.5-4.4-2.2-6.4-2.2c-4.8,0-9.6,2.7-14.4,8.2c-5.7,6.5-8.5,14.5-8.5,24.1c0,8.8,1.8,15.6,5.4,20.5c3.4,4.5,8,6.8,13.7,6.8
		c2.8,0,6-1,9.5-3.2S500.2,78,500.2,76.3z"/>
	<path class="st0" d="M539.4,27.5c0-1.6-0.7-2.4-1.9-2.4c-1.1,0-2.2,0.5-3.3,1.5c-1.1,1-1.6,2.1-1.6,3.4v13.3l-0.8,0.4
		c-3.1-3.4-5.7-6.2-7.8-8.3c-2.9-2.9-5.6-5.1-8.2-6.8c-2.9-1.9-5.3-2.9-7.3-2.9c-1,0-1.9,0.5-2.6,1.5c-0.7,1-1.1,2.2-1.1,3.5V82
		c0,1,0.3,1.8,0.9,2.3c0.6,0.5,1.4,0.8,2.4,0.8c1,0,1.8-0.3,2.5-0.8s1.1-1.2,1.1-2V42.7c0-1.3,0.6-2,1.9-2.1c0.5,0,2.2,1.1,5.1,3.5
		c3.3,2.8,6.1,5.6,8.4,8.5c2.9,3.7,4.4,7,4.4,10v18.2c0,1.6,0.4,2.8,1.2,3.6s1.7,1.2,2.8,1.2c1.1,0,2.1-0.4,2.9-1.2s1.2-1.9,1.2-3.2
		L539.4,27.5L539.4,27.5z"/>
	<path class="st0" d="M574.6,33.3c0.4-0.8,0.6-1.7,0.6-2.9c0-1.1-0.2-2-0.6-2.9c-0.4-0.8-0.9-1.3-1.5-1.3h-26.9
		c-0.8,0-1.4,0.4-1.7,1.1s-0.5,1.7-0.5,2.8c0,1.1,0.2,2,0.6,2.7c0.4,0.8,1,1.1,1.7,1.1h7.3c0.6,0,1.1,0.2,1.4,0.5
		c0.2,0.2,0.3,0.5,0.3,0.8c0,0.2,0,0.5,0,0.8V81c0,1.3,0.4,2.3,1.3,3.1c0.9,0.8,1.8,1.1,2.9,1.1s2-0.4,2.7-1.1
		c0.8-0.8,1.1-1.8,1.1-3.3v-44c0.3-0.6,0.5-1,0.7-1.4c0.4-0.7,0.7-1,0.9-1h7.8C573.4,34.4,574.1,34.1,574.6,33.3z"/>
	<path class="st0" d="M596.9,47.6c-3-2.8-4.7-4.2-4.9-4.2c-0.6-1.3-0.8-2.5-0.8-3.6c0-1.8,0.5-3.3,1.5-4.6c1-1.3,2.2-1.9,3.7-1.9
		c0.9,0,2.6,1.1,5.2,3.3c2.6,2.2,4.3,3.3,5.3,3.3c1.7,0,2.9-0.5,3.6-1.6c0.5-0.7,0.8-1.7,0.8-2.8c0-3.5-1.9-6-5.8-7.7
		c-1.3-0.5-3.2-1-5.8-1.4c-3.5,0-7.3,1.7-11.3,5.1c-4,3.4-6.1,6.8-6.1,10.1c0,3.5,1.7,7,5.1,10.7c3.1,3.1,6.2,6.1,9.4,9.2
		c3.3,3.7,5,7.5,5,11.2c0,2.1-0.5,3.6-1.4,4.5c-1,0.9-2.2,1.4-3.6,1.4c-1.7,0-4.3-1.6-7.8-4.9c-3.4-3.3-5.7-4.9-6.7-4.9
		c-0.9,0-1.7,0.5-2.4,1.4c-1,1.2-1.4,2.4-1.4,3.5c0.2,2.4,1.7,4.9,4.3,7.3c2.9,2.8,6.1,4.1,9.5,4.1c3.5,0,7.3-1.1,11.3-3.5
		c5.3-3,7.9-7,7.9-12c0-3.5-1.7-7.5-5-12.1C603.9,54.6,600.8,51.2,596.9,47.6z"/>
	<path class="st0" d="M191.7,111c1.8,0,3,0.5,3.8,0.9l0.6-1.3c-0.6-0.4-2.3-1-4.2-1c-4.8,0-8.3,3.5-8.3,8.6c0,4.8,3.1,8.2,7.7,8.2
		c2.3,0,4-0.7,4.7-1l-0.4-1.3c-0.9,0.4-2.1,0.9-4,0.9c-3.7,0-6.4-2.8-6.4-7C185.2,114.3,187.4,111,191.7,111z"/>
	<path class="st0" d="M205.8,109.6c-4,0-7.6,3-7.6,8.5c0,5.1,3.2,8.3,7.4,8.3c3.6,0,7.7-2.6,7.7-8.6
		C213.3,113,210.3,109.6,205.8,109.6z M205.7,125.1c-3.3,0-5.9-3-5.9-7c0-3.5,1.9-7.1,6-7.1c4.3,0,5.9,4.1,5.9,7
		C211.7,122.1,209.1,125.1,205.7,125.1z"/>
	<path class="st0" d="M234.4,109.6c-1.7,0-2.8,0.5-3.9,1.3c-0.6,0.5-1.2,1.2-1.6,2.2h-0.1c-0.7-2-2.4-3.5-4.6-3.5
		c-2.6,0-4.2,1.4-5.2,3.2h-0.1l-0.1-2.9h-1.5c0.1,1.3,0.1,2.4,0.1,3.9v12.3h1.6v-9.9c0-0.5,0.1-1.1,0.2-1.5c0.6-1.9,2.3-3.6,4.5-3.6
		c2.6,0,4,2.1,4,5v10.1h1.6v-10.3c0-0.6,0.1-1.1,0.3-1.6c0.6-1.7,2.2-3.2,4.2-3.2c2.8,0,4.2,2.2,4.2,5.8v9.3h1.6v-9.5
		C239.6,110.5,235.9,109.6,234.4,109.6z"/>
	<path class="st0" d="M261.9,109.6c-1.7,0-2.8,0.5-3.9,1.3c-0.6,0.5-1.2,1.2-1.6,2.2h-0.1c-0.7-2-2.4-3.5-4.6-3.5
		c-2.7,0-4.2,1.4-5.2,3.2h-0.1l-0.1-2.9h-1.5c0.1,1.3,0.1,2.4,0.1,3.9v12.3h1.6v-9.9c0-0.5,0.1-1.1,0.2-1.5c0.6-1.9,2.3-3.6,4.5-3.6
		c2.6,0,4,2.1,4,5v10.1h1.6v-10.3c0-0.6,0.1-1.1,0.3-1.6c0.6-1.7,2.2-3.2,4.2-3.2c2.8,0,4.2,2.2,4.2,5.8v9.3h1.6v-9.5
		C267.1,110.5,263.4,109.6,261.9,109.6z"/>
	<path class="st0" d="M284.8,110h-1.6v10c0,0.6-0.1,1.3-0.3,1.8c-0.7,1.6-2.4,3.3-4.8,3.3c-3.2,0-4.3-2.5-4.3-6v-9h-1.6v9.4
		c0,6.1,3.4,7.1,5.5,7.1c2.9,0,4.7-1.8,5.5-3.2h0.1l0.1,2.9h1.5c-0.1-1.2-0.1-2.5-0.1-3.9L284.8,110L284.8,110z"/>
	<path class="st0" d="M297.3,109.6c-2.6,0-4.7,1.5-5.5,3.3h-0.1l-0.1-2.9h-1.5c0.1,1.3,0.1,2.4,0.1,3.9v12.3h1.6v-10
		c0-0.5,0.1-1,0.2-1.4c0.6-2.1,2.6-3.7,4.8-3.7c3.3,0,4.5,2.7,4.5,5.6v9.5h1.6v-9.7C302.9,110.4,298.8,109.6,297.3,109.6z"/>
	<path class="st0" d="M309,104c-0.7,0-1.3,0.6-1.3,1.4c0,0.8,0.5,1.4,1.2,1.4c0.9,0,1.3-0.6,1.3-1.4C310.3,104.6,309.8,104,309,104z
		"/>
	<rect x="308.2" y="110" class="st0" width="1.6" height="16.1"/>
	<path class="st0" d="M322,111c1.8,0,3,0.5,3.8,0.9l0.6-1.3c-0.6-0.4-2.3-1-4.2-1c-4.8,0-8.3,3.5-8.3,8.6c0,4.8,3.1,8.2,7.7,8.2
		c2.3,0,4-0.7,4.7-1l-0.4-1.3c-0.9,0.4-2.1,0.9-4,0.9c-3.7,0-6.4-2.8-6.4-7C315.5,114.3,317.7,111,322,111z"/>
	<path class="st0" d="M340,116c0-2.9-0.9-6.4-5.5-6.4c-1.5,0-3.3,0.4-4.7,1.4l0.5,1.2c1.2-0.8,2.6-1.2,4-1.2c3.8,0,4.1,3.1,4.1,4.8
		v0.4c-6.6-0.1-9.8,2.2-9.8,5.9c0,2.1,1.5,4.4,4.7,4.4c2.6,0,4.4-1.4,5.1-2.7h0.1l0.2,2.3h1.5c-0.2-1.2-0.2-2.5-0.2-3.8V116z
		 M338.4,120.9c0,0.3,0,0.6-0.2,1c-0.6,1.6-2.1,3.2-4.8,3.2c-1.7,0-3.2-1-3.2-3.4c0-3.9,4.6-4.4,8.1-4.3L338.4,120.9L338.4,120.9z"
		/>
	<path class="st0" d="M347.2,105.3l-1.6,0.5v4.1h-2.7v1.3h2.7v10.2c0,1.6,0.3,3,1,3.8c0.6,0.8,1.6,1.1,2.8,1.1c1,0,1.7-0.2,2.2-0.4
		l-0.2-1.2c-0.4,0.1-1,0.3-1.8,0.3c-1.7,0-2.4-1.3-2.4-3.3v-10.5h4.6V110h-4.6L347.2,105.3L347.2,105.3z"/>
	<rect x="355.3" y="110" class="st0" width="1.6" height="16.1"/>
	<path class="st0" d="M356.1,104c-0.7,0-1.3,0.6-1.3,1.4c0,0.8,0.5,1.4,1.2,1.4c0.9,0,1.3-0.6,1.3-1.4
		C357.4,104.6,356.9,104,356.1,104z"/>
	<path class="st0" d="M368.6,109.6c-4,0-7.6,3-7.6,8.5c0,5.1,3.2,8.3,7.4,8.3c3.6,0,7.7-2.6,7.7-8.6
		C376.1,113,373.1,109.6,368.6,109.6z M368.5,125.1c-3.3,0-5.9-3-5.9-7c0-3.5,1.9-7.1,6-7.1c4.3,0,5.9,4.1,5.9,7
		C374.5,122.1,371.8,125.1,368.5,125.1z"/>
	<path class="st0" d="M387.3,109.6c-2.6,0-4.7,1.5-5.6,3.3h-0.1l-0.1-2.9H380c0.1,1.3,0.1,2.4,0.1,3.9v12.3h1.6v-10
		c0-0.5,0.1-1,0.2-1.4c0.6-2.1,2.6-3.7,4.8-3.7c3.3,0,4.5,2.7,4.5,5.6v9.5h1.6v-9.7C392.9,110.4,388.8,109.6,387.3,109.6z"/>
	<path class="st0" d="M421,114.2h-1.5c-0.5,3.4-1.2,5.6-2.3,7.3c-1.7-1.9-4.3-4.9-6.6-7.6v-0.1c3.9-1.9,5.3-3.7,5.3-6.2
		c0-2.8-1.9-4.5-4.3-4.5c-3.3,0-5.1,2.6-5.1,5.3c0,1.6,0.7,3.2,2,4.9l0,0.1c-2.5,1.5-4.5,3.5-4.5,6.7c0,3.5,2.7,6.3,6.4,6.3
		c2.4,0,4.6-0.8,6.9-2.9c1.1,1.1,1.8,1.8,2.5,2.6h2c-1.4-1.4-2.4-2.5-3.6-3.7C419.5,120.5,420.4,117.8,421,114.2z M407.9,108.3
		c0-2.1,1.1-3.9,3.3-3.9c2.2,0,3,1.8,3,3.4c0,2.3-1.9,3.7-4.6,5.1C408.8,111.6,407.9,110.2,407.9,108.3z M410.6,125.2
		c-3,0-5.1-2.2-5.1-5.2c0-2.9,2.2-4.6,3.6-5.5c2.9,3.4,5.8,6.6,7.1,8.1C414.9,124.1,412.9,125.2,410.6,125.2z"/>
	<path class="st0" d="M437.6,109.6c-4.2,0-7.2,3.4-7.2,8.7c0,4.7,2.9,8.1,7.5,8.1c2.8,0,4.5-0.7,5.1-1l-0.4-1.3
		c-0.9,0.4-2.1,0.9-4.5,0.9c-3.3,0-6.1-2-6.1-7.2h11.9c0-0.3,0-0.5,0-1C443.9,114.6,442.9,109.6,437.6,109.6z M432,116.6
		c0.3-2.5,1.8-5.7,5.4-5.7c3.9,0,4.9,3.4,4.8,5.7H432z"/>
	<polygon class="st0" points="439.2,103 436.3,107.6 437.5,107.6 441.6,103 	"/>
	<path class="st0" d="M454.5,120c-0.6,1.5-1.2,3-1.6,4.3h-0.1c-0.4-1.4-0.9-2.7-1.6-4.3l-3.8-10h-1.7l6.3,16.1h1.4L460,110h-1.7
		L454.5,120z"/>
	<path class="st0" d="M468.6,109.6c-4.2,0-7.2,3.4-7.2,8.7c0,4.7,2.9,8.1,7.5,8.1c2.8,0,4.5-0.7,5.1-1l-0.4-1.3
		c-0.9,0.4-2.1,0.9-4.5,0.9c-3.3,0-6.1-2-6.1-7.2h11.9c0-0.3,0-0.5,0-1C474.9,114.6,473.9,109.6,468.6,109.6z M463.1,116.6
		c0.3-2.5,1.8-5.7,5.4-5.7c3.9,0,4.9,3.4,4.8,5.7H463.1z"/>
	<path class="st0" d="M486.1,109.6c-2.6,0-4.7,1.5-5.5,3.3h-0.1l-0.1-2.9h-1.5c0.1,1.3,0.1,2.4,0.1,3.9v12.3h1.6v-10
		c0-0.5,0.1-1,0.2-1.4c0.6-2.1,2.6-3.7,4.8-3.7c3.3,0,4.5,2.7,4.5,5.6v9.5h1.6v-9.7C491.7,110.4,487.6,109.6,486.1,109.6z"/>
	<path class="st0" d="M502.9,109.6c-4.2,0-7.2,3.4-7.2,8.7c0,4.7,2.9,8.1,7.5,8.1c2.8,0,4.5-0.7,5.1-1l-0.4-1.3
		c-0.9,0.4-2.1,0.9-4.5,0.9c-3.3,0-6.1-2-6.1-7.2h11.9c0-0.3,0-0.5,0-1C509.2,114.6,508.2,109.6,502.9,109.6z M497.3,116.6
		c0.3-2.5,1.8-5.7,5.4-5.7c3.9,0,4.9,3.4,4.8,5.7H497.3z"/>
	<path class="st0" d="M530.2,109.6c-1.7,0-2.8,0.5-3.8,1.3c-0.6,0.5-1.2,1.2-1.6,2.2h-0.1c-0.7-2-2.4-3.5-4.6-3.5
		c-2.7,0-4.2,1.4-5.2,3.2h-0.1l-0.1-2.9h-1.5c0.1,1.3,0.1,2.4,0.1,3.9v12.3h1.6v-9.9c0-0.5,0.1-1.1,0.2-1.5c0.6-1.9,2.3-3.6,4.5-3.6
		c2.6,0,4,2.1,4,5v10.1h1.6v-10.3c0-0.6,0.1-1.1,0.3-1.6c0.6-1.7,2.2-3.2,4.2-3.2c2.8,0,4.2,2.2,4.2,5.8v9.3h1.6v-9.5
		C535.5,110.5,531.8,109.6,530.2,109.6z"/>
	<path class="st0" d="M546.7,109.6c-4.2,0-7.2,3.4-7.2,8.7c0,4.7,2.9,8.1,7.5,8.1c2.8,0,4.5-0.7,5.1-1l-0.4-1.3
		c-0.9,0.4-2.1,0.9-4.5,0.9c-3.3,0-6.1-2-6.1-7.2h11.9c0-0.3,0-0.5,0-1C552.9,114.6,551.9,109.6,546.7,109.6z M541.1,116.6
		c0.3-2.5,1.8-5.7,5.4-5.7c3.9,0,4.9,3.4,4.8,5.7H541.1z"/>
	<path class="st0" d="M564.1,109.6c-2.6,0-4.7,1.5-5.5,3.3h-0.1l-0.1-2.9h-1.5c0.1,1.3,0.1,2.4,0.1,3.9v12.3h1.6v-10
		c0-0.5,0.1-1,0.2-1.4c0.6-2.1,2.6-3.7,4.8-3.7c3.3,0,4.5,2.7,4.5,5.6v9.5h1.6v-9.7C569.7,110.4,565.6,109.6,564.1,109.6z"/>
	<path class="st0" d="M576.9,105.3l-1.6,0.5v4.1h-2.7v1.3h2.7v10.2c0,1.6,0.3,3,1,3.8c0.6,0.8,1.6,1.1,2.8,1.1c1,0,1.7-0.2,2.2-0.4
		l-0.2-1.2c-0.4,0.1-1,0.3-1.8,0.3c-1.7,0-2.4-1.3-2.4-3.3v-10.5h4.6V110h-4.6L576.9,105.3L576.9,105.3z"/>
	<path class="st0" d="M585.9,104c-0.7,0-1.3,0.6-1.3,1.4c0,0.8,0.5,1.4,1.2,1.4c0.9,0,1.3-0.6,1.3-1.4
		C587.2,104.6,586.7,104,585.9,104z"/>
	<rect x="585.1" y="110" class="st0" width="1.6" height="16.1"/>
	<path class="st0" d="M598,109.6c-4.2,0-7.2,3.4-7.2,8.7c0,4.7,2.9,8.1,7.5,8.1c2.8,0,4.5-0.7,5.1-1l-0.4-1.3
		c-0.9,0.4-2.1,0.9-4.5,0.9c-3.3,0-6.1-2-6.1-7.2h11.9c0-0.3,0-0.5,0-1C604.3,114.6,603.3,109.6,598,109.6z M592.4,116.6
		c0.3-2.5,1.8-5.7,5.4-5.7c3.9,0,4.9,3.4,4.8,5.7H592.4z"/>
	<rect x="608.4" y="102.3" class="st0" width="1.6" height="23.8"/>
</g>
</svg>
