<?xml version="1.0" encoding="utf-8"?>
<!-- Generator: Adobe Illustrator 26.0.2, SVG Export Plug-In . SVG Version: 6.00 Build 0)  -->
<svg version="1.1" id="Calque_1" xmlns="http://www.w3.org/2000/svg" xmlns:xlink="http://www.w3.org/1999/xlink" x="0px" y="0px"
	 viewBox="0 0 147.4 147.4" style="enable-background:new 0 0 147.4 147.4;" xml:space="preserve">
<style type="text/css">
	.st0{fill:url(#XMLID_00000129927537608478181790000009499218044225286020_);}
	.st1{fill:url(#XMLID_00000147929035269472335410000009965164762955976864_);}
	.st2{fill:#FFFFFF;}
	.st3{fill:url(#SVGID_1_);}
	.st4{fill:url(#SVGID_00000049199784095232185660000016131488628166831549_);}
	.st5{fill:url(#SVGID_00000075858546719945113810000006052996867251330232_);}
	.st6{fill:url(#SVGID_00000132802176393408333950000014429928423424273813_);}
	.st7{fill:url(#SVGID_00000133497223406074537180000014262326277741011387_);}
	.st8{fill:url(#SVGID_00000115483516200277287350000013444125847692732860_);}
	.st9{fill:url(#SVGID_00000117657781184541712480000017968538679203013564_);}
	.st10{fill:url(#SVGID_00000065776885985242843320000007539556200501449367_);}
	.st11{fill:url(#SVGID_00000087402545291284176240000008028499061675711620_);}
	.st12{fill:url(#SVGID_00000024705408121455985500000011642863944724048808_);}
	.st13{fill:url(#SVGID_00000142138288827583480760000016848161757469747094_);}
	.st14{fill:url(#SVGID_00000150807349331246376570000004762414936440825473_);}
	.st15{fill:url(#SVGID_00000026880222792649111570000015467887008835257987_);}
	.st16{fill:url(#XMLID_00000178187492815048633140000005048454083448285860_);}
	.st17{fill:url(#XMLID_00000038375041542741236950000016780483850532067736_);}
	.st18{fill:url(#SVGID_00000168089885245461110130000009722127152472874139_);}
	.st19{fill:url(#SVGID_00000183967430045127887240000016391376461157685675_);}
	.st20{fill:url(#SVGID_00000030463257496420960000000011177211874098056080_);}
	.st21{fill:url(#SVGID_00000117664561032881013470000006688124267916235936_);}
	.st22{fill:url(#SVGID_00000164513435960169051230000010842256802070265499_);}
	.st23{fill:url(#SVGID_00000111876725482206611130000010922981476712399775_);}
	.st24{fill:url(#SVGID_00000019663777193614523260000009476174463677269152_);}
	.st25{fill:url(#SVGID_00000146472305312514678440000015000041022346038973_);}
	.st26{fill:url(#SVGID_00000082348051556038046940000012729232842341837477_);}
	.st27{fill:url(#XMLID_00000085216286521294838900000003354164581240099746_);}
	.st28{fill:url(#XMLID_00000062150109383123029330000011138220249283463858_);}
	.st29{fill:url(#SVGID_00000031204400516537782470000009606961592736496039_);}
	.st30{fill:url(#SVGID_00000011748107868380741030000014483093671635050426_);}
	.st31{fill:url(#SVGID_00000003104043618502969020000016147388072482536594_);}
	.st32{fill:url(#SVGID_00000025419317180021478110000017620220436120830644_);}
	.st33{fill:url(#SVGID_00000124149068322427611370000013405987248271764885_);}
	.st34{fill:url(#SVGID_00000127738449822439609940000017991139602020207000_);}
	.st35{fill:url(#SVGID_00000093150644817853691330000015998237424280583559_);}
	.st36{fill:url(#SVGID_00000033353096241096338710000012257117582366281876_);}
	.st37{fill:url(#SVGID_00000157276045878209310670000009558269850904656562_);}
	.st38{fill:url(#SVGID_00000111876525756027558550000013004772094830926752_);}
	.st39{fill:url(#SVGID_00000021840223907184186840000006709713412319290245_);}
	.st40{fill:url(#SVGID_00000083771706621404049600000002961375830987336625_);}
	.st41{fill:url(#SVGID_00000172432427365672095110000016238273475717060484_);}
	.st42{fill:url(#SVGID_00000057852196664353871500000014078591181068252343_);}
	.st43{fill:url(#SVGID_00000110472215110565060850000009897832190540672896_);}
	.st44{fill:url(#SVGID_00000019668563136839526490000011350555675741532083_);}
	.st45{fill:url(#SVGID_00000148623887316442896090000010139431193626295958_);}
	.st46{fill:url(#SVGID_00000117635252125532724750000009880533989698755231_);}
	.st47{fill:url(#SVGID_00000036251275329515423890000012125836280232311741_);}
	.st48{fill:url(#SVGID_00000154412137006341213400000017994035860272273062_);}
	.st49{fill:url(#SVGID_00000176023796889052632310000006879391458914966193_);}
	.st50{fill:url(#SVGID_00000080913174795106503320000005610528393697037707_);}
	.st51{fill:url(#SVGID_00000112594912679390310400000016569108201578213505_);}
	.st52{fill:url(#SVGID_00000119108831571619535160000014751813705135180930_);}
	.st53{fill:url(#SVGID_00000076582931501994578150000011781931846008233358_);}
	.st54{fill:url(#SVGID_00000125565366761666346530000005956501761234886827_);}
	.st55{fill:url(#SVGID_00000080182344406181481790000012128524517608487607_);}
	.st56{fill:url(#SVGID_00000136409389975121109690000000219174753842015147_);}
	.st57{fill:url(#SVGID_00000176037477706290547630000002085213174186213292_);}
	.st58{fill:url(#SVGID_00000121979370769781470330000017567612712385885108_);}
	.st59{fill:url(#SVGID_00000147939653672923814150000010053560051193043642_);}
	.st60{fill:url(#SVGID_00000146472395605321082440000002290684216596789127_);}
	.st61{fill:url(#SVGID_00000028282780199762067840000004307402531506885004_);}
</style>
<g>
	<g id="XMLID_00000122706035243822847630000003304390159284134054_">
		
			<radialGradient id="XMLID_00000130622384412045347990000005461953640272851107_" cx="61.7332" cy="118.0626" r="170.1927" gradientTransform="matrix(1 0 0 -1 0 149.5591)" gradientUnits="userSpaceOnUse">
			<stop  offset="0" style="stop-color:#FFFFFF"/>
			<stop  offset="1" style="stop-color:#C4BBBB"/>
		</radialGradient>
		
			<circle id="XMLID_00000134242318005419389740000008194081442513532052_" style="fill:url(#XMLID_00000130622384412045347990000005461953640272851107_);" cx="73.7" cy="73.7" r="73.7"/>
		
			<linearGradient id="XMLID_00000160163629248131224310000005932135026233699463_" gradientUnits="userSpaceOnUse" x1="5" y1="75.8591" x2="142.4" y2="75.8591" gradientTransform="matrix(1 0 0 -1 0 149.5591)">
			<stop  offset="0" style="stop-color:#C4BBBB"/>
			<stop  offset="1" style="stop-color:#FFFFFF"/>
		</linearGradient>
		
			<circle id="XMLID_00000018957157944027939490000007920792949962195887_" style="fill:url(#XMLID_00000160163629248131224310000005932135026233699463_);" cx="73.7" cy="73.7" r="68.7"/>
	</g>
	<g>
	</g>
</g>
<g>
	<g>
		<path class="st2" d="M29.88,38.95c0.01-0.28,0.24-0.5,0.52-0.48c3.72,0.14,7.5,0.25,11.23,0.32c0.28,0,0.5,0.23,0.49,0.51
			c-0.01,0.27-0.23,0.49-0.5,0.49h-0.01c-3.73-0.08-7.52-0.18-11.25-0.31C30.08,39.46,29.86,39.22,29.88,38.95z"/>
		<path class="st2" d="M34.08,31.22c-0.18-0.2-0.16-0.52,0.04-0.71c0.21-0.19,0.52-0.17,0.71,0.04c1.96,2.19,4.47,3.87,7.25,4.84
			c0.26,0.09,0.4,0.38,0.31,0.64c-0.08,0.21-0.27,0.33-0.48,0.33c-0.05,0-0.11-0.01-0.16-0.03C38.81,35.31,36.15,33.54,34.08,31.22z
			"/>
		<path class="st2" d="M108.09,40.33c0.01-0.23,0.21-0.42,0.45-0.4c0.77,0.04,1.43,0.08,2.07,0.13c0.62,0.04,1.26,0.09,2,0.13
			c0.24,0.01,0.42,0.21,0.41,0.45c-0.01,0.23-0.2,0.41-0.43,0.41h-0.02c-0.76-0.04-1.4-0.09-2.03-0.13
			c-0.63-0.04-1.28-0.09-2.04-0.13C108.26,40.76,108.08,40.56,108.09,40.33z"/>
		<path class="st2" d="M100.76,40.35c0-0.24,0.19-0.43,0.42-0.43l3.16-0.03c0.24,0,0.43,0.19,0.43,0.42s-0.19,0.43-0.42,0.43
			l-3.16,0.03C100.96,40.77,100.76,40.58,100.76,40.35z"/>
		<path class="st2" d="M105.77,46.68c-0.11-1.32-0.11-2.65-0.01-3.97c0.02-0.23,0.23-0.41,0.46-0.39c0.23,0.02,0.41,0.23,0.39,0.46
			c-0.1,1.27-0.09,2.56,0.01,3.83c0.02,0.23-0.15,0.44-0.39,0.46h-0.03C105.98,47.08,105.79,46.91,105.77,46.68z"/>
		<path class="st2" d="M105.77,38.45l0.26-4.09c0.01-0.23,0.21-0.42,0.45-0.4c0.23,0.01,0.42,0.22,0.4,0.45l-0.26,4.09
			c-0.01,0.23-0.2,0.4-0.42,0.4h-0.03C105.94,38.89,105.76,38.69,105.77,38.45z"/>
		<path class="st2" d="M131.23,75.61c-1.55-1.67-4.21-1.66-6.15-0.89c-1.99,0.77-2.67,1.13-4.28,2.66
			c-0.72,0.69-1.45,1.42-2.17,2.17c-5.42-4.95-9.24-8.52-12.97-11.97c-2.13-1.98-4.2-3.91-6.49-6.02c1.74-2.23,2.52-5.17,2.16-8.11
			c-0.5-4.08-3.01-7.42-5.43-10.65c-1.64-2.18-3.33-4.43-4.4-6.9c-0.06-0.14-0.2-0.25-0.36-0.26c-0.16-0.01-0.31,0.06-0.4,0.2
			l-5.93,9.35c-0.64,0.99-1.28,2.02-1.86,3.06c-3.23-1.76-6.97-3.07-9.68-1.18c-0.82,0.57-1.52,1.23-2.1,1.94
			c-0.06-0.13-0.14-0.25-0.24-0.37c-0.22-0.26-0.48-0.45-0.79-0.57c-0.1-1.17,0.24-2.58,1.15-3.2c0.4-0.28,1.28-0.35,2.13-0.41
			c1.3-0.1,2.65-0.21,3.21-1.1c1.17-1.9-0.79-3.36-3.75-5.58c-0.4-0.3-0.82-0.62-1.27-0.95c-1.74-1.33-3.72-2.17-5.69-2.41
			c-2.41-0.3-4.83-0.13-7.17,0.04c-1.48,0.1-3.06,0.22-4.66,0.38c-0.02-0.02-0.04-0.03-0.06-0.04c-0.12-0.06-0.26-0.08-0.38-0.04
			c-0.62,0.18-1.28,0.26-1.98,0.35c-0.8,0.1-1.62,0.2-2.4,0.47c-0.48,0.16-1.15,0.39-1.61,0.99c-0.65,0.84-0.47,2.36-0.33,3.48
			l0.04,0.32c0.06,0.56,0.16,1.15,0.55,1.56c0.37,0.38,0.79,0.75,1.34,0.82l0.2,0.03c1.56,0.21,2.95,0.39,4.16,0.44
			c-0.17,0.32-0.3,0.64-0.38,0.92c-1.73,5.52-4.58,10.65-8.23,14.85c-0.15,0.18-0.16,0.43-0.03,0.62c0.09,0.13,0.25,0.21,0.41,0.21
			c0.06,0,0.13-0.01,0.19-0.04c4.04-1.68,8.02-5.02,11.21-9.41c0.82-1.13,1.82-2.64,2.26-4.35c0.5,0.56,0.92,1.19,1.21,1.88
			c-0.24,0.01-0.57,0.01-0.86,0.16c-0.39,0.19-0.6,0.54-0.72,0.78c-0.53,1.07-0.5,2.24-0.47,3.27c0.01,0.51,0.03,1.04,0.14,1.57
			c0.16,0.71,0.49,1.33,0.96,1.79c0.17,0.16,0.34,0.29,0.52,0.38c0.11,0.06,0.23,0.11,0.35,0.14c-0.89,6.26-3.12,12.17-5.47,17.32
			c-1.59-1.54-3.99-2.75-4.95-3.2c0.13-1.13,0.26-2.4-0.01-3.61c-0.33-1.49-1.25-2.66-2.45-3.12c-0.68-0.26-2.59-0.28-5.67-0.28
			c-1.64,0-3.14,1.37-3.56,3.27c-0.23,1.05-0.08,2.65,0.04,3.56c-0.52,0.17-1.56,0.54-2.09,0.81c-3.82,2-5.45,4.96-4.61,8.36
			c0.48,1.93,1.47,3.01,2.44,3.95c1.76,1.7,0.99,2.82,0.12,4.12l-0.08,0.11c-0.21,0.31-0.43,0.61-0.66,0.93
			c-1.15,1.58-2.59,3.55-3.31,7.53c-1.34,7.35-2.03,14.99,1.93,20.92c0.99,1.49,2.41,2.2,4.74,2.39c2.41,0.2,4.93,0.29,7.52,0.29
			c1.73,0,3.48-0.04,5.27-0.13c2.83-0.14,5.47-1.66,6.88-3.97c0.36-0.59,0.67-1.21,0.96-1.88c0.59,0.21,1.24,0.24,1.88,0.25
			c0.59,0.01,1.47,0.01,2.6,0.01h1.38c0.83,1.93,2.46,3.64,5.38,4.38c0.89,0.22,1.73,0.33,2.53,0.33c3.64,0,6.25-2.17,7.49-4.82
			c7.18-0.08,14.41-0.18,18.09-0.29c1.25-0.04,2.97-0.09,4.21-1.08c0.69-0.54,1.11-1.23,1.33-2c2.16-0.09,4.26-1.64,5.28-3.94
			c0.57-1.28,1.85-4.59,1.4-7.54c-0.82-5.35-3.92-10.02-6.84-13.88c-2.79-3.7-6.37-6.73-9.84-9.66c-1.77-1.49-3.59-3.04-5.28-4.64
			c-2.95-2.81-5.85-5.99-7.77-8.14c-3.59-4.03-4.28-7.11-3.73-8.65c0.24-0.67,0.72-1.09,1.37-1.19c0.79-0.12,2.29,0.04,4.08,1.02
			c-0.42,1.81-0.23,5.47,1.95,8.23c1.8,2.27,4.52,3.46,8.1,3.55c0.08,2.81,0.17,5.62,0.28,8.41c0.01,0.23,0.2,0.41,0.43,0.41h0.02
			c0.24-0.01,0.42-0.21,0.41-0.45c-0.11-2.78-0.21-5.57-0.28-8.37c0.92-0.04,1.82-0.2,2.68-0.47c8.32,7.34,16.69,15.1,20.14,18.3
			c0.18,0.17,0.35,0.32,0.5,0.47c-0.5,0.58-0.97,1.16-1.42,1.74c-2.65,3.38-4.76,6.77-1.42,11.02c0.09,0.12,0.23,0.19,0.38,0.2h0.02
			c0.14,0,0.28-0.06,0.37-0.16l18.31-20.1C131.41,76.09,131.41,75.8,131.23,75.61z M80.38,72.62c2.52,2.88,5.42,5.47,8.22,7.98
			c3.32,2.97,6.75,6.03,9.52,9.56c2.98,3.8,5.65,10.31,2.74,13.46C96.84,95.9,89.49,90.19,81.21,87.7
			c-0.03-0.08-0.05-0.16-0.08-0.23c-0.16-0.45-0.33-0.93-0.52-1.41c-0.55-1.49-1.21-3.12-1.93-4.92l-0.37-0.91
			c-1.89-4.71-4.15-10.45-5.93-17.01c1.91,2.59,4.62,5.63,6.63,7.88C79.54,71.68,80.01,72.2,80.38,72.62z"/>
		<path class="st2" d="M41.9,42.83c0.12,0.25,0.01,0.55-0.24,0.67c-2.08,0.98-4.01,2.22-5.76,3.72c-0.09,0.08-0.21,0.12-0.32,0.12
			c-0.14,0-0.28-0.06-0.38-0.17c-0.18-0.21-0.16-0.53,0.06-0.71c1.81-1.55,3.82-2.85,5.98-3.87C41.49,42.47,41.78,42.58,41.9,42.83z
			"/>
	</g>
	<g>
		<radialGradient id="SVGID_1_" cx="29.3856" cy="32.4087" r="120.565" gradientUnits="userSpaceOnUse">
			<stop  offset="0" style="stop-color:#00746D"/>
			<stop  offset="0.2174" style="stop-color:#00746D"/>
			<stop  offset="0.4101" style="stop-color:#09998F"/>
			<stop  offset="0.6425" style="stop-color:#16CABD"/>
			<stop  offset="1" style="stop-color:#16CABD"/>
		</radialGradient>
		<path class="st3" d="M61.68,50.85c0.08,1,0.11,2.01,0.07,3.01c0,0.09,0.07,0.17,0.16,0.17c0,0,0,0,0.01,0
			c0.09,0,0.16-0.07,0.16-0.16c0.05-1.29-0.01-2.59-0.15-3.87c0-0.03-0.01-0.06-0.01-0.08c-0.01-0.09-0.11-0.16-0.19-0.14
			c-0.09,0.01-0.16,0.09-0.14,0.18c0.03,0.29,0.06,0.59,0.09,0.88V50.85z"/>
		
			<radialGradient id="SVGID_00000174604542072454996370000001256441792085726397_" cx="29.3856" cy="32.4087" r="120.565" gradientUnits="userSpaceOnUse">
			<stop  offset="0" style="stop-color:#00746D"/>
			<stop  offset="0.2174" style="stop-color:#00746D"/>
			<stop  offset="0.4101" style="stop-color:#09998F"/>
			<stop  offset="0.6425" style="stop-color:#16CABD"/>
			<stop  offset="1" style="stop-color:#16CABD"/>
		</radialGradient>
		<path style="fill:url(#SVGID_00000174604542072454996370000001256441792085726397_);" d="M65.03,53.96c0.01,0,0.02,0,0.03-0.01
			c0.09-0.01,0.16-0.09,0.14-0.19c-0.2-1.28-0.28-2.59-0.22-3.9c0-0.09-0.07-0.17-0.16-0.17c-0.09,0-0.17,0.07-0.17,0.16
			c-0.06,1.32,0.02,2.66,0.23,3.96C64.88,53.89,64.94,53.96,65.03,53.96z"/>
		
			<radialGradient id="SVGID_00000003089649542692510940000005293881178453859002_" cx="29.3856" cy="32.4087" r="120.565" gradientUnits="userSpaceOnUse">
			<stop  offset="0" style="stop-color:#00746D"/>
			<stop  offset="0.2174" style="stop-color:#00746D"/>
			<stop  offset="0.4101" style="stop-color:#09998F"/>
			<stop  offset="0.6425" style="stop-color:#16CABD"/>
			<stop  offset="1" style="stop-color:#16CABD"/>
		</radialGradient>
		<path style="fill:url(#SVGID_00000003089649542692510940000005293881178453859002_);" d="M67.7,51.21
			c0.12,0.86,0.2,1.72,0.23,2.58c0.01,0.09,0.08,0.16,0.17,0.16c0,0,0,0,0.01,0c0.09,0,0.16-0.08,0.16-0.17
			c-0.03-0.77-0.09-1.54-0.19-2.3c-0.03-0.23-0.05-0.45-0.09-0.67c-0.03-0.23-0.07-0.46-0.11-0.69c-0.01-0.07-0.02-0.14-0.03-0.21
			c-0.02-0.09-0.11-0.14-0.2-0.13c-0.06,0.01-0.1,0.05-0.13,0.1v0.01c-0.01,0.03-0.01,0.06-0.01,0.09c0.03,0.19,0.06,0.38,0.09,0.57
			C67.65,50.76,67.68,50.99,67.7,51.21z"/>
		
			<radialGradient id="SVGID_00000175307483932650641570000005090686877254186368_" cx="29.3856" cy="32.4087" r="120.565" gradientUnits="userSpaceOnUse">
			<stop  offset="0" style="stop-color:#00746D"/>
			<stop  offset="0.2174" style="stop-color:#00746D"/>
			<stop  offset="0.4101" style="stop-color:#09998F"/>
			<stop  offset="0.6425" style="stop-color:#16CABD"/>
			<stop  offset="1" style="stop-color:#16CABD"/>
		</radialGradient>
		<path style="fill:url(#SVGID_00000175307483932650641570000005090686877254186368_);" d="M30.36,39.47
			c3.73,0.13,7.51,0.24,11.24,0.32c0,0,0.01,0,0.01,0c0.27,0,0.5-0.22,0.5-0.49c0.01-0.28-0.21-0.51-0.49-0.51
			c-3.73-0.08-7.5-0.18-11.23-0.32c-0.28-0.02-0.51,0.21-0.52,0.48C29.87,39.22,30.08,39.46,30.36,39.47z"/>
		
			<radialGradient id="SVGID_00000096030326872303102690000001370253119897008022_" cx="29.3856" cy="32.4087" r="120.565" gradientUnits="userSpaceOnUse">
			<stop  offset="0" style="stop-color:#00746D"/>
			<stop  offset="0.2174" style="stop-color:#00746D"/>
			<stop  offset="0.4101" style="stop-color:#09998F"/>
			<stop  offset="0.6425" style="stop-color:#16CABD"/>
			<stop  offset="1" style="stop-color:#16CABD"/>
		</radialGradient>
		<path style="fill:url(#SVGID_00000096030326872303102690000001370253119897008022_);" d="M41.74,36.34
			c0.05,0.02,0.11,0.03,0.17,0.03c0.21,0,0.4-0.13,0.47-0.34c0.09-0.26-0.05-0.55-0.31-0.64c-2.78-0.97-5.28-2.64-7.24-4.84
			c-0.19-0.21-0.5-0.22-0.71-0.04c-0.21,0.19-0.22,0.5-0.04,0.71C36.15,33.54,38.8,35.31,41.74,36.34z"/>
		
			<radialGradient id="SVGID_00000107574809954071946880000007028162873950530971_" cx="29.3856" cy="32.4087" r="120.565" gradientUnits="userSpaceOnUse">
			<stop  offset="0" style="stop-color:#00746D"/>
			<stop  offset="0.2174" style="stop-color:#00746D"/>
			<stop  offset="0.4101" style="stop-color:#09998F"/>
			<stop  offset="0.6425" style="stop-color:#16CABD"/>
			<stop  offset="1" style="stop-color:#16CABD"/>
		</radialGradient>
		<path style="fill:url(#SVGID_00000107574809954071946880000007028162873950530971_);" d="M41.24,42.59
			c-2.16,1.01-4.17,2.31-5.98,3.86c-0.21,0.18-0.23,0.5-0.05,0.71c0.1,0.12,0.24,0.18,0.38,0.18c0.12,0,0.23-0.04,0.33-0.12
			c1.74-1.49,3.68-2.74,5.75-3.72c0.25-0.12,0.36-0.42,0.24-0.67C41.79,42.58,41.49,42.47,41.24,42.59z"/>
		
			<radialGradient id="SVGID_00000005268742464357882160000013311864282648830399_" cx="29.3856" cy="32.4087" r="120.565" gradientUnits="userSpaceOnUse">
			<stop  offset="0" style="stop-color:#00746D"/>
			<stop  offset="0.2174" style="stop-color:#00746D"/>
			<stop  offset="0.4101" style="stop-color:#09998F"/>
			<stop  offset="0.6425" style="stop-color:#16CABD"/>
			<stop  offset="1" style="stop-color:#16CABD"/>
		</radialGradient>
		<path style="fill:url(#SVGID_00000005268742464357882160000013311864282648830399_);" d="M106.47,103.44l-2.86-0.69
			c-0.09-0.02-0.18,0.04-0.2,0.13c-0.02,0.09,0.04,0.18,0.13,0.2l2.86,0.69c0.01,0.01,0.03,0.01,0.04,0.01
			c0.08,0,0.14-0.05,0.16-0.13C106.61,103.55,106.56,103.46,106.47,103.44z"/>
		
			<radialGradient id="SVGID_00000136399520792823265110000013322028976858510985_" cx="29.3856" cy="32.4087" r="120.565" gradientUnits="userSpaceOnUse">
			<stop  offset="0" style="stop-color:#00746D"/>
			<stop  offset="0.2174" style="stop-color:#00746D"/>
			<stop  offset="0.4101" style="stop-color:#09998F"/>
			<stop  offset="0.6425" style="stop-color:#16CABD"/>
			<stop  offset="1" style="stop-color:#16CABD"/>
		</radialGradient>
		<path style="fill:url(#SVGID_00000136399520792823265110000013322028976858510985_);" d="M103.87,98.67
			c0.03,0.06,0.09,0.1,0.15,0.1c0.03,0,0.04-0.01,0.07-0.01c0.9-0.38,1.84-0.67,2.8-0.84c0.09-0.01,0.15-0.1,0.14-0.2
			c-0.02-0.09-0.11-0.14-0.2-0.13c-0.99,0.18-1.95,0.47-2.88,0.86C103.87,98.49,103.83,98.58,103.87,98.67z"/>
		
			<radialGradient id="SVGID_00000011712698668387994330000006546378949262609804_" cx="29.3856" cy="32.4087" r="120.565" gradientUnits="userSpaceOnUse">
			<stop  offset="0" style="stop-color:#00746D"/>
			<stop  offset="0.2174" style="stop-color:#00746D"/>
			<stop  offset="0.4101" style="stop-color:#09998F"/>
			<stop  offset="0.6425" style="stop-color:#16CABD"/>
			<stop  offset="1" style="stop-color:#16CABD"/>
		</radialGradient>
		<path style="fill:url(#SVGID_00000011712698668387994330000006546378949262609804_);" d="M102.37,94.1c0.03,0,0.06-0.01,0.08-0.02
			l2.4-1.41c0.08-0.04,0.11-0.14,0.06-0.23c-0.04-0.08-0.15-0.11-0.23-0.06l-2.4,1.41c-0.08,0.04-0.11,0.14-0.06,0.23
			C102.26,94.08,102.32,94.1,102.37,94.1z"/>
		
			<radialGradient id="SVGID_00000074427130580327644350000018067100050437400991_" cx="29.3856" cy="32.4087" r="120.565" gradientUnits="userSpaceOnUse">
			<stop  offset="0" style="stop-color:#00746D"/>
			<stop  offset="0.2174" style="stop-color:#00746D"/>
			<stop  offset="0.4101" style="stop-color:#09998F"/>
			<stop  offset="0.6425" style="stop-color:#16CABD"/>
			<stop  offset="1" style="stop-color:#16CABD"/>
		</radialGradient>
		<path style="fill:url(#SVGID_00000074427130580327644350000018067100050437400991_);" d="M99.62,89.18c0.03,0,0.06-0.01,0.08-0.03
			l2.31-1.3c0.08-0.05,0.11-0.15,0.06-0.23c-0.04-0.08-0.15-0.11-0.23-0.06l-2.31,1.3c-0.08,0.04-0.11,0.14-0.06,0.23
			C99.51,89.14,99.56,89.18,99.62,89.18z"/>
		
			<radialGradient id="SVGID_00000055686690995953899950000017821770574265813660_" cx="29.3856" cy="32.4087" r="120.565" gradientUnits="userSpaceOnUse">
			<stop  offset="0" style="stop-color:#00746D"/>
			<stop  offset="0.2174" style="stop-color:#00746D"/>
			<stop  offset="0.4101" style="stop-color:#09998F"/>
			<stop  offset="0.6425" style="stop-color:#16CABD"/>
			<stop  offset="1" style="stop-color:#16CABD"/>
		</radialGradient>
		<path style="fill:url(#SVGID_00000055686690995953899950000017821770574265813660_);" d="M96.37,85.54c0.04,0,0.08-0.01,0.1-0.03
			l2.24-1.75c0.08-0.06,0.09-0.16,0.03-0.23c-0.06-0.07-0.16-0.09-0.24-0.03l-2.24,1.74c-0.08,0.06-0.09,0.16-0.03,0.23
			C96.27,85.52,96.32,85.54,96.37,85.54z"/>
		
			<radialGradient id="SVGID_00000106839545836730640460000002986856448512742052_" cx="29.3856" cy="32.4087" r="120.565" gradientUnits="userSpaceOnUse">
			<stop  offset="0" style="stop-color:#00746D"/>
			<stop  offset="0.2174" style="stop-color:#00746D"/>
			<stop  offset="0.4101" style="stop-color:#09998F"/>
			<stop  offset="0.6425" style="stop-color:#16CABD"/>
			<stop  offset="1" style="stop-color:#16CABD"/>
		</radialGradient>
		<path style="fill:url(#SVGID_00000106839545836730640460000002986856448512742052_);" d="M92.89,82.24c0.04,0,0.08-0.01,0.11-0.04
			l2.18-1.99c0.07-0.06,0.08-0.17,0.01-0.24c-0.06-0.07-0.17-0.08-0.24-0.01l-2.18,1.99c-0.07,0.06-0.07,0.17-0.01,0.24
			C92.8,82.23,92.85,82.24,92.89,82.24z"/>
		
			<radialGradient id="SVGID_00000172432146465009017330000013514670406559157657_" cx="29.3856" cy="32.4087" r="120.565" gradientUnits="userSpaceOnUse">
			<stop  offset="0" style="stop-color:#00746D"/>
			<stop  offset="0.2174" style="stop-color:#00746D"/>
			<stop  offset="0.4101" style="stop-color:#09998F"/>
			<stop  offset="0.6425" style="stop-color:#16CABD"/>
			<stop  offset="1" style="stop-color:#16CABD"/>
		</radialGradient>
		<path style="fill:url(#SVGID_00000172432146465009017330000013514670406559157657_);" d="M89.58,79.04c0.04,0,0.09-0.02,0.12-0.05
			l1.92-1.87c0.06-0.06,0.06-0.17,0-0.23c-0.06-0.07-0.17-0.07-0.24-0.01l-1.91,1.87c-0.07,0.06-0.07,0.17-0.01,0.24
			C89.5,79.02,89.54,79.04,89.58,79.04z"/>
		
			<radialGradient id="SVGID_00000127729825317980258190000007935539030416677761_" cx="29.3856" cy="32.4087" r="120.565" gradientUnits="userSpaceOnUse">
			<stop  offset="0" style="stop-color:#00746D"/>
			<stop  offset="0.2174" style="stop-color:#00746D"/>
			<stop  offset="0.4101" style="stop-color:#09998F"/>
			<stop  offset="0.6425" style="stop-color:#16CABD"/>
			<stop  offset="1" style="stop-color:#16CABD"/>
		</radialGradient>
		<path style="fill:url(#SVGID_00000127729825317980258190000007935539030416677761_);" d="M73.36,105.11
			c-0.38-0.18-0.81-0.31-1.27-0.39c-0.08-0.01-0.28-0.04-0.54-0.06h-0.03c-0.41-0.04-0.99-0.06-1.64,0.03c-0.01,0-0.01,0-0.01,0
			h-0.01c-0.57,0.08-1.18,0.24-1.76,0.53c-0.99,0.5-1.88,1.39-2.3,2.97c-0.28,1.07-0.31,2.81,0.51,4.19
			c0.04,0.07,0.09,0.14,0.14,0.21c0.11,0.18,0.25,0.35,0.4,0.5c0.17,0.18,0.36,0.35,0.56,0.5c0.54,0.41,1.19,0.71,1.95,0.88
			c0.54,0.13,1.05,0.2,1.54,0.2c1.32,0,2.41-0.44,3.24-1.13c0.2-0.16,0.38-0.33,0.54-0.51c0.15-0.16,0.28-0.33,0.4-0.5
			c0.23-0.33,0.42-0.67,0.55-1.03c0.57-1.45,0.45-3.23-0.28-4.55C74.91,106.12,74.23,105.5,73.36,105.11z M75.35,111.37
			c-0.16,0.4-0.38,0.79-0.65,1.15c-0.14,0.18-0.3,0.35-0.47,0.51c-0.19,0.19-0.4,0.36-0.64,0.51c-1.04,0.69-2.44,1.01-4.13,0.6
			c-0.54-0.13-1.01-0.31-1.42-0.56c-0.25-0.14-0.48-0.31-0.69-0.5c-0.18-0.14-0.33-0.31-0.47-0.5c-0.09-0.12-0.18-0.25-0.26-0.38
			c-0.77-1.29-0.74-2.93-0.47-3.94c0.48-1.86,1.71-2.7,2.91-3.07c1.37-0.41,2.72-0.2,2.98-0.16c0.14,0.03,0.27,0.05,0.4,0.09
			c1.17,0.3,2.08,0.98,2.64,1.97C75.77,108.35,75.88,110.02,75.35,111.37z"/>
		
			<radialGradient id="SVGID_00000176749673375059904070000017894270415620935316_" cx="29.3856" cy="32.4087" r="120.565" gradientUnits="userSpaceOnUse">
			<stop  offset="0" style="stop-color:#00746D"/>
			<stop  offset="0.2174" style="stop-color:#00746D"/>
			<stop  offset="0.4101" style="stop-color:#09998F"/>
			<stop  offset="0.6425" style="stop-color:#16CABD"/>
			<stop  offset="1" style="stop-color:#16CABD"/>
		</radialGradient>
		<path style="fill:url(#SVGID_00000176749673375059904070000017894270415620935316_);" d="M86.16,76.28c0.05,0,0.09-0.02,0.13-0.06
			c0.55-0.67,1.16-1.28,1.83-1.83c0.07-0.06,0.08-0.16,0.02-0.24c-0.06-0.07-0.16-0.08-0.23-0.02c-0.68,0.56-1.31,1.19-1.87,1.86
			c-0.06,0.08-0.05,0.18,0.02,0.24C86.09,76.27,86.13,76.28,86.16,76.28z"/>
		
			<radialGradient id="SVGID_00000136404614842997451350000017857384040579109804_" cx="29.3856" cy="32.4087" r="120.565" gradientUnits="userSpaceOnUse">
			<stop  offset="0" style="stop-color:#00746D"/>
			<stop  offset="0.2174" style="stop-color:#00746D"/>
			<stop  offset="0.4101" style="stop-color:#09998F"/>
			<stop  offset="0.6425" style="stop-color:#16CABD"/>
			<stop  offset="1" style="stop-color:#16CABD"/>
		</radialGradient>
		<path style="fill:url(#SVGID_00000136404614842997451350000017857384040579109804_);" d="M83.06,73.08c0.04,0,0.08-0.01,0.11-0.04
			l1.72-1.69c0.07-0.06,0.07-0.17,0.01-0.23c-0.06-0.07-0.17-0.07-0.24,0l-1.72,1.69c-0.06,0.06-0.07,0.17,0,0.23
			C82.97,73.06,83.02,73.08,83.06,73.08z"/>
		
			<radialGradient id="SVGID_00000040561445035759259480000009000597782101553029_" cx="29.3856" cy="32.4087" r="120.565" gradientUnits="userSpaceOnUse">
			<stop  offset="0" style="stop-color:#00746D"/>
			<stop  offset="0.2174" style="stop-color:#00746D"/>
			<stop  offset="0.4101" style="stop-color:#09998F"/>
			<stop  offset="0.6425" style="stop-color:#16CABD"/>
			<stop  offset="1" style="stop-color:#16CABD"/>
		</radialGradient>
		<path style="fill:url(#SVGID_00000040561445035759259480000009000597782101553029_);" d="M80.08,69.54c0.03,0,0.07-0.01,0.09-0.03
			c0.62-0.44,1.18-0.96,1.66-1.54c0.06-0.08,0.05-0.18-0.02-0.24c-0.07-0.06-0.18-0.05-0.24,0.03c-0.46,0.56-0.99,1.06-1.59,1.48
			c-0.08,0.05-0.09,0.16-0.04,0.23C79.97,69.52,80.03,69.54,80.08,69.54z"/>
		
			<radialGradient id="SVGID_00000161633361532328241020000000897210015494755984_" cx="29.3856" cy="32.4087" r="120.565" gradientUnits="userSpaceOnUse">
			<stop  offset="0" style="stop-color:#00746D"/>
			<stop  offset="0.2174" style="stop-color:#00746D"/>
			<stop  offset="0.4101" style="stop-color:#09998F"/>
			<stop  offset="0.6425" style="stop-color:#16CABD"/>
			<stop  offset="1" style="stop-color:#16CABD"/>
		</radialGradient>
		<path style="fill:url(#SVGID_00000161633361532328241020000000897210015494755984_);" d="M131.23,75.61
			c-1.55-1.67-4.21-1.66-6.15-0.89c-1.99,0.77-2.67,1.13-4.28,2.66c-0.72,0.69-1.45,1.42-2.17,2.17
			c-5.42-4.95-9.24-8.52-12.97-11.97c-2.13-1.98-4.2-3.91-6.49-6.02c1.74-2.23,2.52-5.17,2.16-8.11c-0.5-4.08-3.01-7.42-5.43-10.65
			c-1.64-2.18-3.33-4.43-4.4-6.9c-0.06-0.14-0.2-0.25-0.36-0.26c-0.16-0.01-0.31,0.06-0.4,0.2l-5.93,9.35
			c-0.64,0.99-1.28,2.02-1.86,3.06c-3.23-1.76-6.97-3.07-9.68-1.18c-0.82,0.57-1.52,1.23-2.1,1.94c-0.06-0.13-0.14-0.25-0.24-0.37
			c-0.22-0.26-0.48-0.45-0.79-0.57c-0.1-1.17,0.24-2.58,1.15-3.2c0.4-0.28,1.28-0.35,2.13-0.41c1.3-0.1,2.65-0.21,3.21-1.1
			c1.17-1.9-0.79-3.36-3.75-5.58c-0.4-0.3-0.82-0.62-1.27-0.95c-1.74-1.33-3.72-2.17-5.69-2.41c-2.41-0.3-4.83-0.13-7.17,0.04
			c-1.48,0.1-3.06,0.22-4.66,0.38c-0.02-0.02-0.04-0.03-0.06-0.04c-0.12-0.06-0.26-0.08-0.38-0.04c-0.62,0.18-1.28,0.26-1.98,0.35
			c-0.8,0.1-1.62,0.2-2.4,0.47c-0.48,0.16-1.15,0.39-1.61,0.99c-0.65,0.84-0.47,2.36-0.33,3.48l0.04,0.32
			c0.06,0.56,0.16,1.15,0.55,1.56c0.37,0.38,0.79,0.75,1.34,0.82l0.2,0.03c1.56,0.21,2.95,0.39,4.16,0.44
			c-0.17,0.32-0.3,0.64-0.38,0.92c-1.73,5.52-4.58,10.65-8.23,14.85c-0.15,0.18-0.16,0.43-0.03,0.62c0.09,0.13,0.25,0.21,0.41,0.21
			c0.06,0,0.13-0.01,0.19-0.04c4.04-1.68,8.02-5.02,11.21-9.41c0.82-1.13,1.82-2.64,2.26-4.35c0.5,0.56,0.92,1.19,1.21,1.88
			c-0.24,0.01-0.57,0.01-0.86,0.16c-0.39,0.19-0.6,0.54-0.72,0.78c-0.53,1.07-0.5,2.24-0.47,3.27c0.01,0.51,0.03,1.04,0.14,1.57
			c0.16,0.71,0.49,1.33,0.96,1.79c0.17,0.16,0.34,0.29,0.52,0.38c0.11,0.06,0.23,0.11,0.35,0.14c-0.89,6.26-3.12,12.17-5.47,17.32
			c-1.59-1.54-3.99-2.75-4.95-3.2c0.13-1.13,0.26-2.4-0.01-3.61c-0.33-1.49-1.25-2.66-2.45-3.12c-0.68-0.26-2.59-0.28-5.67-0.28
			c-1.64,0-3.14,1.37-3.56,3.27c-0.23,1.05-0.08,2.65,0.04,3.56c-0.52,0.17-1.56,0.54-2.09,0.81c-3.82,2-5.45,4.96-4.61,8.36
			c0.48,1.93,1.47,3.01,2.44,3.95c1.76,1.7,0.99,2.82,0.12,4.12l-0.08,0.11c-0.21,0.31-0.43,0.61-0.66,0.93
			c-1.15,1.58-2.59,3.55-3.31,7.53c-1.34,7.35-2.03,14.99,1.93,20.92c0.99,1.49,2.41,2.2,4.74,2.39c2.41,0.2,4.93,0.29,7.52,0.29
			c1.73,0,3.48-0.04,5.27-0.13c2.83-0.14,5.47-1.66,6.88-3.97c0.36-0.59,0.67-1.21,0.96-1.88c0.59,0.21,1.24,0.24,1.88,0.25
			c0.59,0.01,1.47,0.01,2.6,0.01h1.38c0.83,1.93,2.46,3.64,5.38,4.38c0.89,0.22,1.73,0.33,2.53,0.33c3.64,0,6.25-2.17,7.49-4.82
			c7.18-0.08,14.41-0.18,18.09-0.29c1.25-0.04,2.97-0.09,4.21-1.08c0.69-0.54,1.11-1.23,1.33-2c2.16-0.09,4.26-1.64,5.28-3.94
			c0.57-1.28,1.85-4.59,1.4-7.54c-0.82-5.35-3.92-10.02-6.84-13.88c-2.79-3.7-6.37-6.73-9.84-9.66c-1.77-1.49-3.59-3.04-5.28-4.64
			c-2.95-2.81-5.85-5.99-7.77-8.14c-3.59-4.03-4.28-7.11-3.73-8.65c0.24-0.67,0.72-1.09,1.37-1.19c0.79-0.12,2.29,0.04,4.08,1.02
			c-0.42,1.81-0.23,5.47,1.95,8.23c1.8,2.27,4.52,3.46,8.1,3.55c0.08,2.81,0.17,5.62,0.28,8.41c0.01,0.23,0.2,0.41,0.43,0.41h0.02
			c0.24-0.01,0.42-0.21,0.41-0.45c-0.11-2.78-0.21-5.57-0.28-8.37c0.92-0.04,1.82-0.2,2.68-0.47c8.32,7.34,16.69,15.1,20.14,18.3
			c0.18,0.17,0.35,0.32,0.5,0.47c-0.5,0.58-0.97,1.16-1.42,1.74c-2.65,3.38-4.76,6.77-1.42,11.02c0.09,0.12,0.23,0.19,0.38,0.2h0.02
			c0.14,0,0.28-0.06,0.37-0.16l18.31-20.1C131.41,76.09,131.41,75.8,131.23,75.61z M112.59,95.25c-2.17-3.12-1.03-5.72,1.78-9.3
			c0.44-0.56,0.89-1.12,1.37-1.68c0.1-0.13,0.21-0.26,0.31-0.38c0.11-0.13,0.21-0.25,0.33-0.38c0.74-0.87,1.51-1.73,2.3-2.56
			c0.11-0.12,0.23-0.25,0.35-0.37c0.11-0.13,0.23-0.25,0.35-0.37c0.71-0.73,1.42-1.44,2.12-2.12c1.49-1.41,2.08-1.73,3.94-2.46
			c1.49-0.58,3.45-0.67,4.72,0.33L112.59,95.25z M95.43,64.43c1.16-0.51,2.22-1.23,3.09-2.12c2.27,2.1,4.34,4.03,6.47,6
			c3.72,3.45,7.55,7.01,12.95,11.96c-0.78,0.83-1.56,1.69-2.29,2.56c-0.14-0.14-0.3-0.28-0.46-0.43
			C111.79,79.24,103.63,71.66,95.43,64.43z M91.62,62.43c-0.01-0.23-0.01-0.45-0.01-0.68c-0.01-0.22-0.01-0.45-0.01-0.67
			c-0.03-1.73-0.06-3.45-0.06-5.17c-0.01-0.23-0.01-0.46-0.01-0.69c-0.01-0.23-0.01-0.45-0.01-0.68c-0.01-0.01-0.01-0.03,0-0.04
			c0.59-0.93,1.23-1.84,2.14-2.54c0.47-0.36,1.02-0.65,1.55-0.93l1.36-0.74c0.07-0.03,0.09-0.12,0.06-0.19
			c-0.03-0.07-0.12-0.09-0.19-0.06l-1.37,0.73c-0.54,0.29-1.09,0.59-1.58,0.96c-0.83,0.62-1.45,1.44-1.98,2.25
			c-0.01-2.17-0.01-4.33,0.01-6.48c0.01-0.23-0.19-0.43-0.42-0.43c0,0,0,0-0.01,0c-0.23,0-0.42,0.19-0.42,0.42
			c-0.02,2.08-0.02,4.17-0.01,6.26v0.67c0,0.23,0.01,0.46,0.01,0.69c0.01,1.13,0.02,2.26,0.03,3.39c-0.98-1.84-2.47-3.41-4.27-4.47
			c-0.04-0.03-0.09-0.06-0.14-0.08c-0.09-0.06-0.2-0.11-0.3-0.16c-0.06-0.03-0.11-0.06-0.16-0.08c-0.1-0.06-0.2-0.11-0.3-0.15
			c-0.03-0.02-0.06-0.03-0.09-0.04c-0.04-0.02-0.08-0.02-0.12,0c-0.01,0-0.01,0-0.01,0.01c-0.01,0-0.02,0.01-0.01,0.01
			c-0.03,0.01-0.04,0.03-0.04,0.05v0.01c-0.03,0.07,0,0.14,0.07,0.18c0.01,0,0.01,0.01,0.02,0.01c0.09,0.04,0.2,0.09,0.29,0.14
			c0.06,0.03,0.12,0.06,0.18,0.09c0.09,0.05,0.18,0.1,0.28,0.16c0.05,0.03,0.11,0.06,0.16,0.09c1.93,1.13,3.51,2.87,4.46,4.91
			c0,0,0,0,0,0.01c0.01,0.38,0.01,0.76,0.01,1.14c0.01,0.22,0.01,0.44,0.02,0.67c0,0.23,0.01,0.45,0.01,0.69
			c0.01,0.92,0.03,1.84,0.06,2.76c-3.29-0.09-5.78-1.18-7.41-3.23c-1.9-2.39-2.14-5.52-1.84-7.24c0.02-0.1,0.04-0.19,0.06-0.28
			c0.02-0.08,0.04-0.16,0.06-0.24c0.04-0.17,0.08-0.34,0.14-0.51c0.34-1.18,0.83-2.31,1.4-3.41c0.08-0.14,0.15-0.3,0.24-0.44
			c0.08-0.15,0.16-0.3,0.24-0.44c0.58-1.03,1.22-2.03,1.84-3.02l5.52-8.68c1.1,2.27,2.66,4.34,4.16,6.35
			c2.47,3.29,4.8,6.39,5.27,10.24c0.33,2.66-0.4,5.42-1.94,7.43c-0.06,0.07-0.11,0.14-0.17,0.21c-0.05,0.06-0.09,0.11-0.14,0.17
			c-0.11,0.13-0.22,0.25-0.35,0.37c-0.87,0.9-1.96,1.61-3.17,2.07c-0.18,0.07-0.36,0.13-0.54,0.19c-0.2,0.06-0.38,0.12-0.59,0.16
			c-0.62,0.16-1.27,0.25-1.93,0.28C91.65,63.76,91.64,63.09,91.62,62.43z M74.38,53.34c-0.84,2.34,0.62,5.95,3.92,9.65
			c1.93,2.17,4.85,5.37,7.83,8.2c1.71,1.63,3.55,3.19,5.33,4.68c3.42,2.9,6.96,5.89,9.68,9.5c2.85,3.77,5.86,8.31,6.65,13.43
			c0.41,2.7-0.79,5.78-1.32,6.98c-0.71,1.6-2.31,3.12-4.18,3.32c0.12-1.46-0.3-3.1-0.96-4.54c3.95-3.67,0.65-11.12-2.42-15.02
			c-2.82-3.61-6.29-6.7-9.64-9.7c-2.78-2.48-5.65-5.06-8.14-7.89c-0.37-0.43-0.84-0.95-1.37-1.54c-2.51-2.81-6.57-7.37-8.13-10.14
			c-0.13-0.23-0.25-0.46-0.34-0.67c-0.6-1.33-0.96-2.62-1.08-3.84c-0.02-0.18-0.04-0.35-0.04-0.53c-0.02-0.2-0.02-0.39-0.02-0.58
			c0.01-0.43,0.04-0.86,0.11-1.28c0.05-0.33,0.13-0.67,0.22-0.98c0.12-0.42,0.28-0.83,0.47-1.22c0.14-0.29,0.3-0.57,0.48-0.84
			c0.59-0.92,1.4-1.74,2.41-2.44c2.29-1.6,5.65-0.4,8.63,1.23c-0.57,1.08-1.06,2.2-1.42,3.39c-1.47-0.76-2.8-1.06-3.83-1.06
			c-0.25,0-0.47,0.01-0.67,0.04C75.54,51.65,74.75,52.33,74.38,53.34z M100.15,111.35c-0.46,0.37-1,0.57-1.61,0.69
			c-0.61,0.12-1.28,0.15-2,0.17c-3.61,0.11-10.62,0.21-17.67,0.28c0.81-2.51,0.56-5.47-0.69-7.66c-0.04-0.08-0.09-0.16-0.14-0.23
			c-0.09-0.14-0.18-0.29-0.28-0.42c-0.09-0.14-0.2-0.29-0.32-0.42c-0.42-0.52-0.9-0.96-1.44-1.34c-0.89-0.62-1.93-1.05-3.1-1.26
			c-3.07-0.57-6.86,0.03-8.98,3.08c-0.11,0.16-0.22,0.32-0.32,0.5c-0.09,0.16-0.19,0.33-0.27,0.5c-0.29,0.57-0.52,1.21-0.7,1.92
			c-0.35,1.4-0.48,3.47,0.09,5.45c-1.61,0-2.86,0-3.61-0.01c-0.54-0.01-1.08-0.03-1.52-0.19c0.44-1.22,0.77-2.56,1.01-4.05
			c0.16-0.98,0.28-2.05,0.34-3.18c0.01-0.16,0.02-0.33,0.03-0.5c0-0.16,0.01-0.33,0.01-0.5c0.07-2.98-0.3-6.35-1.59-9.74
			c0.39-1.06,0.92-2.1,1.68-2.99c1.49-1.73,3.83-2.9,7.18-3.58c1.88-0.38,3.78-0.56,5.68-0.56c2.86,0,5.72,0.42,8.48,1.2
			c0.2,0.05,0.39,0.11,0.59,0.18c0.19,0.05,0.38,0.11,0.57,0.17c7.86,2.54,14.79,8.09,18.55,15.52l0.11,0.23
			c0.04,0.09,0.09,0.19,0.13,0.28c0.09,0.18,0.16,0.36,0.24,0.55c0.49,1.21,0.79,2.52,0.67,3.66c-0.01,0.17-0.04,0.33-0.08,0.5
			c-0.03,0.17-0.08,0.33-0.14,0.48C100.89,110.57,100.58,111,100.15,111.35z M77.34,113.51c-1.44,2.63-4.47,4.56-8.64,3.51
			c-2.33-0.59-3.72-1.9-4.5-3.41c-0.09-0.16-0.16-0.33-0.23-0.5c-0.08-0.16-0.14-0.33-0.2-0.5c-0.63-1.86-0.51-3.87-0.18-5.21
			c0.21-0.84,0.5-1.55,0.86-2.15c0.11-0.18,0.21-0.35,0.33-0.5c0.13-0.18,0.26-0.35,0.4-0.5c1.67-1.87,4.07-2.24,5.72-2.24
			c0.9,0,1.57,0.11,1.79,0.15c1.43,0.26,2.64,0.89,3.57,1.83c0.15,0.14,0.29,0.3,0.42,0.47c0.12,0.14,0.23,0.3,0.34,0.46
			c0.09,0.14,0.18,0.28,0.27,0.43c1.16,2.05,1.35,4.86,0.5,7.17c0,0.01-0.01,0.01-0.01,0.01c-0.06,0.17-0.13,0.34-0.21,0.5
			C77.52,113.17,77.44,113.34,77.34,113.51z M44.07,118.32c-2.55,0-5.03-0.1-7.41-0.29c-2.49-0.2-3.38-1.05-3.98-1.94
			c-3.77-5.64-3.08-13.03-1.78-20.19c0.68-3.75,1.98-5.53,3.14-7.12c0.24-0.32,0.47-0.64,0.68-0.96l0.08-0.11
			c0.89-1.32,2.11-3.12-0.25-5.4c-0.9-0.88-1.75-1.8-2.17-3.47c-0.93-3.72,1.72-5.98,4.1-7.22c0.45-0.23,1.37-0.56,1.88-0.74
			c0.13-0.04,0.23-0.08,0.3-0.09l1.39,0.01h0.01l7.68,0.05h0.01l1.29,0.01c0.01,0,0.01,0.01,0.01,0.01
			c0.59,0.27,3.61,1.69,5.21,3.39c0.13,0.14,0.25,0.28,0.36,0.42c0.13,0.16,0.23,0.33,0.32,0.5c0.03,0.04,0.05,0.08,0.07,0.13
			c0.71,1.45,0.72,3.07,0.11,4.53c-0.07,0.17-0.15,0.34-0.24,0.5c-0.09,0.18-0.19,0.35-0.3,0.51c-0.23,0.36-0.52,0.7-0.83,1.01
			c-0.16,0.16-0.32,0.31-0.49,0.47c-0.47,0.43-0.96,0.89-1.28,1.46c-0.35,0.64-0.43,1.28-0.34,1.91c-0.03,0.03-0.04,0.08-0.04,0.12
			c0.01,0.06,0.04,0.1,0.08,0.12v0.01c0.26,1.25,1.13,2.47,1.9,3.53l0.18,0.24c1.11,1.55,1.95,3.14,2.58,4.73
			c0.1,0.26,0.2,0.52,0.28,0.77c0.11,0.29,0.2,0.57,0.29,0.86c0.88,2.81,1.13,5.58,1.08,8.07c-0.01,0.17-0.01,0.34-0.02,0.5
			c-0.01,0.16-0.01,0.33-0.02,0.49c-0.06,1.09-0.18,2.11-0.33,3.05c-0.21,1.3-0.48,2.48-0.84,3.55c-0.07,0.19-0.14,0.38-0.21,0.57
			c-0.06,0.18-0.13,0.35-0.21,0.52c-0.27,0.67-0.59,1.3-0.94,1.88c-1.23,2.03-3.56,3.37-6.06,3.49
			C47.55,118.27,45.79,118.32,44.07,118.32z M41.62,64.08c2.12,0,4.75,0,5.3,0.21c1.05,0.41,1.64,1.5,1.84,2.4
			c0.23,1.02,0.13,2.12,0,3.17l-9.67-0.08c-0.11-0.84-0.26-2.32-0.06-3.22C39.36,65.13,40.44,64.08,41.62,64.08z M59.2,52.06
			c-0.02-0.91-0.04-1.95,0.37-2.8c0.09-0.18,0.17-0.28,0.26-0.32c0.11-0.05,0.3-0.06,0.46-0.06c0.11,0,0.22-0.01,0.33-0.01
			c0.28-0.01,0.57-0.01,0.85-0.01c0.27-0.01,0.54-0.01,0.81-0.02c0.74-0.01,1.44-0.03,2.05-0.05h0.01c0.04,0,0.09-0.01,0.13-0.01
			h1.16l2.54-0.01h0.04c0.51,0,1.02,0.03,1.41,0.15c0.22,0.08,0.41,0.18,0.54,0.34c0.17,0.2,0.23,0.48,0.25,0.81v0.01
			c-0.27,0.44-0.49,0.91-0.67,1.39c-0.07,0.19-0.13,0.38-0.19,0.57c-0.14,0.45-0.24,0.91-0.3,1.38c-0.07,0.47-0.1,0.94-0.09,1.43
			c-2.5,0.19-5.05,0.28-7.56,0.29c-0.11,0-0.21,0-0.31-0.01c-0.18,0-0.35-0.01-0.5-0.04c-0.18-0.03-0.35-0.08-0.49-0.15
			c-0.1-0.06-0.2-0.13-0.3-0.23c-0.42-0.4-0.6-0.92-0.68-1.28C59.23,53,59.21,52.54,59.2,52.06z M58.09,45.7
			c-0.39,1.55-1.28,2.92-2.11,4.06c-2.54,3.49-5.58,6.3-8.74,8.08c1.52-1.97,2.88-4.1,4.04-6.35c1.17-2.25,2.15-4.62,2.92-7.07
			c0.12-0.38,0.32-0.81,0.57-1.22c1.14,0.41,2.38,1.07,3.43,1.96C58.17,45.34,58.13,45.52,58.09,45.7z M49.6,41.76l-0.21-0.03
			c-0.24-0.03-0.51-0.28-0.75-0.52c-0.19-0.2-0.25-0.69-0.28-0.98l-0.04-0.33c-0.1-0.83-0.26-2.23,0.13-2.74
			c0.26-0.33,0.65-0.48,1.15-0.65c0.67-0.23,1.42-0.32,2.2-0.42c0.54-0.07,1.09-0.14,1.62-0.26c0.02,0.1,0.04,0.2,0.06,0.3
			c0,0.01,0,0.01,0,0.01c0.11,1.49,0.22,2.97,0.34,4.45c0.03,0.3,0.05,0.6,0.08,0.9c0,0.28-0.01,0.53-0.01,0.71
			C52.67,42.16,51.24,41.97,49.6,41.76z M54.47,35.79c1.49-0.14,2.97-0.25,4.36-0.35c2.3-0.16,4.67-0.33,6.98-0.04
			c1.81,0.23,3.61,0.99,5.21,2.22c0.44,0.34,0.87,0.65,1.27,0.96c2.9,2.17,4.16,3.18,3.49,4.25c-0.28,0.45-1.42,0.54-2.42,0.62
			c-1.03,0.08-2.01,0.15-2.63,0.59c-1.19,0.82-1.64,2.39-1.59,3.78c-0.3-0.04-0.62-0.04-0.93-0.04h-0.03l-3.73,0.01
			c-0.91,0.03-2.01,0.05-3.14,0.07c-0.41-1.22-1.16-2.25-2.07-3.11c-0.16-0.15-0.32-0.29-0.48-0.43c-0.16-0.14-0.33-0.27-0.51-0.4
			c-0.9-0.66-1.89-1.18-2.85-1.56c-0.14-0.06-0.29-0.11-0.43-0.16l-0.01-0.04c0-0.02-0.01-0.04-0.01-0.06
			c-0.02-0.22-0.04-0.44-0.06-0.65c0-0.01,0-0.01,0-0.01c0-0.03-0.01-0.05,0-0.07c-0.03-0.29-0.05-0.58-0.08-0.86
			c-0.11-1.45-0.23-2.9-0.33-4.35C54.49,36.04,54.47,35.92,54.47,35.79z M81.21,87.7c-0.03-0.08-0.05-0.16-0.08-0.23
			c-0.16-0.45-0.33-0.93-0.52-1.41c-0.55-1.49-1.21-3.12-1.93-4.92l-0.37-0.91c-1.89-4.71-4.15-10.45-5.93-17.01
			c1.91,2.59,4.62,5.63,6.63,7.88c0.53,0.59,0.99,1.11,1.37,1.54c2.52,2.88,5.42,5.47,8.22,7.98c3.32,2.97,6.75,6.03,9.52,9.56
			c2.98,3.8,5.65,10.31,2.74,13.46C96.84,95.9,89.49,90.19,81.21,87.7z M54.2,85.55c-0.52-0.02-1.05-0.01-1.58,0.03
			c-0.06-0.45-0.01-0.88,0.23-1.3c0.11-0.19,0.24-0.37,0.4-0.54l6.62-0.18c0.09,0,0.16-0.08,0.16-0.17
			c-0.01-0.09-0.08-0.16-0.17-0.16l-6.29,0.17c0.12-0.11,0.24-0.22,0.36-0.33c0.18-0.16,0.35-0.32,0.52-0.49
			c0.54-0.54,0.98-1.13,1.32-1.76c3.87-0.09,7.69-0.03,11.42,0.04c3.36,0.06,6.82,0.12,10.31,0.06l0.24,0.6
			c0.11,0.27,0.21,0.54,0.32,0.8c0.75,1.87,1.42,3.55,1.96,5.06c-4.55-1.2-9.33-1.42-13.97-0.48c-3.58,0.72-6.11,2-7.75,3.9
			c-0.61,0.71-1.09,1.5-1.46,2.32c-0.6-1.34-1.36-2.68-2.3-3.98l-0.17-0.25c-0.72-0.99-1.45-2.02-1.7-2.98
			c0.5-0.03,1.01-0.03,1.51-0.02c0.11,0.01,0.17-0.07,0.17-0.16C54.37,85.63,54.3,85.55,54.2,85.55z M61.54,56.14h0.07
			c2.53,0,5.08-0.1,7.6-0.28c0.01,0,0.01,0,0.01,0c0.13,1.33,0.52,2.73,1.15,4.16c0.09,0.2,0.2,0.4,0.31,0.62
			c1.79,7.49,4.31,14,6.42,19.27c-3.35,0.05-6.67-0.01-9.9-0.06c-3.59-0.06-7.27-0.13-11.01-0.04c0.55-1.61,0.47-3.37-0.3-4.94
			c-0.13-0.26-0.29-0.51-0.48-0.76c2.44-5.31,4.8-11.44,5.73-17.97C61.29,56.14,61.42,56.14,61.54,56.14z"/>
		
			<radialGradient id="SVGID_00000143614879479922081220000008583498621016153225_" cx="29.3856" cy="32.4087" r="120.565" gradientUnits="userSpaceOnUse">
			<stop  offset="0" style="stop-color:#00746D"/>
			<stop  offset="0.2174" style="stop-color:#00746D"/>
			<stop  offset="0.4101" style="stop-color:#09998F"/>
			<stop  offset="0.6425" style="stop-color:#16CABD"/>
			<stop  offset="1" style="stop-color:#16CABD"/>
		</radialGradient>
		<path style="fill:url(#SVGID_00000143614879479922081220000008583498621016153225_);" d="M76.91,66.19c0.03,0,0.06-0.01,0.09-0.03
			c0.63-0.43,1.22-0.92,1.74-1.47c0.06-0.06,0.06-0.17-0.01-0.23c-0.07-0.06-0.17-0.06-0.24,0.01c-0.51,0.53-1.08,1.01-1.69,1.42
			c-0.08,0.06-0.09,0.16-0.04,0.23C76.81,66.17,76.86,66.19,76.91,66.19z"/>
		
			<radialGradient id="SVGID_00000139280502190660282130000017122982127360960141_" cx="29.3856" cy="32.4087" r="120.565" gradientUnits="userSpaceOnUse">
			<stop  offset="0" style="stop-color:#00746D"/>
			<stop  offset="0.2174" style="stop-color:#00746D"/>
			<stop  offset="0.4101" style="stop-color:#09998F"/>
			<stop  offset="0.6425" style="stop-color:#16CABD"/>
			<stop  offset="1" style="stop-color:#16CABD"/>
		</radialGradient>
		<path style="fill:url(#SVGID_00000139280502190660282130000017122982127360960141_);" d="M73.97,62.51
			c0.03,0.05,0.09,0.08,0.14,0.08c0.03,0,0.06-0.01,0.09-0.03c0.62-0.37,1.21-0.8,1.74-1.29c0.07-0.06,0.07-0.17,0.01-0.24
			c-0.06-0.06-0.17-0.07-0.23-0.01c-0.52,0.47-1.08,0.89-1.68,1.25C73.96,62.33,73.93,62.43,73.97,62.51z"/>
		
			<radialGradient id="SVGID_00000087402197406076441480000012185437929436221062_" cx="29.3856" cy="32.4087" r="120.565" gradientUnits="userSpaceOnUse">
			<stop  offset="0" style="stop-color:#00746D"/>
			<stop  offset="0.2174" style="stop-color:#00746D"/>
			<stop  offset="0.4101" style="stop-color:#09998F"/>
			<stop  offset="0.6425" style="stop-color:#16CABD"/>
			<stop  offset="1" style="stop-color:#16CABD"/>
		</radialGradient>
		<path style="fill:url(#SVGID_00000087402197406076441480000012185437929436221062_);" d="M73.72,56.84
			c-0.79,0.35-1.62,0.59-2.48,0.69c-0.09,0.01-0.16,0.09-0.14,0.18c0.01,0.09,0.08,0.15,0.16,0.15h0.03
			c0.89-0.11,1.76-0.35,2.58-0.71c0.08-0.04,0.12-0.14,0.08-0.22C73.9,56.84,73.8,56.8,73.72,56.84z"/>
		
			<radialGradient id="SVGID_00000051383003341362470270000011193346651364960407_" cx="29.3856" cy="32.4087" r="120.565" gradientUnits="userSpaceOnUse">
			<stop  offset="0" style="stop-color:#00746D"/>
			<stop  offset="0.2174" style="stop-color:#00746D"/>
			<stop  offset="0.4101" style="stop-color:#09998F"/>
			<stop  offset="0.6425" style="stop-color:#16CABD"/>
			<stop  offset="1" style="stop-color:#16CABD"/>
		</radialGradient>
		<path style="fill:url(#SVGID_00000051383003341362470270000011193346651364960407_);" d="M71.48,51.91
			c0.75,0.45,1.54,0.83,2.37,1.12c0.01,0.01,0.03,0.01,0.05,0.01c0.07,0,0.14-0.04,0.16-0.11c0.03-0.09-0.01-0.18-0.1-0.21
			c-0.86-0.3-1.69-0.7-2.46-1.18c-0.01-0.01-0.02-0.01-0.03-0.01c-0.07-0.03-0.15,0-0.2,0.06c-0.05,0.08-0.03,0.18,0.05,0.23
			C71.37,51.84,71.42,51.87,71.48,51.91z"/>
		
			<radialGradient id="SVGID_00000054227382147819951930000001911715620487767975_" cx="29.3856" cy="32.4087" r="120.565" gradientUnits="userSpaceOnUse">
			<stop  offset="0" style="stop-color:#00746D"/>
			<stop  offset="0.2174" style="stop-color:#00746D"/>
			<stop  offset="0.4101" style="stop-color:#09998F"/>
			<stop  offset="0.6425" style="stop-color:#16CABD"/>
			<stop  offset="1" style="stop-color:#16CABD"/>
		</radialGradient>
		<path style="fill:url(#SVGID_00000054227382147819951930000001911715620487767975_);" d="M75.64,47.79
			c-0.09,0.02-0.15,0.11-0.14,0.2c0.18,0.96,0.42,1.91,0.72,2.83c0.03,0.07,0.09,0.12,0.16,0.12c0.01,0,0.03-0.01,0.05-0.01
			c0.09-0.03,0.13-0.12,0.11-0.21c-0.3-0.91-0.54-1.85-0.71-2.8C75.82,47.84,75.73,47.77,75.64,47.79z"/>
		
			<radialGradient id="SVGID_00000142170186085777109650000011395418763480046992_" cx="29.3856" cy="32.4087" r="120.565" gradientUnits="userSpaceOnUse">
			<stop  offset="0" style="stop-color:#00746D"/>
			<stop  offset="0.2174" style="stop-color:#00746D"/>
			<stop  offset="0.4101" style="stop-color:#09998F"/>
			<stop  offset="0.6425" style="stop-color:#16CABD"/>
			<stop  offset="1" style="stop-color:#16CABD"/>
		</radialGradient>
		<path style="fill:url(#SVGID_00000142170186085777109650000011395418763480046992_);" d="M80.21,51.73
			c0.02,0.01,0.04,0.01,0.06,0.01c0.06,0,0.13-0.04,0.16-0.11c0.31-0.77,0.72-1.5,1.21-2.17c0.06-0.08,0.04-0.18-0.04-0.23
			c-0.08-0.05-0.18-0.04-0.23,0.04c-0.5,0.69-0.93,1.45-1.25,2.24C80.09,51.6,80.13,51.69,80.21,51.73z"/>
		
			<radialGradient id="SVGID_00000058554928478083256610000016699620079443836859_" cx="29.3856" cy="32.4087" r="120.565" gradientUnits="userSpaceOnUse">
			<stop  offset="0" style="stop-color:#00746D"/>
			<stop  offset="0.2174" style="stop-color:#00746D"/>
			<stop  offset="0.4101" style="stop-color:#09998F"/>
			<stop  offset="0.6425" style="stop-color:#16CABD"/>
			<stop  offset="1" style="stop-color:#16CABD"/>
		</radialGradient>
		<path style="fill:url(#SVGID_00000058554928478083256610000016699620079443836859_);" d="M99.52,109.21H99.4
			c-2.9-0.09-5.83-0.08-8.73,0.01c-0.09,0-0.16,0.08-0.16,0.17c0,0.09,0.08,0.16,0.16,0.16h0.01c2.93-0.09,5.89-0.09,8.82-0.01
			c0.08-0.01,0.13-0.04,0.16-0.11c0.01-0.02,0.02-0.04,0.02-0.06C99.68,109.29,99.61,109.21,99.52,109.21z"/>
		
			<radialGradient id="SVGID_00000119796325042279086580000010655633135385746601_" cx="29.3856" cy="32.4087" r="120.565" gradientUnits="userSpaceOnUse">
			<stop  offset="0" style="stop-color:#00746D"/>
			<stop  offset="0.2174" style="stop-color:#00746D"/>
			<stop  offset="0.4101" style="stop-color:#09998F"/>
			<stop  offset="0.6425" style="stop-color:#16CABD"/>
			<stop  offset="1" style="stop-color:#16CABD"/>
		</radialGradient>
		<path style="fill:url(#SVGID_00000119796325042279086580000010655633135385746601_);" d="M95,106.83l3.61,0.07h0.01
			c0.09,0,0.16-0.08,0.16-0.17c0.01-0.09-0.07-0.16-0.16-0.17l-3.61-0.06c-0.09,0.01-0.17,0.07-0.17,0.16
			C94.83,106.75,94.9,106.83,95,106.83z"/>
		
			<radialGradient id="SVGID_00000121999955709442610760000009861638696271754643_" cx="29.3856" cy="32.4087" r="120.565" gradientUnits="userSpaceOnUse">
			<stop  offset="0" style="stop-color:#00746D"/>
			<stop  offset="0.2174" style="stop-color:#00746D"/>
			<stop  offset="0.4101" style="stop-color:#09998F"/>
			<stop  offset="0.6425" style="stop-color:#16CABD"/>
			<stop  offset="1" style="stop-color:#16CABD"/>
		</radialGradient>
		<path style="fill:url(#SVGID_00000121999955709442610760000009861638696271754643_);" d="M108.5,40.77
			c0.76,0.04,1.41,0.08,2.04,0.13c0.63,0.05,1.27,0.09,2.03,0.13c0.01,0,0.01,0,0.02,0c0.23,0,0.42-0.18,0.43-0.41
			c0.01-0.24-0.17-0.44-0.41-0.45c-0.74-0.04-1.39-0.08-2.01-0.13c-0.63-0.05-1.29-0.09-2.06-0.13c-0.23-0.01-0.44,0.17-0.45,0.41
			C108.08,40.56,108.26,40.76,108.5,40.77z"/>
		
			<radialGradient id="SVGID_00000166638647765705895810000007885314690656380043_" cx="29.3856" cy="32.4087" r="120.565" gradientUnits="userSpaceOnUse">
			<stop  offset="0" style="stop-color:#00746D"/>
			<stop  offset="0.2174" style="stop-color:#00746D"/>
			<stop  offset="0.4101" style="stop-color:#09998F"/>
			<stop  offset="0.6425" style="stop-color:#16CABD"/>
			<stop  offset="1" style="stop-color:#16CABD"/>
		</radialGradient>
		<path style="fill:url(#SVGID_00000166638647765705895810000007885314690656380043_);" d="M106.17,38.9c0.01,0,0.02,0,0.03,0
			c0.22,0,0.41-0.17,0.43-0.4l0.26-4.09c0.01-0.24-0.16-0.44-0.4-0.45c-0.24-0.02-0.44,0.16-0.45,0.4l-0.26,4.09
			C105.76,38.69,105.94,38.89,106.17,38.9z"/>
		
			<radialGradient id="SVGID_00000144325768818958489370000007993267317931700391_" cx="29.3856" cy="32.4087" r="120.565" gradientUnits="userSpaceOnUse">
			<stop  offset="0" style="stop-color:#00746D"/>
			<stop  offset="0.2174" style="stop-color:#00746D"/>
			<stop  offset="0.4101" style="stop-color:#09998F"/>
			<stop  offset="0.6425" style="stop-color:#16CABD"/>
			<stop  offset="1" style="stop-color:#16CABD"/>
		</radialGradient>
		<path style="fill:url(#SVGID_00000144325768818958489370000007993267317931700391_);" d="M101.19,40.77
			C101.19,40.77,101.19,40.77,101.19,40.77l3.16-0.03c0.24,0,0.43-0.19,0.42-0.43c0-0.23-0.19-0.42-0.43-0.42c0,0,0,0,0,0
			l-3.16,0.03c-0.24,0-0.43,0.19-0.42,0.43C100.76,40.58,100.95,40.77,101.19,40.77z"/>
		
			<radialGradient id="SVGID_00000067217143173031029330000000567122972423101330_" cx="29.3856" cy="32.4087" r="120.565" gradientUnits="userSpaceOnUse">
			<stop  offset="0" style="stop-color:#00746D"/>
			<stop  offset="0.2174" style="stop-color:#00746D"/>
			<stop  offset="0.4101" style="stop-color:#09998F"/>
			<stop  offset="0.6425" style="stop-color:#16CABD"/>
			<stop  offset="1" style="stop-color:#16CABD"/>
		</radialGradient>
		<path style="fill:url(#SVGID_00000067217143173031029330000000567122972423101330_);" d="M106.2,47.08c0.01,0,0.02,0,0.04,0
			c0.24-0.02,0.41-0.23,0.39-0.46c-0.11-1.27-0.11-2.56-0.01-3.83c0.02-0.24-0.16-0.44-0.39-0.46c-0.23-0.02-0.44,0.16-0.46,0.39
			c-0.1,1.31-0.1,2.65,0.01,3.96C105.79,46.91,105.98,47.08,106.2,47.08z"/>
		
			<radialGradient id="SVGID_00000057140642277096576420000003380218684458689449_" cx="29.3856" cy="32.4087" r="120.565" gradientUnits="userSpaceOnUse">
			<stop  offset="0" style="stop-color:#00746D"/>
			<stop  offset="0.2174" style="stop-color:#00746D"/>
			<stop  offset="0.4101" style="stop-color:#09998F"/>
			<stop  offset="0.6425" style="stop-color:#16CABD"/>
			<stop  offset="1" style="stop-color:#16CABD"/>
		</radialGradient>
		<path style="fill:url(#SVGID_00000057140642277096576420000003380218684458689449_);" d="M33.37,94.87l13.27,0.21l0.5,0.01
			l0.5,0.01l6.81,0.11h0.01c0.09,0,0.16-0.08,0.16-0.16c0.01-0.09-0.07-0.17-0.16-0.17l-6.82-0.11l-0.5-0.01l-0.5-0.01l-13.26-0.21
			c-0.1,0-0.17,0.07-0.17,0.16C33.21,94.79,33.28,94.87,33.37,94.87z"/>
		
			<radialGradient id="SVGID_00000075153985822880507750000000665027329692574637_" cx="29.3856" cy="32.4087" r="120.565" gradientUnits="userSpaceOnUse">
			<stop  offset="0" style="stop-color:#00746D"/>
			<stop  offset="0.2174" style="stop-color:#00746D"/>
			<stop  offset="0.4101" style="stop-color:#09998F"/>
			<stop  offset="0.6425" style="stop-color:#16CABD"/>
			<stop  offset="1" style="stop-color:#16CABD"/>
		</radialGradient>
		<path style="fill:url(#SVGID_00000075153985822880507750000000665027329692574637_);" d="M54.54,112.22
			c0.09,0,0.16-0.07,0.16-0.16c0.01-0.09-0.06-0.17-0.16-0.18c-7.59-0.4-15.3-0.48-22.9-0.26c-0.09,0.01-0.16,0.08-0.16,0.18
			c0.01,0.09,0.08,0.16,0.18,0.16c7.59-0.23,15.28-0.14,22.86,0.26C54.53,112.22,54.53,112.22,54.54,112.22z"/>
		
			<radialGradient id="SVGID_00000141443013707931713400000007972102414208417161_" cx="29.3856" cy="32.4087" r="120.565" gradientUnits="userSpaceOnUse">
			<stop  offset="0" style="stop-color:#00746D"/>
			<stop  offset="0.2174" style="stop-color:#00746D"/>
			<stop  offset="0.4101" style="stop-color:#09998F"/>
			<stop  offset="0.6425" style="stop-color:#16CABD"/>
			<stop  offset="1" style="stop-color:#16CABD"/>
		</radialGradient>
		<path style="fill:url(#SVGID_00000141443013707931713400000007972102414208417161_);" d="M49.88,97.08
			c-0.09,0.01-0.17,0.08-0.16,0.17c0,0.09,0.06,0.18,0.17,0.17c1.61-0.03,3.23-0.03,4.83,0.02c0,0,0,0,0.01,0
			c0.09,0,0.16-0.08,0.16-0.16c0-0.09-0.07-0.17-0.16-0.17C53.11,97.06,51.49,97.05,49.88,97.08z"/>
	</g>
</g>
</svg>
