<?xml version="1.0" encoding="utf-8"?>
<!-- Generator: Adobe Illustrator 26.0.2, SVG Export Plug-In . SVG Version: 6.00 Build 0)  -->
<svg version="1.1" id="Calque_1" xmlns="http://www.w3.org/2000/svg" xmlns:xlink="http://www.w3.org/1999/xlink" x="0px" y="0px"
	 viewBox="0 0 147.4 147.4" style="enable-background:new 0 0 147.4 147.4;" xml:space="preserve">
<style type="text/css">
	.st0{fill:url(#XMLID_00000094611119212942588840000011485532953916335488_);}
	.st1{fill:url(#XMLID_00000119828493155117716680000001966946140402245564_);}
	.st2{fill:#FFFFFF;}
	.st3{fill:url(#SVGID_1_);}
	.st4{fill:url(#SVGID_00000150066799939985679340000014917535005952806313_);}
	.st5{fill:url(#SVGID_00000178191109731111107970000016112511265636560802_);}
	.st6{fill:url(#SVGID_00000129171796764306516380000001831483184897708459_);}
	.st7{fill:url(#SVGID_00000000198301835118125730000009344073053056062363_);}
	.st8{fill:url(#SVGID_00000012435909892949051550000009572905093802943897_);}
	.st9{fill:url(#SVGID_00000106869323145494531310000016224918416260016038_);}
	.st10{fill:url(#SVGID_00000181767333405772276990000010285516376052779652_);}
	.st11{fill:url(#SVGID_00000139251777106481395150000006307986876772167354_);}
	.st12{fill:url(#SVGID_00000139288578524888336520000013887898570456750520_);}
	.st13{fill:url(#SVGID_00000016072723316334597400000006483432694273255591_);}
	.st14{fill:url(#SVGID_00000178182257682636943220000010418238030827861153_);}
	.st15{fill:url(#SVGID_00000034788127594753114060000002016931776133500068_);}
	.st16{fill:url(#XMLID_00000172428572486039172070000000283081819021599883_);}
	.st17{fill:url(#XMLID_00000109001414503681186600000001259442885403875214_);}
	.st18{fill:url(#SVGID_00000173839940092612221550000017565516575797448320_);}
	.st19{fill:url(#SVGID_00000108296966731661941270000017077098312861305754_);}
	.st20{fill:url(#SVGID_00000128478590104859994780000003211157348487999161_);}
	.st21{fill:url(#SVGID_00000021807417603886902890000009989847019803311234_);}
	.st22{fill:url(#SVGID_00000136371016938737773350000016700902842031818128_);}
	.st23{fill:url(#SVGID_00000005267412338624743400000004760633473700571520_);}
	.st24{fill:url(#SVGID_00000082349598697528233300000014254952254539672212_);}
	.st25{fill:url(#SVGID_00000155833024160882249820000010569810679748640420_);}
	.st26{fill:url(#SVGID_00000032629227491139093500000016871438297083680176_);}
	.st27{fill:url(#XMLID_00000183957002291326407570000005856381731213825724_);}
	.st28{fill:url(#XMLID_00000057141497168688033320000001626123991531446198_);}
	.st29{fill:url(#SVGID_00000010290618600778593690000015833524625736676523_);}
	.st30{fill:url(#SVGID_00000053513960190868294710000005545285969584415907_);}
	.st31{fill:url(#SVGID_00000127734172844062182850000010683118376639423384_);}
	.st32{fill:url(#SVGID_00000023974250918029145100000000667744135465031327_);}
	.st33{fill:url(#SVGID_00000054257244382940250200000005357947577542152614_);}
	.st34{fill:url(#SVGID_00000124158049772752979770000014695088373937725340_);}
	.st35{fill:url(#SVGID_00000072267446628214516520000015524107267423328170_);}
	.st36{fill:url(#SVGID_00000141429976027554981300000017852597373382314895_);}
	.st37{fill:url(#SVGID_00000105419988368603130870000005765900439787746984_);}
	.st38{fill:url(#SVGID_00000163783502467513529840000001312731443679573892_);}
	.st39{fill:url(#SVGID_00000152261871234365631910000008984201036201855882_);}
	.st40{fill:url(#SVGID_00000051373977027833581830000014919774036074052257_);}
	.st41{fill:url(#SVGID_00000157300593896171436290000005099535513327532990_);}
	.st42{fill:url(#SVGID_00000028289383586053960760000004567120895100877489_);}
	.st43{fill:url(#SVGID_00000013184345217627619410000007668547232913672088_);}
	.st44{fill:url(#SVGID_00000173872985904933875480000005154342188687052210_);}
	.st45{fill:url(#SVGID_00000065763239455822645940000018223676487131940480_);}
	.st46{fill:url(#SVGID_00000140731002613950395950000001315216284897249668_);}
	.st47{fill:url(#SVGID_00000142163325694853912920000017534747624991349904_);}
	.st48{fill:url(#SVGID_00000142857307105585125750000015538715312530332582_);}
	.st49{fill:url(#SVGID_00000065066018890818655470000008482479274506802355_);}
	.st50{fill:url(#SVGID_00000078038421526903289880000008068761401081664917_);}
	.st51{fill:url(#SVGID_00000083769871282658893710000009052130821255660175_);}
	.st52{fill:url(#SVGID_00000072242611716146538660000004746057360327835533_);}
	.st53{fill:url(#SVGID_00000078758649931282273330000013422959862496905618_);}
	.st54{fill:url(#SVGID_00000090255766722752284510000006556960946021902976_);}
	.st55{fill:url(#SVGID_00000053526583606680410670000015708111619122757007_);}
	.st56{fill:url(#SVGID_00000160149163461123140890000007700897368649872030_);}
	.st57{fill:url(#SVGID_00000147208042278542122060000010885099254146064302_);}
	.st58{fill:url(#SVGID_00000141434643403784558090000010395040752736759458_);}
	.st59{fill:url(#SVGID_00000122685637551319320150000010584694826750952580_);}
	.st60{fill:url(#SVGID_00000163047455785059961230000009710776405597485484_);}
	.st61{fill:url(#SVGID_00000026135703987813874340000008738771963424219577_);}
</style>
<g>
	<g id="XMLID_00000108294541039113841050000002829354807178060717_">
		
			<radialGradient id="XMLID_00000083781030492418975030000014633397487796005566_" cx="61.7332" cy="118.0626" r="170.1927" gradientTransform="matrix(1 0 0 -1 0 149.5591)" gradientUnits="userSpaceOnUse">
			<stop  offset="0" style="stop-color:#FFFFFF"/>
			<stop  offset="1" style="stop-color:#C4BBBB"/>
		</radialGradient>
		
			<circle id="XMLID_00000093872985052287375590000008587160951209057720_" style="fill:url(#XMLID_00000083781030492418975030000014633397487796005566_);" cx="73.7" cy="73.7" r="73.7"/>
		
			<linearGradient id="XMLID_00000127033340475315975250000016725126315069580942_" gradientUnits="userSpaceOnUse" x1="5" y1="75.8591" x2="142.4" y2="75.8591" gradientTransform="matrix(1 0 0 -1 0 149.5591)">
			<stop  offset="0" style="stop-color:#C4BBBB"/>
			<stop  offset="1" style="stop-color:#FFFFFF"/>
		</linearGradient>
		
			<circle id="XMLID_00000101105713001579408860000015594861892431723909_" style="fill:url(#XMLID_00000127033340475315975250000016725126315069580942_);" cx="73.7" cy="73.7" r="68.7"/>
	</g>
	<g>
	</g>
	<g>
		<polygon class="st2" points="48.05,56.93 48.05,56.93 48.05,56.93 		"/>
		<path class="st2" d="M117.73,113.36l-0.19,0.38c-0.01,0.03-0.95,1.81-3.05,3.97c-2.09,2.16-5.33,4.68-9.95,6.17
			c-2.51,0.81-4.91,1.1-7.08,1.1c-5.58,0-9.63-1.93-10.03-2.13c-0.16,0.04-0.25,0.05-0.26,0.05l-0.5,0.09l-0.02-0.15
			c-0.12,0.02-0.23,0.05-0.36,0.07c-1,0.19-2.14,0.35-3.36,0.47h0c-0.1,0.01-0.19,0.02-0.29,0.03c0,0,0,0,0,0c0,0,0,0,0,0
			c-0.5,0.05-1.02,0.09-1.54,0.13c-0.19,0.01-0.37,0.02-0.55,0.03h-0.02c-0.14,0-0.29,0.01-0.45,0.02c-0.2,0.01-0.4,0.02-0.6,0.03
			c-0.11,0-0.22,0.01-0.33,0.01c-0.11,0-0.22,0.01-0.33,0.01c-0.13,0-0.27,0.01-0.4,0.01c-0.26,0.01-0.51,0.01-0.76,0.02H77.6
			c-0.12,0-0.25,0-0.39,0c-0.48,0.01-0.96,0.01-1.45,0.01c-1.25,0-2.49-0.02-3.71-0.08c-0.21-0.01-0.42-0.02-0.61-0.03h-0.01
			c-0.11-0.01-0.22-0.01-0.34-0.02h-0.01c-0.2-0.01-0.4-0.02-0.59-0.04c-1.08-0.07-2.12-0.17-3.09-0.3
			c-0.18-0.02-0.35-0.04-0.52-0.07h0c-0.29-0.04-0.57-0.08-0.86-0.13c-0.15-0.02-0.3-0.04-0.46-0.08h-0.01l-0.01,0
			c-0.06-0.01-0.14-0.02-0.22-0.04H65.3c-0.16-0.03-0.32-0.06-0.48-0.1c-0.17-0.03-0.32-0.07-0.45-0.1h0
			c-0.3-0.07-0.58-0.15-0.84-0.22l0,0h0c-0.27-0.08-0.52-0.16-0.74-0.24l0,0h0c-0.14-0.05-0.26-0.11-0.37-0.16h0
			c-0.03-0.01-0.07-0.03-0.1-0.05c-2.03,0.55-4.6,0.82-6.95,0.95c-0.3,0.02-0.6,0.03-0.91,0.04c-0.92,0.04-1.86,0.06-2.8,0.06
			c-2.52,0-4.96-0.14-7.06-0.4c-0.6-0.07-1.08-0.14-1.51-0.21c-0.35-0.06-0.73-0.13-1.07-0.2c-0.25-0.05-0.49-0.1-0.7-0.16
			c-1.89-0.47-3.08-1.06-3.65-1.82c-0.22-0.31-0.35-0.64-0.35-1V66.15c0-4.05,1.56-7.45,4.5-9.84c0.22-0.18,0.43-0.35,0.64-0.49
			c0.4-0.28,0.81-0.55,1.21-0.77c0.05-0.03,0.11-0.06,0.17-0.09v-9.78c0-0.4,0.19-0.94,1-1.4l0.89-11c0.03-0.8,1.13-0.88,2.29-0.97
			c0.96-0.07,2.25-0.11,3.64-0.11c1.38,0,2.67,0.04,3.63,0.11c1.16,0.09,2.26,0.17,2.29,0.97l0.89,11c0.82,0.46,1,1,1,1.4v9.78
			c1.45,0.79,2.68,1.79,3.66,2.97c0.31,0.36,0.6,0.76,0.88,1.17c0.35,0.55,0.66,1.12,0.92,1.71c1.01-1.78,1.63-3.53,0.85-5.11
			c-0.33-0.67-0.91-1.27-1.52-1.89c-0.25-0.25-0.5-0.51-0.73-0.76c-3-3.33-3.8-8.07-2.04-12.06c1.54-3.5,6.87-6.52,8.65-7.44
			c-0.18-1.77-0.37-3.75,0-5.66c0.47-2.32,1.75-4.15,3.45-4.87c0.95-0.41,3.64-0.44,7.95-0.44c2.31,0,4.41,2.16,5.01,5.12
			c0.33,1.65,0.11,4.14-0.06,5.57c0.74,0.28,2.18,0.85,2.93,1.28c5.37,3.11,7.66,7.75,6.47,13.06c-0.67,3.01-2.06,4.7-3.43,6.17
			c-2.46,2.66-1.4,4.41-0.16,6.44l0.1,0.18c0.29,0.48,0.6,0.96,0.93,1.45c1.62,2.47,3.63,5.54,4.65,11.76
			c1.68,10.28,2.64,20.89-1.14,29.66c0.63-0.36,1.25-0.65,1.83-0.9c2.28-0.99,3.96-1.25,4-1.26l0.47-0.07l0.09,0.43
			c0,0.02,0.15,0.75,0.15,1.97c0,1.79-0.31,4.63-1.86,7.85c1.83-0.47,3.59-0.65,5.23-0.65c6.13,0,10.62,2.5,10.66,2.52
			L117.73,113.36z"/>
	</g>
	<g>
		<radialGradient id="SVGID_1_" cx="48.6272" cy="32.2301" r="176.9144" gradientUnits="userSpaceOnUse">
			<stop  offset="0" style="stop-color:#00746D"/>
			<stop  offset="0.2174" style="stop-color:#00746D"/>
			<stop  offset="0.4101" style="stop-color:#09998F"/>
			<stop  offset="0.6425" style="stop-color:#16CABD"/>
			<stop  offset="1" style="stop-color:#16CABD"/>
		</radialGradient>
		<path class="st3" d="M71.78,107.93c0.1,0.04,0.18,0.05,0.28,0.07c0.33,0.05,0.83,0.09,1.47,0.11c0.63,0.02,1.38,0.03,2.12,0.03
			c0.94,0,1.87-0.02,2.59-0.05c0.36-0.02,0.66-0.04,0.89-0.07c0.12-0.01,0.21-0.03,0.31-0.05c0.05-0.02,0.1-0.03,0.18-0.08
			c0.04-0.02,0.09-0.05,0.14-0.11c0.05-0.06,0.11-0.17,0.11-0.3c0-0.25-0.22-0.45-0.49-0.45c-0.09,0-0.18,0.03-0.25,0.07
			c-0.02,0-0.05,0.01-0.09,0.02c-0.25,0.04-0.75,0.07-1.35,0.09c-0.6,0.02-1.31,0.03-2.03,0.03c-0.93,0-1.85-0.02-2.54-0.05
			c-0.34-0.02-0.62-0.04-0.8-0.06c-0.07-0.01-0.11-0.02-0.14-0.02c-0.08-0.04-0.16-0.07-0.25-0.07c-0.27,0-0.49,0.2-0.49,0.45
			c0,0.13,0.06,0.24,0.11,0.3C71.65,107.89,71.72,107.91,71.78,107.93z"/>
		
			<radialGradient id="SVGID_00000139256924498905205700000007269982117175985288_" cx="48.6272" cy="32.2301" r="176.9144" gradientUnits="userSpaceOnUse">
			<stop  offset="0" style="stop-color:#00746D"/>
			<stop  offset="0.2174" style="stop-color:#00746D"/>
			<stop  offset="0.4101" style="stop-color:#09998F"/>
			<stop  offset="0.6425" style="stop-color:#16CABD"/>
			<stop  offset="1" style="stop-color:#16CABD"/>
		</radialGradient>
		<path style="fill:url(#SVGID_00000139256924498905205700000007269982117175985288_);" d="M81.13,108.73
			c-0.14,0-0.26,0.05-0.35,0.15c-0.01,0-0.02,0-0.04,0.01c0,0,0,0-0.01,0c-0.02,0-0.04,0.01-0.07,0.01
			c-0.37,0.07-1.12,0.14-2.04,0.18c-0.92,0.04-2.02,0.06-3.11,0.06c-1.4,0-2.79-0.04-3.83-0.1c-0.52-0.03-0.94-0.08-1.22-0.12
			c-0.1-0.02-0.17-0.04-0.22-0.05c-0.09-0.09-0.21-0.14-0.35-0.14c-0.27,0-0.49,0.2-0.49,0.45c0,0.06,0.01,0.12,0.04,0.18
			c0.01,0.03,0.02,0.06,0.04,0.08c0.09,0.13,0.18,0.17,0.24,0.21c0.13,0.07,0.25,0.1,0.39,0.13c0.24,0.05,0.55,0.09,0.92,0.13
			c1.11,0.1,2.79,0.15,4.48,0.15c1.41,0,2.82-0.04,3.9-0.1c0.54-0.04,0.98-0.08,1.32-0.14c0.17-0.03,0.31-0.06,0.45-0.11
			c0.04-0.01,0.08-0.03,0.12-0.05c0.03-0.02,0.07-0.04,0.11-0.07c0.04-0.03,0.09-0.08,0.14-0.14c0.04-0.07,0.08-0.16,0.07-0.26
			c0-0.12-0.05-0.24-0.14-0.32C81.39,108.78,81.27,108.73,81.13,108.73z"/>
		
			<radialGradient id="SVGID_00000036238379492004822460000003704143828806692507_" cx="48.6272" cy="32.2301" r="176.9144" gradientUnits="userSpaceOnUse">
			<stop  offset="0" style="stop-color:#00746D"/>
			<stop  offset="0.2174" style="stop-color:#00746D"/>
			<stop  offset="0.4101" style="stop-color:#09998F"/>
			<stop  offset="0.6425" style="stop-color:#16CABD"/>
			<stop  offset="1" style="stop-color:#16CABD"/>
		</radialGradient>
		<path style="fill:url(#SVGID_00000036238379492004822460000003704143828806692507_);" d="M78.18,112.14
			c-0.13,0-0.24,0.05-0.33,0.13c-0.05,0.01-0.13,0.03-0.22,0.04c-0.47,0.06-1.35,0.1-2.22,0.1c-0.68,0-1.36-0.02-1.86-0.07
			c-0.25-0.02-0.45-0.05-0.56-0.07l-0.02,0c-0.09-0.08-0.2-0.13-0.33-0.13c-0.27,0-0.49,0.2-0.49,0.45c0,0.15,0.08,0.28,0.15,0.35
			c0.13,0.12,0.22,0.14,0.31,0.17c0.15,0.05,0.31,0.08,0.5,0.1c0.57,0.07,1.43,0.11,2.3,0.11c0.71,0,1.41-0.02,1.95-0.07
			c0.27-0.02,0.51-0.05,0.7-0.09c0.1-0.02,0.19-0.05,0.29-0.1c0.05-0.03,0.11-0.06,0.18-0.12c0.06-0.06,0.15-0.19,0.15-0.35
			C78.67,112.35,78.45,112.14,78.18,112.14z"/>
		
			<radialGradient id="SVGID_00000060014075829396463420000006610098553363529390_" cx="48.6272" cy="32.2301" r="176.9144" gradientUnits="userSpaceOnUse">
			<stop  offset="0" style="stop-color:#00746D"/>
			<stop  offset="0.2174" style="stop-color:#00746D"/>
			<stop  offset="0.4101" style="stop-color:#09998F"/>
			<stop  offset="0.6425" style="stop-color:#16CABD"/>
			<stop  offset="1" style="stop-color:#16CABD"/>
		</radialGradient>
		<path style="fill:url(#SVGID_00000060014075829396463420000006610098553363529390_);" d="M117.34,113.15
			c-0.04-0.02-4.53-2.51-10.66-2.51c-1.65,0-3.41,0.18-5.23,0.65c1.55-3.22,1.87-6.06,1.86-7.85c0-1.22-0.15-1.95-0.15-1.97
			l-0.09-0.43l-0.47,0.07c-0.03,0-1.72,0.26-4,1.25c-0.57,0.25-1.19,0.55-1.83,0.9c3.78-8.76,2.83-19.38,1.14-29.65
			c-1.02-6.22-3.03-9.29-4.65-11.76c-0.33-0.49-0.64-0.97-0.93-1.45l-0.1-0.17c-1.24-2.03-2.3-3.78,0.16-6.44
			c1.36-1.47,2.76-3.16,3.43-6.17c1.19-5.31-1.11-9.95-6.47-13.06c-0.74-0.43-2.19-1-2.93-1.28c0.17-1.42,0.38-3.92,0.06-5.57
			c-0.59-2.96-2.7-5.11-5.01-5.11c-4.31,0-7,0.03-7.95,0.44c-1.69,0.73-2.98,2.55-3.45,4.87c-0.38,1.91-0.19,3.89,0,5.66
			c-1.78,0.93-7.11,3.95-8.65,7.45c-1.75,3.99-0.95,8.73,2.04,12.06c0.23,0.26,0.48,0.51,0.73,0.77c0.61,0.62,1.19,1.21,1.52,1.89
			c0.78,1.58,0.16,3.33-0.85,5.11c-0.26-0.6-0.56-1.17-0.92-1.71c-0.27-0.42-0.57-0.81-0.88-1.18c-0.98-1.17-2.22-2.17-3.66-2.96
			v-9.78c0-0.4-0.18-0.94-1-1.4l-0.89-11c-0.03-0.8-1.13-0.88-2.29-0.97c-0.96-0.07-2.25-0.11-3.63-0.11
			c-1.38,0-2.67,0.04-3.64,0.11c-1.16,0.09-2.26,0.17-2.29,0.97l-0.89,11c-0.81,0.46-1,1-1,1.4v9.78c-0.06,0.03-0.12,0.06-0.17,0.1
			c-0.4,0.22-0.81,0.49-1.21,0.77c-0.2,0.15-0.41,0.31-0.64,0.49c-2.95,2.39-4.5,5.79-4.5,9.84v53.16c0,0.35,0.13,0.69,0.35,1
			c0.56,0.76,1.76,1.35,3.65,1.81c0.21,0.05,0.45,0.1,0.7,0.15c0.34,0.08,0.72,0.15,1.07,0.2c0.43,0.08,0.92,0.15,1.51,0.22
			c2.11,0.27,4.55,0.4,7.06,0.4c0.94,0,1.88-0.02,2.8-0.06c0.31-0.01,0.61-0.03,0.91-0.05c2.35-0.14,4.93-0.41,6.95-0.95
			c0.03,0.02,0.07,0.04,0.1,0.05h0c0.12,0.05,0.24,0.1,0.37,0.16h0l0,0c0.22,0.08,0.47,0.17,0.74,0.25h0l0,0
			c0.26,0.08,0.54,0.15,0.84,0.22h0c0.14,0.03,0.29,0.07,0.45,0.1c0.16,0.03,0.32,0.06,0.48,0.1h0.01c0.08,0.01,0.16,0.03,0.22,0.04
			l0.01,0h0.01c0.16,0.03,0.31,0.05,0.46,0.08c0.28,0.05,0.56,0.09,0.86,0.13h0c0.17,0.02,0.34,0.05,0.52,0.07
			c0.97,0.12,2.01,0.22,3.09,0.3c0.19,0.01,0.39,0.03,0.59,0.04h0.01c0.12,0,0.23,0.01,0.34,0.02h0.01c0.19,0.01,0.4,0.02,0.61,0.03
			c1.21,0.05,2.46,0.08,3.71,0.08c0.48,0,0.96,0,1.45-0.01c0.14,0,0.27,0,0.39,0h0.02c0.25-0.01,0.5-0.01,0.76-0.02
			c0.14,0,0.27-0.01,0.4-0.01c0.11,0,0.22-0.01,0.33-0.01c0.11,0,0.22-0.01,0.33-0.01c0.19-0.01,0.4-0.02,0.6-0.03
			c0.16-0.01,0.31-0.02,0.45-0.02h0.02c0.18-0.01,0.36-0.02,0.55-0.04c0.53-0.04,1.04-0.08,1.54-0.13c0,0,0,0,0,0c0,0,0,0,0,0
			c0.1-0.01,0.19-0.02,0.29-0.03h0c1.23-0.12,2.37-0.28,3.36-0.47c0.13-0.02,0.24-0.05,0.36-0.07l0.02,0.15l0.5-0.09
			c0.01,0,0.1-0.02,0.26-0.05c0.41,0.2,4.45,2.12,10.03,2.13c2.17,0,4.58-0.3,7.08-1.1c4.62-1.49,7.86-4.02,9.95-6.17
			c2.09-2.16,3.03-3.94,3.05-3.97l0.19-0.38L117.34,113.15z M99.01,103.17c1.09-0.47,2.03-0.77,2.7-0.95
			c0.21-0.05,0.4-0.1,0.56-0.13c0.04,0.31,0.07,0.76,0.07,1.34c0,1.85-0.36,4.92-2.23,8.37l-0.28,0.5
			c-0.11,0.04-0.21,0.07-0.32,0.11c0,0,0,0-0.01,0c-0.12,0.04-0.24,0.08-0.36,0.12l0,0c-0.26,0.1-0.53,0.2-0.77,0.3h0
			c-0.05,0.02-0.11,0.05-0.18,0.07c0,0,0,0-0.01,0c-0.24,0.1-0.47,0.2-0.71,0.31v0c-0.27,0.12-0.53,0.25-0.77,0.37
			c-0.25,0.12-0.5,0.25-0.74,0.39l-0.01,0l-0.01,0.01c0,0,0,0,0,0l-0.01,0.01c-0.04,0.02-0.1,0.05-0.17,0.09c0,0,0,0,0,0
			c0,0-0.01,0-0.01,0.01c-0.13,0.06-0.26,0.14-0.39,0.22h0l-0.09,0.05l0,0l-0.01,0.01l-0.01,0c-0.23,0.14-0.45,0.28-0.66,0.41
			c-0.22,0.15-0.43,0.29-0.64,0.44c-0.44,0.31-0.86,0.62-1.26,0.95l0,0c-0.08,0.06-0.16,0.13-0.23,0.19l0,0
			c-0.08,0.07-0.15,0.13-0.22,0.19v0h0c-0.18,0.16-0.37,0.31-0.55,0.48l-0.45,0.43h0c-0.16,0.15-0.3,0.3-0.45,0.45h0
			c-0.1,0.11-0.21,0.22-0.31,0.32c0.06-0.13,0.13-0.26,0.19-0.4c0.02-0.04,0.03-0.07,0.05-0.11c0.07-0.15,0.13-0.3,0.19-0.45
			c0.04-0.09,0.08-0.18,0.12-0.27c0.03-0.09,0.07-0.19,0.11-0.28c0.49-1.3,0.83-2.8,0.85-4.47c0-0.07,0.01-0.14,0.01-0.2
			c0-0.3-0.01-0.6-0.03-0.89c0-0.12-0.02-0.23-0.03-0.34c-0.01-0.18-0.03-0.35-0.05-0.52c-0.01-0.11-0.03-0.23-0.05-0.34
			c-0.02-0.17-0.05-0.35-0.08-0.52c-0.01-0.04-0.01-0.08-0.02-0.13c0-0.03-0.01-0.06-0.02-0.1c-0.02-0.13-0.05-0.26-0.08-0.39
			l0.27-0.33c0.04-0.05,0.08-0.1,0.13-0.15c0.86-1.04,1.79-1.91,2.73-2.65c0.45-0.36,0.91-0.68,1.36-0.97
			C97.1,104.09,98.1,103.57,99.01,103.17z M88.56,99.55c0,1.08-0.04,2.07-0.12,3.01c-0.42-0.5-0.71-0.78-0.71-0.78l-0.17-0.16
			l-0.17,0.15c-0.01,0.01-1.19,1.05-2.38,2.87c-0.73,1.11-1.45,2.53-1.9,4.18c-0.07,0.26-0.14,0.52-0.19,0.79
			c-0.06,0.26-0.1,0.52-0.14,0.79c-0.09,0.59-0.14,1.2-0.14,1.83c0,0.39,0.02,0.76,0.05,1.13c-1.97,0.97-4.33,1.29-6.89,1.29
			c-1.78,0-3.47-0.15-5-0.55c-1.91-0.52-3.57-1.45-4.86-3.07c-0.25-0.31-0.49-0.65-0.72-1.02c-0.09-0.15-0.18-0.3-0.26-0.45
			c-0.27-0.5-0.52-1.05-0.74-1.65c-0.15-0.42-0.29-0.86-0.41-1.34c-0.12-0.44-0.22-0.89-0.31-1.37c-0.31-1.6-0.47-3.47-0.47-5.64
			c0-4.05,0.71-7.11,1.93-9.38c0.28-0.53,0.59-1.02,0.93-1.46c0.01-0.02,0.03-0.04,0.04-0.05c1.77-2.31,4.23-3.54,7.06-4
			c0.4-0.06,0.82-0.11,1.24-0.15c0.28-0.02,0.56-0.04,0.84-0.05c0.24-0.01,0.48-0.01,0.72-0.01c0.92,0,1.81,0.05,2.66,0.15
			c2.91,0.35,5.4,1.38,7.2,3.66c1.66,2.1,2.72,5.29,2.87,10.04c0.01,0.17,0.01,0.35,0.01,0.53C88.56,99.06,88.56,99.3,88.56,99.55z
			 M69.62,75.63c-0.42-0.13-0.75-0.28-0.96-0.44c-0.21-0.16-0.29-0.29-0.29-0.42v-1.4l0.01-0.67l0.01-0.52l0.21-9.38
			c0.09,0.05,0.19,0.1,0.3,0.15c0.72,0.31,1.75,0.53,2.94,0.68c1.2,0.15,2.56,0.22,3.91,0.22c1.81,0,3.62-0.13,5.05-0.4
			c0.71-0.13,1.33-0.3,1.81-0.5c0.11-0.05,0.21-0.1,0.31-0.15l0.21,9.11l0.01,0.52l0.01,0.4v1.93c0,0.13-0.07,0.26-0.29,0.42
			c-0.32,0.24-0.92,0.45-1.67,0.63c-0.76,0.17-1.69,0.3-2.7,0.38c-0.87,0.07-1.8,0.1-2.72,0.1c-0.24,0-0.47-0.01-0.71-0.01
			c-0.7-0.01-1.4-0.04-2.06-0.09C71.66,76.08,70.46,75.89,69.62,75.63z M65.95,72.74l1.46-0.02l-0.01,0.52
			c-0.5,0.2-0.99,0.43-1.45,0.7V72.74z M72.05,61.99c0.16,0.18,0.37,0.28,0.61,0.37c0.37,0.14,0.84,0.23,1.37,0.29
			c0.53,0.06,1.12,0.09,1.7,0.09c0.9,0,1.78-0.07,2.48-0.21c0.35-0.08,0.65-0.17,0.89-0.3c0.12-0.07,0.23-0.15,0.32-0.25
			c0.09-0.1,0.15-0.24,0.15-0.39v-0.53c0.89,0.12,1.68,0.28,2.26,0.48c0.34,0.12,0.6,0.25,0.78,0.36c0.18,0.12,0.26,0.23,0.28,0.29
			l0.01,0.04c-0.12,0.1-0.29,0.2-0.5,0.29c-0.63,0.27-1.63,0.5-2.79,0.64c-1.17,0.15-2.51,0.22-3.85,0.22
			c-1.79,0-3.57-0.13-4.95-0.39c-0.69-0.13-1.27-0.29-1.69-0.47c-0.21-0.09-0.38-0.19-0.5-0.29l0.01-0.04v0c0-0.01,0-0.01,0.01-0.02
			c0.03-0.06,0.11-0.15,0.26-0.26c0.26-0.18,0.72-0.37,1.31-0.52c0.49-0.13,1.07-0.24,1.7-0.32v0.52
			C71.9,61.75,71.97,61.88,72.05,61.99z M72.58,61.59V49.61c0-0.63,0.21-1.21,0.57-1.69c0.12-0.14,0.25-0.26,0.39-0.37v0
			c0.57-0.45,1.34-0.73,2.2-0.73c0.94,0,1.78,0.34,2.38,0.88c0.07,0.06,0.13,0.13,0.19,0.19c0.37,0.48,0.59,1.07,0.59,1.72v11.97
			l0,0.01c-0.02,0.03-0.14,0.11-0.32,0.18c-0.28,0.1-0.72,0.2-1.21,0.25c-0.5,0.05-1.06,0.09-1.63,0.09c-0.85,0-1.71-0.07-2.33-0.2
			c-0.31-0.06-0.56-0.15-0.7-0.23C72.64,61.65,72.59,61.61,72.58,61.59L72.58,61.59z M78.26,76.66v7.45
			c-0.15-0.02-0.3-0.03-0.45-0.04c-0.66-0.05-1.32-0.09-2.01-0.09c-0.89,0-1.75,0.06-2.59,0.18v-7.51c0.18,0.01,0.36,0.02,0.53,0.03
			c0.48,0.03,0.95,0.04,1.45,0.05c0.19,0,0.37,0.01,0.57,0.01C76.61,76.75,77.45,76.72,78.26,76.66z M89.04,98.82
			c0-0.18,0-0.35-0.01-0.53c-0.16-4.82-1.23-8.11-2.97-10.32c-1.84-2.34-4.42-3.42-7.31-3.81v-7.54c1.28-0.11,2.43-0.3,3.3-0.56
			c0.46-0.15,0.83-0.31,1.12-0.51c0.28-0.2,0.48-0.46,0.48-0.78v-0.74c3.51,1.33,5.98,4.53,5.98,8.29V98.3v0.53v5.36
			c-0.26-0.41-0.51-0.77-0.74-1.08c0.12-1.1,0.18-2.28,0.18-3.56C89.05,99.3,89.05,99.06,89.04,98.82z M90.59,98.85
			c1.63,0.03,3.26,0.07,4.89,0.12c0.14,0,0.24-0.11,0.24-0.25c0-0.14-0.1-0.27-0.23-0.27c-1.63-0.05-3.27-0.1-4.9-0.13v-16
			c0-4.09-2.66-7.59-6.46-9.08l-0.02-0.82l8.96-0.16c0.13,0,0.23-0.12,0.23-0.27c0-0.14-0.09-0.25-0.24-0.25L84.1,71.9l-0.22-9.64
			c0-0.13-0.03-0.25-0.06-0.35c-0.12-0.31-0.35-0.55-0.63-0.74c-0.42-0.28-0.98-0.49-1.64-0.66c-0.47-0.12-0.99-0.22-1.54-0.3V49.61
			c0-1-0.46-1.92-1.18-2.58c-0.78-0.71-1.87-1.15-3.08-1.15c-1.09,0-2.09,0.36-2.84,0.95c-0.87,0.67-1.42,1.67-1.42,2.78v10.6
			c-0.81,0.12-1.54,0.28-2.15,0.49c-0.39,0.13-0.73,0.29-1,0.48c-0.28,0.19-0.51,0.42-0.62,0.73c-0.03,0.1-0.06,0.22-0.06,0.35
			l-0.21,9.94l-1.47,0.02v-6.07c0-0.72-0.05-1.42-0.15-2.1c-0.04-0.29-0.08-0.53-0.13-0.75c-0.05-0.24-0.1-0.47-0.17-0.7
			c1.45-2.35,2.75-5.06,1.46-7.66c-0.44-0.9-1.13-1.6-1.81-2.28c-0.23-0.24-0.47-0.48-0.69-0.72c-2.56-2.85-3.26-6.88-1.77-10.26
			c1.46-3.33,7.39-6.42,8.37-6.92c1.76,1.04,4.09,1.37,6.37,1.37c4.1,0,8.05-1.07,8.32-1.15c0.12-0.04,0.22-0.1,0.31-0.2
			c0.72,0.28,2.01,0.79,2.63,1.15c3.34,1.94,7.06,5.47,5.75,11.29c-0.58,2.61-1.77,4.05-3.04,5.42c-3.32,3.57-1.6,6.39-0.36,8.45
			l0.1,0.17c0.3,0.5,0.63,0.99,0.96,1.5c1.62,2.46,3.45,5.25,4.41,11.12c1.78,10.9,2.74,22.16-2.12,30.89
			c-0.93,0.7-1.87,1.54-2.76,2.52c-0.31-0.89-0.74-1.72-1.07-2.39V98.85z M81.49,24.14c1.66,0,3.17,1.64,3.63,3.89
			c0.28,1.41,0.08,3.71-0.08,5.03c-0.02,0.2-0.04,0.36-0.07,0.51c-0.3,0.07-0.74,0.18-1.28,0.29h0c-2.55,0.52-7.36,1.24-10.68,0.1
			c-0.56-0.2-1.08-0.44-1.54-0.75v-0.02c-0.17-1.66-0.32-3.36,0-4.96c0.28-1.4,1.1-3.11,2.57-3.75
			C74.82,24.14,78.52,24.14,81.49,24.14z M62.93,59.27c0.07,0.1,0.14,0.2,0.21,0.3c0.45,0.7,0.83,1.45,1.12,2.27
			c0.11,0.3,0.2,0.6,0.28,0.92c0.07,0.23,0.12,0.47,0.17,0.71h0v0.02c-0.24,0.07-0.5,0.13-0.76,0.18c-0.3,0.06-0.62,0.11-0.96,0.15
			c-0.36,0.04-0.73,0.05-1.13,0.05c-2.22,0-5.12-0.6-8.77-2.47c0.01-0.05,0.02-0.11,0.01-0.17c0-0.25-0.07-0.5-0.2-0.71
			c1.01-0.9,2.96-2.21,5.75-2.21C59.89,58.33,61.32,58.59,62.93,59.27z M58.62,73.98C58.62,73.98,58.62,73.98,58.62,73.98
			c-0.11,0.42-0.22,0.83-0.31,1.23c-0.64-0.13-1.71-0.5-2.84-1.65c-1.57-1.6-3.26-4.73-3.92-10.82c0.19,0,0.36-0.04,0.52-0.1h0.04
			l0.06-0.03c0.98,0.06,2.5,0.39,3.83,1.79c1.41,1.48,2.62,4.2,2.63,9.18C58.62,73.71,58.62,73.84,58.62,73.98z M50.71,58.72
			c-0.21-0.51-0.57-1.07-1.16-1.65c0.41,0.03,0.83,0.05,1.26,0.06c-0.07,0.52-0.1,1.01-0.1,1.45C50.7,58.63,50.71,58.67,50.71,58.72
			z M50.92,65.12c0,1.93-0.73,3.78-1.79,5.37c-0.94,1.42-2.14,2.62-3.27,3.47c-0.13-0.52-0.32-1.49-0.32-2.84
			c0-1.29,0.17-2.91,0.72-4.79c0.61-2.1,1.49-3.18,2.25-3.75c0.65-0.48,1.23-0.6,1.57-0.62c0.06,0.1,0.13,0.2,0.2,0.28l0.06,0.05
			C50.75,63.25,50.92,64.19,50.92,65.12z M50.92,61.74L50.92,61.74c-0.07-0.07-0.12-0.15-0.15-0.22l0-0.01l0-0.01
			c-0.03-0.07-0.05-0.15-0.05-0.25l0.02-0.15l0.01-0.05v-0.01c0.02-0.08,0.06-0.16,0.14-0.24l0.01-0.01
			c0.09-0.11,0.23-0.2,0.38-0.23l0.02-0.01l0.03-0.01c0.03-0.01,0.09-0.02,0.17-0.02l0.12,0.01l0.01,0l0.02,0
			c0.19,0.03,0.33,0.11,0.42,0.22l0.01,0.01l0.01,0.01c0.13,0.13,0.19,0.29,0.19,0.47c0,0.08-0.01,0.15-0.04,0.21v0l0,0.01
			c-0.06,0.2-0.21,0.35-0.4,0.44l-0.01,0c-0.1,0.05-0.21,0.07-0.33,0.07c-0.09,0-0.17-0.01-0.22-0.04l-0.02,0l-0.02,0
			C51.12,61.9,51.01,61.83,50.92,61.74z M51.38,58.58c0-0.43,0.03-0.92,0.11-1.44c0.01,0,0.02,0,0.04,0h0.07
			c0.79,0,1.57-0.03,2.32-0.09c0.25-0.02,0.5-0.04,0.74-0.07c0.72-0.08,1.4-0.19,1.98-0.33c0.05-0.01,0.09-0.02,0.14-0.04
			c-1.19,1.1-2.8,2.19-4.99,3.16c-0.1-0.02-0.19-0.03-0.28-0.03h-0.04C51.42,59.45,51.38,59.05,51.38,58.58z M58.74,55.64
			c1.25,0.66,2.37,1.51,3.31,2.55c-1.23-0.4-2.36-0.56-3.39-0.56c-0.9,0-1.71,0.12-2.44,0.32c0.8-0.62,1.46-1.25,2.01-1.87
			c0.01-0.01,0.03-0.01,0.05-0.02C58.46,55.93,58.62,55.8,58.74,55.64z M45.73,44.22l0.03-0.39l0.88-10.92
			c0.04-0.01,0.09-0.03,0.17-0.05c0.36-0.08,1.06-0.15,1.92-0.19c0.85-0.05,1.86-0.07,2.88-0.07c1.29,0,2.59,0.04,3.55,0.11
			c0.48,0.04,0.88,0.08,1.15,0.13c0.12,0.02,0.2,0.05,0.26,0.07l0.88,10.92l0.07,0.85c0,0.01,0,0.02-0.01,0.04
			c-0.01,0.02-0.02,0.04-0.05,0.07c-0.05,0.05-0.14,0.1-0.27,0.16c-0.12,0.05-0.28,0.11-0.46,0.16c-1.1,0.32-3.12,0.49-5.12,0.49
			c-0.96,0-1.91-0.04-2.78-0.11c-0.51-0.05-0.99-0.1-1.42-0.17c-0.28-0.05-0.55-0.1-0.77-0.15c-0.22-0.06-0.42-0.12-0.57-0.19
			c-0.15-0.06-0.26-0.13-0.32-0.19c-0.06-0.05-0.06-0.08-0.06-0.1L45.73,44.22z M44.76,45.18c0-0.13,0.05-0.25,0.18-0.38
			c0.07-0.06,0.16-0.13,0.26-0.2l0,0.06v0.02c0,0.17,0.09,0.32,0.21,0.43c0.21,0.2,0.53,0.32,0.93,0.44
			c0.3,0.09,0.65,0.16,1.05,0.22c1.17,0.19,2.69,0.28,4.22,0.28c1.55,0,3.1-0.1,4.27-0.29c0.59-0.1,1.09-0.22,1.46-0.38
			c0.09-0.04,0.18-0.08,0.25-0.13c0.08-0.05,0.15-0.1,0.2-0.15c0.12-0.11,0.21-0.26,0.21-0.43v-0.01l0-0.01l0-0.06
			c0.11,0.06,0.19,0.13,0.26,0.2c0.14,0.14,0.18,0.25,0.19,0.38v0.05c0,0.05-0.02,0.11-0.1,0.2c-0.13,0.14-0.43,0.3-0.85,0.43
			c-0.48,0.15-1.1,0.28-1.82,0.38c-0.48,0.07-0.99,0.12-1.54,0.16c-0.27,0.02-0.55,0.04-0.83,0.05c-0.56,0.03-1.14,0.04-1.71,0.04
			c-0.69,0-1.38-0.02-2.05-0.06c-0.36-0.02-0.7-0.05-1.04-0.08c-0.08,0-0.17-0.01-0.24-0.02c-0.55-0.05-1.05-0.12-1.5-0.21
			c-0.12-0.02-0.22-0.05-0.33-0.07c-0.19-0.04-0.38-0.09-0.55-0.13c-0.26-0.08-0.48-0.16-0.66-0.24c-0.18-0.09-0.3-0.17-0.38-0.25
			c-0.07-0.08-0.09-0.14-0.09-0.2V45.18z M44.76,45.94c0.21,0.14,0.47,0.25,0.79,0.35c1.38,0.44,3.71,0.65,6.06,0.65
			c0.67,0,1.33-0.02,1.98-0.05c0.43-0.02,0.85-0.05,1.26-0.09c0.6-0.06,1.17-0.14,1.68-0.23c0.34-0.06,0.65-0.13,0.93-0.21
			c0.28-0.08,0.53-0.17,0.74-0.27c0.09-0.05,0.18-0.1,0.26-0.15v9.16c0,0.05-0.01,0.1-0.03,0.14l0,0.01v0
			c-0.05,0.13-0.19,0.28-0.42,0.42c-0.23,0.15-0.56,0.28-0.95,0.4c-0.5,0.15-1.1,0.28-1.76,0.37c-0.66,0.1-1.39,0.16-2.15,0.2
			c-0.5,0.03-1.02,0.04-1.53,0.04h-0.07c-0.23,0-0.45,0-0.68-0.01c-0.52-0.01-1.03-0.04-1.53-0.08c-0.42-0.03-0.81-0.07-1.19-0.13
			c-0.79-0.1-1.5-0.25-2.06-0.43c-0.56-0.18-0.96-0.4-1.15-0.61l0,0c-0.05-0.05-0.09-0.11-0.12-0.17l0-0.01
			c-0.01-0.04-0.02-0.08-0.02-0.14V45.94z M43,56.54c0.37-0.26,0.74-0.5,1.13-0.71l0,0c0.11-0.06,0.22-0.12,0.34-0.18
			c0.02,0.03,0.04,0.05,0.06,0.08h0v0c0.29,0.32,0.76,0.55,1.36,0.75c0.6,0.19,1.33,0.34,2.14,0.45c0.13,0.02,0.26,0.03,0.39,0.04
			c0.74,0.59,1.2,1.13,1.48,1.63c0.3,0.55,0.38,1.02,0.38,1.39c0,0.11-0.01,0.21-0.02,0.3l-0.01,0.01v0l0,0.01
			c-0.12,0.13-0.2,0.29-0.26,0.46c-0.34,0.11-0.96,0.25-1.81,0.26c-0.68,0-1.49-0.1-2.43-0.39c-0.65-0.2-1.16-0.59-1.57-1.08
			c-0.61-0.73-0.97-1.69-1.17-2.46c-0.05-0.17-0.08-0.33-0.11-0.48C42.94,56.59,42.97,56.57,43,56.54z M38.24,114.8
			c0.65,0.85,1.29,1.84,1.88,3.01c-0.02,0.09-0.03,0.18-0.03,0.26v0.05c-0.32,0.03-0.74,0.07-1.25,0.07c-0.19,0-0.39-0.01-0.6-0.02
			V114.8z M43.17,117.46c0.06-0.91,0.42-2.33,1.92-3.58c1.58-1.31,4.5-2.45,9.83-2.45c0.56,0,1.16,0.01,1.78,0.04
			c-0.07,0.53-0.38,1.68-1.8,2.9c-1.71,1.46-5.06,3.04-11.58,3.66c-0.01-0.17-0.05-0.33-0.11-0.48v-0.03L43.17,117.46z M38.57,111.4
			c0-2.17,0.97-4.93,4.08-8.24c0.57,0.59,1.88,2.27,1.88,5.25c0,2.06-0.65,4.77-2.64,8.18c-0.06-0.01-0.12-0.01-0.19-0.01
			c-0.27,0-0.54,0.07-0.77,0.19C39.97,115.82,38.57,114,38.57,111.4z M38.24,118.81c0.2,0.01,0.41,0.02,0.6,0.02
			c0.05,0,0.1,0,0.15,0c-0.24,0.09-0.5,0.21-0.75,0.35V118.81z M41.46,121.23c-0.76-0.19-1.42-0.4-1.93-0.65
			c-0.53-0.24-0.9-0.51-1.1-0.78c0.15-0.09,0.29-0.18,0.43-0.24c0.58-0.28,1.09-0.36,1.48-0.36c0.12,0,0.23,0,0.33,0.02l0.01,0.01
			l0,0l0.01,0c0.14,0.11,0.31,0.19,0.5,0.25c0.11,0.31,0.27,0.89,0.27,1.68C41.47,121.19,41.46,121.22,41.46,121.23z M41.97,118.76
			L41.97,118.76c-0.09,0.03-0.18,0.05-0.27,0.05l-0.16-0.02l-0.06-0.02h-0.01c-0.09-0.02-0.18-0.06-0.26-0.12l0,0l0,0
			c-0.12-0.09-0.21-0.21-0.25-0.35l-0.01-0.03l-0.01-0.02c-0.01-0.04-0.02-0.09-0.02-0.16l0.01-0.1l0-0.02v-0.02
			c0.03-0.17,0.12-0.3,0.24-0.4l0.01-0.01l0.01-0.01c0.14-0.11,0.31-0.18,0.51-0.18c0.09,0,0.16,0.01,0.23,0.04h0l0.01,0
			c0.21,0.06,0.37,0.2,0.47,0.38l0,0.01c0.04,0.1,0.07,0.2,0.07,0.3c0,0.09-0.01,0.16-0.04,0.21l0,0.02l0,0.02
			c-0.04,0.11-0.11,0.22-0.22,0.3C42.15,118.69,42.06,118.74,41.97,118.76L41.97,118.76z M42.18,121.4L42.18,121.4
			c-0.02,0-0.03-0.01-0.04-0.01c0-0.07,0.01-0.15,0.01-0.21c0-0.24-0.01-0.46-0.03-0.66c0.12,0.24,0.27,0.49,0.49,0.75
			c0.07,0.09,0.16,0.18,0.25,0.27C42.62,121.49,42.39,121.44,42.18,121.4z M51.61,122.2c-2.42,0-4.83-0.13-6.94-0.4
			c-0.18-0.02-0.36-0.05-0.53-0.07c-0.45-0.3-0.77-0.6-1.01-0.88c-0.51-0.6-0.64-1.15-0.67-1.47c0.11-0.05,0.21-0.12,0.3-0.19
			l0.06-0.06c1.02-0.36,2.04-0.52,3.03-0.52c2.07,0,4.05,0.69,5.75,1.67c0.95,0.55,1.81,1.2,2.54,1.86
			C53.31,122.18,52.46,122.2,51.61,122.2z M55.26,122.1c-0.07,0-0.14,0-0.21,0.01c-0.85-0.85-1.9-1.67-3.09-2.36
			c-1.32-0.76-2.81-1.36-4.4-1.62c4-0.8,6.4-2.02,7.83-3.25c1.92-1.65,2.06-3.27,2.06-3.67v-0.1l-0.02-0.3l-0.32-0.01
			c-0.77-0.04-1.49-0.06-2.19-0.06c-5.43,0-8.55,1.16-10.32,2.62c-0.19,0.16-0.37,0.33-0.54,0.5c0.88-2.12,1.21-3.95,1.21-5.47
			c0-4.1-2.36-6-2.41-6.03l-0.28-0.22l-0.24,0.25c-2.27,2.36-3.53,4.49-4.11,6.37V66.15c0-4.03,1.63-7.04,4.07-9.07
			c0.07,0.32,0.18,0.67,0.32,1.05c0.23,0.61,0.56,1.25,1.02,1.82s1.09,1.05,1.89,1.3c1.01,0.31,1.9,0.42,2.64,0.42
			c0.26,0,0.49-0.02,0.71-0.04c-0.25,0.11-0.52,0.25-0.79,0.46c-0.91,0.67-1.85,1.89-2.49,4.08c-0.57,1.94-0.74,3.62-0.74,4.96
			c0,2.18,0.47,3.45,0.48,3.48l0.15,0.4l0.37-0.25c1.31-0.9,2.74-2.27,3.84-3.93c0.81-1.23,1.45-2.62,1.73-4.11
			c0.85,3.74,2.16,5.97,3.48,7.31c1.24,1.26,2.46,1.7,3.23,1.85c0.33,0.07,0.57,0.08,0.7,0.08h0.02l0.08,0l0.32-0.02l0.02-0.3
			c0.03-0.55,0.05-1.07,0.05-1.57c0-0.16,0-0.32,0-0.47c0-0.65-0.02-1.27-0.06-1.85c-0.26-3.95-1.39-6.34-2.75-7.78
			c-0.18-0.19-0.36-0.35-0.54-0.5c2.28,0.81,4.23,1.13,5.86,1.13c0.24,0,0.47,0,0.69-0.02c0.32-0.01,0.62-0.05,0.91-0.09
			c0.34-0.04,0.66-0.1,0.96-0.17c0.15-0.04,0.28-0.07,0.42-0.1c0.09,0.62,0.14,1.27,0.14,1.95v6.09v0.52v1.81
			c-0.49,0.35-0.93,0.75-1.35,1.17c-0.17,0.17-0.33,0.35-0.48,0.54c-1.4,1.66-2.23,3.76-2.23,6.05v18.26v1.82v1.6v16.49
			c0,0.32,0.14,0.61,0.35,0.85C59.6,121.72,57.5,121.97,55.26,122.1z M86.48,121.95c-0.13,0.03-0.26,0.05-0.39,0.08
			c-0.96,0.19-2.07,0.34-3.27,0.46c-0.1,0.01-0.19,0.01-0.29,0.02l0,0h0c-0.49,0.05-1,0.09-1.52,0.12h0
			c-0.17,0.01-0.35,0.02-0.54,0.04c-0.16,0-0.31,0.01-0.46,0.02h0c-0.19,0.01-0.38,0.02-0.58,0.03c-0.1,0-0.21,0.01-0.33,0.01
			c-0.11,0-0.21,0.01-0.33,0.01c-0.13,0-0.27,0.01-0.4,0.01c-0.24,0.01-0.5,0.01-0.75,0.02c-0.14,0-0.27,0-0.38,0h-0.01
			c-0.47,0.01-0.95,0.01-1.43,0.01c-1.23,0-2.46-0.03-3.66-0.08c-0.2-0.01-0.41-0.02-0.61-0.03c-0.13-0.01-0.24-0.01-0.35-0.02
			c-0.2-0.01-0.4-0.03-0.59-0.04c-1.06-0.07-2.08-0.16-3.02-0.29c-0.18-0.02-0.35-0.05-0.51-0.07c-0.29-0.04-0.56-0.08-0.83-0.12
			c-0.16-0.03-0.31-0.05-0.45-0.08c-0.09-0.02-0.17-0.03-0.23-0.05c-0.16-0.03-0.32-0.06-0.47-0.1h0c-0.14-0.03-0.28-0.06-0.43-0.1
			c-0.28-0.07-0.55-0.14-0.78-0.21h0l0,0c-0.04-0.01-0.09-0.03-0.14-0.04c-0.19-0.05-0.36-0.11-0.53-0.18
			c-0.12-0.05-0.22-0.1-0.33-0.14c-0.16-0.07-0.3-0.15-0.42-0.22h0l0,0c-0.04-0.02-0.1-0.06-0.17-0.11
			c-0.05-0.04-0.09-0.08-0.13-0.11c-0.15-0.15-0.19-0.25-0.19-0.33v-0.76c0,0,0,0,0.01-0.01c0.31-0.3,0.95-0.61,1.83-0.87
			c0.37-0.11,0.79-0.21,1.24-0.31c0.31-0.07,0.63-0.13,0.97-0.19c2.66-0.45,6.24-0.69,9.81-0.69v-0.45c-3.55,0-7.11,0.23-9.81,0.68
			c-0.03,0-0.07,0.01-0.1,0.02c-0.3,0.05-0.59,0.11-0.87,0.17c-0.97,0.2-1.8,0.44-2.44,0.72c-0.24,0.11-0.46,0.22-0.64,0.35v-13.62
			v-1.29v-1.48V82.32c0-2.35,0.97-4.49,2.56-6.08c0.17-0.17,0.35-0.33,0.53-0.49c0.02-0.01,0.03-0.03,0.05-0.05
			c0.29-0.25,0.6-0.48,0.92-0.69c0.59-0.4,1.24-0.73,1.93-0.99v0.74c0,0.31,0.19,0.58,0.47,0.78c0.07,0.05,0.16,0.1,0.24,0.15h0
			c0.37,0.21,0.85,0.37,1.43,0.51c0.05,0.01,0.11,0.03,0.17,0.04c0.73,0.16,1.6,0.29,2.53,0.37v7.62c-2.65,0.46-5.01,1.6-6.78,3.66
			c-0.16,0.18-0.3,0.35-0.44,0.55c-0.19,0.25-0.37,0.51-0.53,0.78c-1.53,2.42-2.42,5.78-2.42,10.32c0,1.82,0.11,3.43,0.33,4.86
			c0.08,0.52,0.18,1.02,0.28,1.5c0.11,0.5,0.23,0.96,0.37,1.4v0c0.38,1.23,0.86,2.27,1.44,3.16c0.3,0.47,0.62,0.89,0.97,1.27
			c0.16,0.17,0.32,0.34,0.49,0.5c1.21,1.13,2.65,1.85,4.24,2.28s3.32,0.57,5.13,0.57c2.53,0,4.9-0.3,6.94-1.26
			C83.24,117.99,85.49,120.87,86.48,121.95L86.48,121.95z M87.79,121.27c0,0,0,0.01,0,0.01c-0.01,0.01-0.02,0.02-0.03,0.04
			c-0.18,0.2-0.34,0.36-0.47,0.49c-0.07-0.05-0.17-0.07-0.26-0.07c-0.03,0-0.07,0-0.1,0.01c-0.93-1-3.34-3.96-3.73-8.27v0
			c-0.04-0.4-0.06-0.81-0.06-1.25c0-0.64,0.05-1.26,0.15-1.85c0.03-0.27,0.09-0.53,0.15-0.79c0.05-0.27,0.12-0.54,0.2-0.8
			c0.44-1.54,1.12-2.86,1.81-3.92c0.57-0.89,1.15-1.59,1.58-2.06c0.21-0.24,0.39-0.41,0.52-0.54c0-0.01,0.01-0.01,0.02-0.02
			c0.18,0.19,0.5,0.54,0.88,1.05h0c0.37,0.48,0.78,1.1,1.19,1.84v0h0c0.09,0.16,0.18,0.32,0.26,0.49c0.35,0.7,0.69,1.5,0.95,2.38
			c0.07,0.21,0.13,0.42,0.18,0.64l0.01,0.05c0,0.03,0.01,0.05,0.02,0.08c0.05,0.22,0.1,0.44,0.15,0.66l0.01,0.1
			c0.15,0.8,0.24,1.66,0.24,2.57c0,2.46-0.71,4.54-1.57,6.16c-0.11,0.21-0.23,0.41-0.34,0.61c-0.18,0.3-0.36,0.58-0.53,0.84
			c-0.37,0.53-0.72,0.98-1.03,1.34C87.92,121.12,87.85,121.2,87.79,121.27z M113.57,117.29c-2.02,2.03-5.07,4.35-9.36,5.73
			c-2.39,0.77-4.68,1.05-6.76,1.05c-2.8,0-5.21-0.51-6.92-1.02c-0.85-0.26-1.53-0.51-1.99-0.7c-0.09-0.04-0.18-0.07-0.25-0.1
			c-0.09-0.04-0.17-0.08-0.23-0.1c0.07-0.13,0.17-0.29,0.29-0.48c0.05-0.08,0.11-0.17,0.17-0.26h0c0.05-0.08,0.11-0.16,0.17-0.25
			l0,0c0.18-0.25,0.37-0.52,0.6-0.82c0.11-0.15,0.23-0.3,0.37-0.46c0.19-0.24,0.4-0.49,0.63-0.74l0,0l0.04-0.04h0
			c0.11-0.12,0.22-0.25,0.34-0.38h0c0.13-0.14,0.27-0.28,0.41-0.43h0c0.15-0.15,0.29-0.29,0.45-0.44l0.45-0.42
			c0.17-0.15,0.35-0.3,0.53-0.46l0,0c0.08-0.07,0.15-0.13,0.22-0.19v0h0c0.07-0.06,0.15-0.12,0.22-0.18v0h0
			c0.38-0.31,0.8-0.63,1.23-0.93c0.2-0.15,0.41-0.28,0.63-0.43c0.19-0.13,0.41-0.26,0.62-0.39c0,0,0,0,0.01,0l0.01,0l0.01,0
			l0.12-0.07h0c0.02-0.01,0.04-0.03,0.06-0.04c0.09-0.05,0.18-0.1,0.27-0.15c0.01-0.01,0.03-0.01,0.04-0.02l0.01,0L96,114.5
			c0.05-0.03,0.11-0.06,0.18-0.1l0.01-0.01l0.02-0.01c0,0,0,0,0,0c0.23-0.13,0.46-0.25,0.69-0.36h0c0.25-0.13,0.5-0.25,0.76-0.37
			h0.01c0.22-0.11,0.45-0.2,0.69-0.3l0.01,0c0.05-0.02,0.1-0.05,0.16-0.07h0c0.25-0.1,0.51-0.2,0.76-0.3l0,0
			c0.11-0.04,0.23-0.08,0.35-0.12h0l0,0c0.17-0.06,0.33-0.12,0.5-0.17h0.01c0.07-0.03,0.14-0.05,0.22-0.07l0.1-0.03
			c2.23-0.68,4.42-0.93,6.41-0.93c1.59,0,3.07,0.16,4.37,0.39c1.01,0.21,1.91,0.46,2.68,0.72c0.91,0.3,1.63,0.6,2.12,0.82
			c0.13,0.06,0.24,0.11,0.34,0.16C116.04,114.37,115.11,115.75,113.57,117.29z"/>
		
			<radialGradient id="SVGID_00000135683277049370538140000015827857699639888820_" cx="48.6272" cy="32.2301" r="176.9144" gradientUnits="userSpaceOnUse">
			<stop  offset="0" style="stop-color:#00746D"/>
			<stop  offset="0.2174" style="stop-color:#00746D"/>
			<stop  offset="0.4101" style="stop-color:#09998F"/>
			<stop  offset="0.6425" style="stop-color:#16CABD"/>
			<stop  offset="1" style="stop-color:#16CABD"/>
		</radialGradient>
		<path style="fill:url(#SVGID_00000135683277049370538140000015827857699639888820_);" d="M97.79,117.4
			c-4.42,1.83-7.32,3.77-9.06,4.44c-0.1,0.04-0.15,0.15-0.11,0.25c0.04,0.1,0.16,0.14,0.27,0.1h0c1.83-0.71,4.68-2.63,9.07-4.45
			c4.38-1.81,10.28-3.51,18.11-3.75c0.11,0,0.2-0.09,0.2-0.2s-0.1-0.19-0.21-0.18C108.16,113.85,102.21,115.57,97.79,117.4z"/>
		
			<radialGradient id="SVGID_00000069376951923657966740000015080163448781622153_" cx="48.6272" cy="32.2301" r="176.9144" gradientUnits="userSpaceOnUse">
			<stop  offset="0" style="stop-color:#00746D"/>
			<stop  offset="0.2174" style="stop-color:#00746D"/>
			<stop  offset="0.4101" style="stop-color:#09998F"/>
			<stop  offset="0.6425" style="stop-color:#16CABD"/>
			<stop  offset="1" style="stop-color:#16CABD"/>
		</radialGradient>
		<path style="fill:url(#SVGID_00000069376951923657966740000015080163448781622153_);" d="M102.34,121.25c0,0-0.15,0.01-0.44,0.02
			c-0.28,0.01-0.69,0.03-1.19,0.03c-1.66,0-4.35-0.14-6.8-0.88c-0.11-0.03-0.22,0.02-0.26,0.12c-0.03,0.1,0.02,0.21,0.13,0.24h0
			c2.52,0.76,5.24,0.9,6.93,0.9c1.01,0,1.66-0.05,1.66-0.05c0.11-0.01,0.2-0.1,0.19-0.21C102.55,121.32,102.45,121.25,102.34,121.25
			z"/>
		
			<radialGradient id="SVGID_00000041289793475905461210000003774414140306751368_" cx="48.6272" cy="32.2301" r="176.9144" gradientUnits="userSpaceOnUse">
			<stop  offset="0" style="stop-color:#00746D"/>
			<stop  offset="0.2174" style="stop-color:#00746D"/>
			<stop  offset="0.4101" style="stop-color:#09998F"/>
			<stop  offset="0.6425" style="stop-color:#16CABD"/>
			<stop  offset="1" style="stop-color:#16CABD"/>
		</radialGradient>
		<path style="fill:url(#SVGID_00000041289793475905461210000003774414140306751368_);" d="M107.83,119.24
			c-0.44,0.1-1.18,0.14-2.05,0.14c-2.84,0-7.11-0.44-7.95-0.58c-0.11-0.02-0.22,0.05-0.24,0.16c-0.02,0.1,0.06,0.2,0.17,0.22h0
			c0.88,0.14,5.13,0.58,8.01,0.59c0.89,0,1.64-0.04,2.15-0.15c0.11-0.02,0.18-0.13,0.15-0.23
			C108.05,119.27,107.94,119.21,107.83,119.24z"/>
		
			<radialGradient id="SVGID_00000145044717189445673730000010172646992729493427_" cx="48.6272" cy="32.2301" r="176.9144" gradientUnits="userSpaceOnUse">
			<stop  offset="0" style="stop-color:#00746D"/>
			<stop  offset="0.2174" style="stop-color:#00746D"/>
			<stop  offset="0.4101" style="stop-color:#09998F"/>
			<stop  offset="0.6425" style="stop-color:#16CABD"/>
			<stop  offset="1" style="stop-color:#16CABD"/>
		</radialGradient>
		<path style="fill:url(#SVGID_00000145044717189445673730000010172646992729493427_);" d="M112.2,116.72
			c-0.09,0.02-0.37,0.06-0.75,0.1c-1.16,0.11-3.32,0.22-5.24,0.22c-0.99,0-1.91-0.03-2.59-0.1c-0.11-0.01-0.21,0.06-0.23,0.17
			c-0.01,0.1,0.07,0.2,0.18,0.21h0c0.71,0.08,1.65,0.11,2.64,0.11c1.29,0,2.68-0.05,3.82-0.12c0.57-0.03,1.07-0.07,1.46-0.11
			c0.4-0.04,0.67-0.07,0.82-0.11c0.11-0.03,0.17-0.13,0.14-0.24C112.42,116.75,112.31,116.69,112.2,116.72z"/>
		
			<radialGradient id="SVGID_00000067920142353386578330000011513627581460118917_" cx="48.0517" cy="56.9261" r="7.628283e-04" gradientUnits="userSpaceOnUse">
			<stop  offset="0" style="stop-color:#00746D"/>
			<stop  offset="0.2174" style="stop-color:#00746D"/>
			<stop  offset="0.4101" style="stop-color:#09998F"/>
			<stop  offset="0.6425" style="stop-color:#16CABD"/>
			<stop  offset="1" style="stop-color:#16CABD"/>
		</radialGradient>
		<polygon style="fill:url(#SVGID_00000067920142353386578330000011513627581460118917_);" points="48.05,56.93 48.05,56.93 
			48.05,56.93 		"/>
		
			<radialGradient id="SVGID_00000089539016738032238040000009855432481205545904_" cx="48.6272" cy="32.2301" r="176.9144" gradientUnits="userSpaceOnUse">
			<stop  offset="0" style="stop-color:#00746D"/>
			<stop  offset="0.2174" style="stop-color:#00746D"/>
			<stop  offset="0.4101" style="stop-color:#09998F"/>
			<stop  offset="0.6425" style="stop-color:#16CABD"/>
			<stop  offset="1" style="stop-color:#16CABD"/>
		</radialGradient>
		<path style="fill:url(#SVGID_00000089539016738032238040000009855432481205545904_);" d="M48.57,36.62c0.03-2.61-1.95-2.5-2.01,0
			C46.62,39.11,48.6,39.22,48.57,36.62z M47.65,34.99c0.63,0.14,0.74,1.1,0.76,1.63c-0.02,0.52-0.13,1.49-0.76,1.62
			C46.84,38,46.84,35.22,47.65,34.99z"/>
		
			<radialGradient id="SVGID_00000112608499424834969250000016583914213060674440_" cx="48.6272" cy="32.2301" r="176.9144" gradientUnits="userSpaceOnUse">
			<stop  offset="0" style="stop-color:#00746D"/>
			<stop  offset="0.2174" style="stop-color:#00746D"/>
			<stop  offset="0.4101" style="stop-color:#09998F"/>
			<stop  offset="0.6425" style="stop-color:#16CABD"/>
			<stop  offset="1" style="stop-color:#16CABD"/>
		</radialGradient>
		<path style="fill:url(#SVGID_00000112608499424834969250000016583914213060674440_);" d="M47.91,37.39c0.2,0,0.37-0.35,0.37-0.78
			c0-0.43-0.17-0.78-0.37-0.78c-0.2,0-0.37,0.35-0.37,0.78C47.55,37.04,47.71,37.39,47.91,37.39z"/>
		
			<radialGradient id="SVGID_00000088853783212442352190000005834938074208076682_" cx="48.6272" cy="32.2301" r="176.9144" gradientUnits="userSpaceOnUse">
			<stop  offset="0" style="stop-color:#00746D"/>
			<stop  offset="0.2174" style="stop-color:#00746D"/>
			<stop  offset="0.4101" style="stop-color:#09998F"/>
			<stop  offset="0.6425" style="stop-color:#16CABD"/>
			<stop  offset="1" style="stop-color:#16CABD"/>
		</radialGradient>
		<path style="fill:url(#SVGID_00000088853783212442352190000005834938074208076682_);" d="M39.82,65.08c-0.35,0-0.64,0.27-0.64,0.6
			v34.93c0,0.33,0.29,0.6,0.64,0.6c0.36,0,0.64-0.27,0.64-0.6V65.68C40.45,65.35,40.17,65.08,39.82,65.08z"/>
		
			<radialGradient id="SVGID_00000029725737241693075660000013559334846764272542_" cx="48.6272" cy="32.2301" r="176.9144" gradientUnits="userSpaceOnUse">
			<stop  offset="0" style="stop-color:#00746D"/>
			<stop  offset="0.2174" style="stop-color:#00746D"/>
			<stop  offset="0.4101" style="stop-color:#09998F"/>
			<stop  offset="0.6425" style="stop-color:#16CABD"/>
			<stop  offset="1" style="stop-color:#16CABD"/>
		</radialGradient>
		<path style="fill:url(#SVGID_00000029725737241693075660000013559334846764272542_);" d="M82.79,98.26
			c0.84-0.38,1.48-0.8,1.96-1.21c1.38-1.18,1.49-2.35,1.49-2.64l0-0.07l-0.01-0.22l-0.23-0.01c-0.55-0.03-1.08-0.04-1.57-0.04
			c-3.9,0-6.14,0.83-7.42,1.89c-0.14,0.12-0.27,0.24-0.38,0.36c0.63-1.53,0.87-2.84,0.87-3.93c0-2.95-1.69-4.31-1.73-4.33l-0.2-0.15
			l-0.18,0.18c-2.44,2.54-3.25,4.71-3.25,6.47c0,0.6,0.1,1.15,0.25,1.64c-0.86-0.98-1.77-1.65-2.62-2.11
			c-1.53-0.81-2.89-0.94-3.59-0.94c-0.08,0-0.15,0-0.21,0c-0.18,0-0.29,0.02-0.29,0.02l-0.25,0.03l0.05,0.23
			c0.13,0.65,0.29,1.23,0.5,1.75c0.6,1.62,1.52,2.7,2.53,3.41c0.09,0.06,0.18,0.12,0.27,0.18c0.18,0.11,0.37,0.22,0.55,0.31
			c1.29,0.65,2.6,0.8,3.56,0.8c0.04,0,0.07,0,0.11,0c-0.57,0.21-1.22,0.62-1.87,1.41c-0.4,0.47-0.65,0.94-0.81,1.38
			c-0.16,0.44-0.21,0.85-0.21,1.22c0,0.99,0.42,1.65,0.43,1.67l0.08,0.12l0.15-0.01c0.01,0,0.85-0.05,1.79-0.36
			c0.47-0.15,0.97-0.37,1.4-0.69c0.43-0.31,0.81-0.73,1-1.27c0.24-0.68,0.33-1.27,0.33-1.77c0-0.17-0.01-0.33-0.03-0.48
			c0.09,0.17,0.2,0.35,0.36,0.53c0.52,0.61,1.46,1.24,3.14,1.67c1.49,0.38,2.79,0.5,3.82,0.5c1.68,0,2.66-0.31,2.68-0.32l0.31-0.1
			l-0.19-0.25c-0.69-0.88-1.74-1.84-3.02-2.58c-0.95-0.55-2.02-0.98-3.16-1.16c0.88-0.17,1.65-0.37,2.32-0.6
			C81.94,98.62,82.39,98.45,82.79,98.26z M75.59,88.62c0.41,0.43,1.35,1.64,1.35,3.77c0,1.49-0.47,3.43-1.9,5.89
			c-0.04,0-0.09-0.01-0.13-0.01c-0.18,0-0.36,0.05-0.52,0.12c-0.01,0-0.03,0-0.04,0c-0.7-0.68-1.68-1.99-1.68-3.84
			C72.66,92.99,73.35,91.01,75.59,88.62z M72.85,99.43c-0.69,0-1.57-0.09-2.48-0.39c-0.36-0.12-0.73-0.28-1.08-0.48
			c-0.09-0.05-0.18-0.1-0.28-0.16c-1.29-0.82-2.47-2.26-3.03-4.81h0.18c0.64,0,1.91,0.11,3.35,0.88c1.27,0.68,2.66,1.86,3.87,3.95
			c0.1,0.16,0.19,0.34,0.28,0.51c0.04,0.08,0.08,0.15,0.12,0.23c-0.02,0.06-0.03,0.13-0.03,0.19c0,0.01,0,0.02,0,0.03
			C73.52,99.41,73.22,99.43,72.85,99.43z M74.45,103.21c-0.16,0.44-0.46,0.78-0.84,1.05c-0.56,0.41-1.3,0.65-1.89,0.79
			c-0.29,0.07-0.56,0.11-0.74,0.13c-0.05,0.01-0.09,0.01-0.13,0.02c-0.11-0.21-0.3-0.69-0.3-1.31c0-0.65,0.2-1.45,0.92-2.31
			c0.51-0.6,0.98-0.95,1.4-1.15c0.42-0.2,0.78-0.26,1.07-0.26c0.08,0,0.16,0,0.23,0.01c0,0,0,0,0.01,0.01c0,0,0,0,0,0
			c0,0,0,0,0.01,0v0c0.1,0.08,0.22,0.14,0.36,0.18c0.08,0.23,0.2,0.65,0.2,1.21C74.74,102.03,74.67,102.58,74.45,103.21z
			 M75.44,99.51l0,0.01c-0.02,0.08-0.08,0.15-0.16,0.21c-0.05,0.05-0.12,0.08-0.17,0.1H75.1l-0.01,0c-0.05,0.02-0.11,0.03-0.19,0.03
			l-0.11-0.01l-0.04-0.01h-0.01c-0.06-0.01-0.12-0.04-0.19-0.09l-0.01-0.01c-0.08-0.06-0.15-0.15-0.18-0.25l0-0.02l-0.01-0.02
			c-0.01-0.02-0.01-0.06-0.01-0.11l0-0.08l0-0.01l0-0.01c0.02-0.12,0.08-0.21,0.17-0.28l0.01,0l0-0.01
			c0.02-0.01,0.04-0.03,0.06-0.04h0c0,0,0,0,0,0h0c0,0,0,0,0.01,0c0,0,0,0,0.01,0c0.18-0.01,0.35-0.01,0.53-0.01h0c0,0,0,0,0,0h0
			c0,0,0,0,0,0h0c0.1,0.05,0.18,0.13,0.23,0.23l0,0.01c0.03,0.07,0.05,0.14,0.05,0.22c0,0.06-0.01,0.11-0.02,0.15L75.44,99.51z
			 M82.03,100.94c1.1,0.63,2.02,1.44,2.67,2.2c-0.4,0.09-1.14,0.21-2.19,0.21c-0.99,0-2.24-0.11-3.69-0.48
			c-1.61-0.41-2.45-1-2.89-1.51c-0.37-0.44-0.46-0.83-0.48-1.05c0.08-0.04,0.15-0.09,0.21-0.14c0.01-0.01,0.02-0.03,0.04-0.05
			c0.74-0.25,1.47-0.37,2.18-0.37C79.38,99.74,80.8,100.23,82.03,100.94z M79.45,98.81C79.44,98.81,79.44,98.81,79.45,98.81
			c-0.01,0-0.01,0-0.02,0c0,0-0.01,0-0.01,0c-0.97,0.21-2.07,0.38-3.35,0.51c0-0.12-0.03-0.24-0.07-0.35v-0.02l-0.02-0.05
			c0-0.01,0-0.02,0-0.04c0.01-0.16,0.03-0.34,0.08-0.52c0.15-0.6,0.49-1.35,1.3-2.01c1.14-0.95,3.23-1.76,7.06-1.76
			c0.41,0,0.84,0.01,1.28,0.03c-0.05,0.38-0.27,1.2-1.3,2.09c-0.63,0.54-1.57,1.1-2.97,1.58C80.84,98.46,80.19,98.65,79.45,98.81
			L79.45,98.81z"/>
	</g>
</g>
</svg>
