<?xml version="1.0" encoding="utf-8"?>
<!-- Generator: Adobe Illustrator 26.0.2, SVG Export Plug-In . SVG Version: 6.00 Build 0)  -->
<svg version="1.1" id="Calque_1" xmlns="http://www.w3.org/2000/svg" xmlns:xlink="http://www.w3.org/1999/xlink" x="0px" y="0px"
	 viewBox="0 0 147.4 147.4" style="enable-background:new 0 0 147.4 147.4;" xml:space="preserve">
<style type="text/css">
	.st0{fill:url(#XMLID_00000125597987205672358620000002507270274296102540_);}
	.st1{fill:url(#XMLID_00000126295040300731313800000014690431609549547422_);}
	.st2{fill:#FFFFFF;}
	.st3{fill:url(#SVGID_1_);}
	.st4{fill:url(#SVGID_00000000929212826372775310000016920291981577746598_);}
	.st5{fill:url(#SVGID_00000050645673159352920000000014419657220659622022_);}
	.st6{fill:url(#SVGID_00000101085900285333823700000001326364997809824682_);}
	.st7{fill:url(#SVGID_00000005962454646672290320000017910281883796791978_);}
	.st8{fill:url(#SVGID_00000010298173565178186870000000647028491441365689_);}
	.st9{fill:url(#SVGID_00000103236133493406214400000009047387694005381270_);}
	.st10{fill:url(#SVGID_00000033352751972186541930000014889065339804359082_);}
	.st11{fill:url(#SVGID_00000027605076397794720510000008622240970527127201_);}
	.st12{fill:url(#SVGID_00000031893689099117254600000010867473023076707215_);}
	.st13{fill:url(#SVGID_00000002382855724786575310000005588689398161765535_);}
	.st14{fill:url(#SVGID_00000042001188133619115020000016298910675087962526_);}
	.st15{fill:url(#SVGID_00000108998397322378655680000001506899294228432258_);}
	.st16{fill:url(#XMLID_00000178884999058577676440000015487133685141983913_);}
	.st17{fill:url(#XMLID_00000050644047661438227970000006401367783008664482_);}
	.st18{fill:url(#SVGID_00000057869174365321395800000009859650688156064680_);}
	.st19{fill:url(#SVGID_00000181768371149682055850000002613530404677711802_);}
	.st20{fill:url(#SVGID_00000170279689141913366260000007723943901902387859_);}
	.st21{fill:url(#SVGID_00000028287227107414070070000000749639655321944218_);}
	.st22{fill:url(#SVGID_00000171715377634297720070000001358588668251068342_);}
	.st23{fill:url(#SVGID_00000039098488786397614160000009870254893170011012_);}
	.st24{fill:url(#SVGID_00000176034100138459785510000010684481602291549870_);}
	.st25{fill:url(#SVGID_00000149370239669883735000000003297829701149490569_);}
	.st26{fill:url(#SVGID_00000103984731688612720280000011403980082496418229_);}
	.st27{fill:url(#XMLID_00000103246872338720779240000009937178922784407223_);}
	.st28{fill:url(#XMLID_00000065064319813215341200000016095030449292161983_);}
	.st29{fill:url(#SVGID_00000090283967226648237850000004583287612093558430_);}
	.st30{fill:url(#SVGID_00000096018402242316783670000003143593486296887690_);}
	.st31{fill:url(#SVGID_00000030481320272744845280000016470383351331178908_);}
	.st32{fill:url(#SVGID_00000045620665384975826340000010492159426979171740_);}
	.st33{fill:url(#SVGID_00000059283095661187130660000007631620395918127495_);}
	.st34{fill:url(#SVGID_00000040553406850799291520000013429096573583027631_);}
	.st35{fill:url(#SVGID_00000003082944911788439310000015422889103886778248_);}
	.st36{fill:url(#SVGID_00000151525657568083150050000007066270468807460792_);}
	.st37{fill:url(#SVGID_00000181081952609715292930000013524228204344346509_);}
	.st38{fill:url(#SVGID_00000174601979172030538100000002095965343448172681_);}
	.st39{fill:url(#SVGID_00000009584229146138735040000016946468203837780904_);}
	.st40{fill:url(#SVGID_00000077303875123929246300000012604983881906259592_);}
	.st41{fill:url(#SVGID_00000077308360455731380370000014624952827034120358_);}
	.st42{fill:url(#SVGID_00000127725622887215490860000016734132345323210413_);}
	.st43{fill:url(#SVGID_00000156552402012713026380000003159003029030388608_);}
	.st44{fill:url(#SVGID_00000036945989932596819140000003834796513257139367_);}
	.st45{fill:url(#SVGID_00000101098604422606977340000010489780982041757076_);}
	.st46{fill:url(#SVGID_00000108298001629013685540000009265356594882025915_);}
	.st47{fill:url(#SVGID_00000108988398518803349530000012189128810783015598_);}
	.st48{fill:url(#SVGID_00000043431424147436554960000003609191912672550833_);}
	.st49{fill:url(#SVGID_00000182509230992577675030000008807927765437034403_);}
	.st50{fill:url(#SVGID_00000129188145975784308810000012793481649027459713_);}
	.st51{fill:url(#SVGID_00000124134166746095030800000018081503628643075757_);}
	.st52{fill:url(#SVGID_00000040564150207873570500000000224669173068877450_);}
	.st53{fill:url(#SVGID_00000060022405080420553750000001706915254598037158_);}
	.st54{fill:url(#SVGID_00000177469652822744817950000010004848292774250883_);}
	.st55{fill:url(#SVGID_00000067235134205550472510000012666995663191093124_);}
	.st56{fill:url(#SVGID_00000118387301831644406800000004331620772140532359_);}
	.st57{fill:url(#SVGID_00000171701033044285112420000011753448811544433322_);}
	.st58{fill:url(#SVGID_00000152960873201354113810000007397640594676317843_);}
	.st59{fill:url(#SVGID_00000053508393167671626570000001725565995969130161_);}
	.st60{fill:url(#SVGID_00000034085818659779461170000013156403895267684998_);}
	.st61{fill:url(#SVGID_00000132078022059357287160000000183293842747736474_);}
</style>
<g>
	<g id="XMLID_00000015334844032990768720000015531549876567651760_">
		
			<radialGradient id="XMLID_00000068671532956478444440000003130826247975897011_" cx="61.7332" cy="118.0626" r="170.1927" gradientTransform="matrix(1 0 0 -1 0 149.5591)" gradientUnits="userSpaceOnUse">
			<stop  offset="0" style="stop-color:#FFFFFF"/>
			<stop  offset="1" style="stop-color:#C4BBBB"/>
		</radialGradient>
		
			<circle id="XMLID_00000012462584798387810710000002830088011135802519_" style="fill:url(#XMLID_00000068671532956478444440000003130826247975897011_);" cx="73.7" cy="73.7" r="73.7"/>
		
			<linearGradient id="XMLID_00000050644612727434626130000009716852846485803926_" gradientUnits="userSpaceOnUse" x1="5" y1="75.8591" x2="142.4" y2="75.8591" gradientTransform="matrix(1 0 0 -1 0 149.5591)">
			<stop  offset="0" style="stop-color:#C4BBBB"/>
			<stop  offset="1" style="stop-color:#FFFFFF"/>
		</linearGradient>
		
			<circle id="XMLID_00000149373314034137741190000015834407874220191663_" style="fill:url(#XMLID_00000050644612727434626130000009716852846485803926_);" cx="73.7" cy="73.7" r="68.7"/>
	</g>
	<g>
	</g>
	<g>
		<path class="st2" d="M63.11,36.7c0-0.22,0.15-0.39,0.35-0.44c1.23-0.25,2.36-1.01,3.13-2.06c0.67-0.9,1.09-2,1.31-3.38
			c0.03-0.22,0.22-0.39,0.45-0.39c0.22,0,0.42,0.17,0.46,0.39c0.16,0.92,0.42,1.86,0.73,2.75c0.47,1.3,1.08,2.13,2.89,2.67
			c0.17,0.05,0.31,0.22,0.33,0.41c0.01,0.18-0.09,0.37-0.26,0.45c-2.15,1.11-3.61,3.19-3.71,5.34c-0.02,0.26-0.2,0.44-0.44,0.46
			c-0.01,0-0.01,0-0.03,0c-0.22,0-0.42-0.19-0.45-0.4c-0.16-1.13-0.32-2.41-1.06-3.38c-0.63-0.83-1.77-1.48-3.38-1.97
			C63.23,37.1,63.09,36.92,63.11,36.7z"/>
		<path class="st2" d="M55.62,61.13c1.17-0.25,2.26-0.97,3.02-2c0.64-0.87,1.04-1.93,1.26-3.26c0.03-0.22,0.22-0.37,0.44-0.37
			c0.21,0,0.4,0.15,0.43,0.37c0.16,0.89,0.41,1.8,0.71,2.67c0.45,1.24,1.06,2.05,2.79,2.57c0.18,0.05,0.3,0.2,0.32,0.39
			c0.01,0.18-0.07,0.35-0.24,0.43c-2.08,1.08-3.49,3.1-3.59,5.18c-0.02,0.24-0.21,0.42-0.44,0.42c0,0,0,0-0.02,0
			c-0.22,0-0.4-0.17-0.43-0.39c-0.16-1.09-0.31-2.32-1.03-3.25c-0.6-0.8-1.71-1.43-3.26-1.89c-0.2-0.07-0.33-0.25-0.32-0.45
			C55.26,61.35,55.42,61.18,55.62,61.13z"/>
		<path class="st2" d="M116.98,108.1c2.4,0.03,2.47,0.11,2.61,0.27c0.1,0.11,0.14,0.27,0.12,0.41c-0.37,2.18-2.21,4.98-4.9,5.88
			c-2.59,0.86-5.55,0.86-8.16,0.85c-1.75-0.01-4.37,0.03-7.41,0.07c-3.66,0.04-7.71,0.1-11.33,0.1c-3.23,0-6.12-0.04-8.11-0.17
			c-0.87,0.34-1.8,0.54-2.75,0.59c-1.78,0.08-3.54,0.13-5.26,0.13c-2.59,0-5.1-0.1-7.51-0.29c-2.32-0.19-3.73-0.9-4.72-2.38
			c-0.99-1.49-1.69-3.08-2.16-4.74c-7.03-0.05-14.46-0.14-18.49-0.19c-2.48-0.03-5.62-2.62-6.21-5.11c-0.05-0.2-0.1-0.39-0.14-0.59
			c-2.87-0.35-4.88-2.11-4.88-4.35c0-1.71-0.04-3.46-0.06-5.16c-0.05-5.15-0.1-9.61,0.39-11.93c1.14-5.49,4.49-7.76,6.7-9.26
			c1.9-1.27,2.47-1.77,1.98-2.85c-0.11-0.24-0.31-0.45-0.55-0.67c-0.35-0.37-0.74-0.77-0.81-1.36c-0.11-1.38,1.23-2.16,2.21-2.53
			c-0.48-0.4-0.96-1.03-1.09-1.96c-0.06-0.39,0.06-0.77,0.31-1.09c0.36-0.46,0.96-0.79,1.62-1.03c-0.56-0.48-0.86-1.17-0.79-1.86
			c0.03-0.34,0.22-1.16,1.31-1.72c-0.34-0.38-0.56-0.87-0.68-1.42c-0.11-0.49-0.13-0.98-0.13-1.45c-0.03-0.96-0.05-2.03,0.44-3.01
			c0.1-0.23,0.3-0.55,0.65-0.72c0.29-0.13,0.56-0.13,0.79-0.15c-0.25-0.64-0.63-1.21-1.11-1.73c-0.4,1.58-1.31,2.97-2.08,4.02
			c-2.92,4.03-6.59,7.1-10.32,8.67c-0.04,0.01-0.11,0.03-0.17,0.03c-0.14,0-0.28-0.07-0.38-0.2c-0.12-0.17-0.1-0.4,0.03-0.57
			c3.37-3.87,5.99-8.59,7.58-13.68c0.08-0.25,0.2-0.54,0.35-0.84c-1.12-0.05-2.4-0.22-3.84-0.4l-0.17-0.04
			c-0.51-0.06-0.89-0.4-1.23-0.75c-0.37-0.37-0.45-0.91-0.52-1.43l-0.03-0.3c-0.12-1.03-0.29-2.44,0.3-3.2
			c0.44-0.55,1.04-0.75,1.5-0.91c0.7-0.24,1.46-0.35,2.19-0.43c0.64-0.08,1.27-0.17,1.82-0.34c0.12-0.03,0.25-0.01,0.35,0.05
			c0.02,0,0.04,0.02,0.05,0.04c1.47-0.15,2.93-0.26,4.3-0.36c2.17-0.15,4.41-0.3,6.61-0.03c1.83,0.24,3.64,1.01,5.24,2.22
			c0.42,0.32,0.8,0.6,1.18,0.89c2.72,2.03,4.52,3.39,3.44,5.12c-0.5,0.83-1.75,0.93-2.96,1.03h-0.11c0.01,0.07,0.03,0.13,0.06,0.2
			c0.61,1.56,1.41,2.59,3.78,3.24c0.17,0.05,0.31,0.2,0.32,0.39c0.02,0.18-0.08,0.37-0.25,0.45c-2.79,1.31-4.69,3.85-4.82,6.44
			c-0.02,0.22-0.2,0.4-0.42,0.42c-0.02,0-0.02,0-0.02,0c-0.1,0-0.18-0.04-0.25-0.09c0.39,0.98,0.64,2.59,0.94,4.51
			c0.34,2.2,0.72,4.7,1.4,6.33c0.33,0.81,0.75,1.67,1.19,2.52c1.87,0.02,3.74,0.03,5.58,0.06c0.74-1.55,2.16-2.91,4.22-3.98
			c0.52-0.27,1.55-0.64,2.07-0.82c-0.12-0.91-0.27-2.5-0.03-3.55c0.42-1.89,1.91-3.26,3.55-3.26h0.15c0.22-0.54,0.47-1.06,0.73-1.57
			c0.32-0.63,0.67-1.24,1.04-1.82c0.07-0.12,0.14-0.24,0.22-0.35c0.28-0.44,0.58-0.87,0.9-1.29c2.5-3.31,5.85-5.77,10-7.36
			c1.49-0.57,2.98-0.99,4.43-1.28c0.34-0.07,0.67-0.13,1-0.18c1.77-0.31,3.46-0.44,5.01-0.47h1.13c2.52,0.04,4.56,0.33,5.77,0.55
			c1.35,0.25,2.65,0.59,3.88,1.01c0.79,0.27,1.53,0.58,2.28,0.93h0.03c1.21,0.55,2.34,1.19,3.41,1.93c2.74,1.9,5,4.38,6.71,7.4
			c3.95,6.98,4.6,16.53,1.67,24.32c-2.05,5.43-6.05,10.23-10.97,13.15c-1.1,0.65-2.24,1.21-3.42,1.68c3.39-0.02,6.28-0.03,8.62-0.03
			h0.33c7.38,0,7.43,0.06,7.63,0.3c0.1,0.11,0.14,0.27,0.12,0.41c-0.31,1.83-1.66,4.1-3.67,5.31c3.06,0.03,3.13,0.1,3.28,0.28
			c0.1,0.12,0.14,0.27,0.12,0.42C119.45,105,118.47,106.83,116.98,108.1z"/>
	</g>
	<g>
		<radialGradient id="SVGID_1_" cx="26.2288" cy="34.9993" r="168.3161" gradientUnits="userSpaceOnUse">
			<stop  offset="0" style="stop-color:#00746D"/>
			<stop  offset="0.2174" style="stop-color:#00746D"/>
			<stop  offset="0.4101" style="stop-color:#09998F"/>
			<stop  offset="0.6425" style="stop-color:#16CABD"/>
			<stop  offset="1" style="stop-color:#16CABD"/>
		</radialGradient>
		<path class="st3" d="M63.43,37.15c1.61,0.49,2.75,1.14,3.38,1.97c0.74,0.98,0.91,2.25,1.06,3.38c0.03,0.22,0.23,0.4,0.45,0.4
			c0.02,0,0.02,0,0.03,0c0.24-0.02,0.42-0.2,0.44-0.45c0.1-2.15,1.56-4.23,3.71-5.34c0.17-0.08,0.27-0.27,0.25-0.45
			c-0.02-0.18-0.15-0.35-0.32-0.41c-1.81-0.54-2.42-1.38-2.89-2.67c-0.32-0.89-0.57-1.83-0.74-2.76c-0.03-0.22-0.24-0.39-0.45-0.39
			c-0.24,0-0.42,0.17-0.45,0.39c-0.22,1.38-0.64,2.49-1.31,3.38c-0.77,1.06-1.9,1.81-3.13,2.07c-0.2,0.05-0.35,0.22-0.35,0.43
			C63.1,36.92,63.23,37.1,63.43,37.15z M67.35,34.75c0.4-0.57,0.74-1.19,0.99-1.9c0.1,0.35,0.22,0.71,0.34,1.04
			c0.45,1.24,1.09,2.24,2.55,2.89c-1.29,0.88-2.28,2.1-2.86,3.45c-0.17-0.59-0.44-1.16-0.82-1.68c-0.57-0.74-1.43-1.34-2.58-1.83
			C65.89,36.28,66.72,35.59,67.35,34.75z"/>
		
			<radialGradient id="SVGID_00000020359904194428200580000010040120630205844653_" cx="26.2288" cy="34.9993" r="168.3161" gradientUnits="userSpaceOnUse">
			<stop  offset="0" style="stop-color:#00746D"/>
			<stop  offset="0.2174" style="stop-color:#00746D"/>
			<stop  offset="0.4101" style="stop-color:#09998F"/>
			<stop  offset="0.6425" style="stop-color:#16CABD"/>
			<stop  offset="1" style="stop-color:#16CABD"/>
		</radialGradient>
		<path style="fill:url(#SVGID_00000020359904194428200580000010040120630205844653_);" d="M55.26,61.55
			c-0.02,0.2,0.12,0.39,0.32,0.45c1.55,0.45,2.66,1.09,3.26,1.88c0.72,0.94,0.87,2.17,1.03,3.26c0.03,0.22,0.22,0.39,0.44,0.39
			c0.02,0,0.02,0,0.02,0c0.23,0,0.42-0.18,0.44-0.42c0.1-2.09,1.51-4.1,3.59-5.18c0.17-0.08,0.25-0.25,0.24-0.44
			c-0.02-0.18-0.13-0.33-0.32-0.39c-1.73-0.52-2.34-1.33-2.79-2.57c-0.31-0.88-0.55-1.78-0.71-2.67c-0.04-0.22-0.22-0.37-0.44-0.37
			c-0.22,0-0.4,0.15-0.44,0.37c-0.22,1.33-0.62,2.39-1.26,3.26c-0.75,1.03-1.85,1.75-3.02,2C55.42,61.18,55.26,61.35,55.26,61.55z
			 M59.35,59.65c0.4-0.54,0.72-1.14,0.98-1.81c0.1,0.34,0.2,0.67,0.32,1.01c0.44,1.19,1.06,2.15,2.47,2.79
			c-1.24,0.84-2.22,2.01-2.76,3.33c-0.17-0.57-0.42-1.13-0.81-1.61c-0.55-0.72-1.38-1.31-2.48-1.78
			C57.95,61.15,58.76,60.47,59.35,59.65z"/>
		
			<radialGradient id="SVGID_00000159453136281286106570000005430751995940057475_" cx="26.2288" cy="34.9993" r="168.3161" gradientUnits="userSpaceOnUse">
			<stop  offset="0" style="stop-color:#00746D"/>
			<stop  offset="0.2174" style="stop-color:#00746D"/>
			<stop  offset="0.4101" style="stop-color:#09998F"/>
			<stop  offset="0.6425" style="stop-color:#16CABD"/>
			<stop  offset="1" style="stop-color:#16CABD"/>
		</radialGradient>
		<path style="fill:url(#SVGID_00000159453136281286106570000005430751995940057475_);" d="M44.56,89.84l-12.2,0.22
			c-0.08,0-0.13,0.07-0.13,0.15c0,0.07,0.07,0.13,0.15,0.13l12.18-0.2c0.08-0.02,0.15-0.08,0.15-0.17
			C44.71,89.91,44.63,89.83,44.56,89.84z"/>
		
			<radialGradient id="SVGID_00000148663504463898186290000014581323923005067709_" cx="26.2288" cy="34.9993" r="168.3161" gradientUnits="userSpaceOnUse">
			<stop  offset="0" style="stop-color:#00746D"/>
			<stop  offset="0.2174" style="stop-color:#00746D"/>
			<stop  offset="0.4101" style="stop-color:#09998F"/>
			<stop  offset="0.6425" style="stop-color:#16CABD"/>
			<stop  offset="1" style="stop-color:#16CABD"/>
		</radialGradient>
		<path style="fill:url(#SVGID_00000148663504463898186290000014581323923005067709_);" d="M35.94,92.3
			c-0.89,0.08-1.81,0.08-2.71,0.02c-0.08-0.02-0.17,0.05-0.17,0.13c0,0.08,0.05,0.15,0.13,0.15c0.44,0.03,0.86,0.05,1.29,0.05
			c0.49,0,0.99-0.02,1.48-0.07c0.08,0,0.13-0.08,0.13-0.15C36.09,92.35,36.03,92.28,35.94,92.3z"/>
		
			<radialGradient id="SVGID_00000163790923076535822620000011619000912235430789_" cx="26.2288" cy="34.9993" r="168.3161" gradientUnits="userSpaceOnUse">
			<stop  offset="0" style="stop-color:#00746D"/>
			<stop  offset="0.2174" style="stop-color:#00746D"/>
			<stop  offset="0.4101" style="stop-color:#09998F"/>
			<stop  offset="0.6425" style="stop-color:#16CABD"/>
			<stop  offset="1" style="stop-color:#16CABD"/>
		</radialGradient>
		<path style="fill:url(#SVGID_00000163790923076535822620000011619000912235430789_);" d="M119.98,97.46
			c0.02-0.14-0.02-0.3-0.12-0.41c-0.2-0.24-0.26-0.3-7.63-0.3h-0.33c-2.34,0-5.23,0.01-8.62,0.03c1.18-0.47,2.32-1.03,3.42-1.68
			c4.93-2.92,8.92-7.71,10.97-13.15c2.93-7.79,2.28-17.34-1.66-24.32c-1.71-3.02-3.98-5.51-6.72-7.41c-1.06-0.73-2.2-1.38-3.41-1.93
			h-0.03c-0.74-0.35-1.48-0.65-2.28-0.93c-1.23-0.42-2.53-0.76-3.88-1.01c-1.2-0.22-3.25-0.51-5.77-0.55c-0.37,0-0.74,0-1.13,0
			c-1.55,0.03-3.25,0.16-5.01,0.47c-0.33,0.05-0.66,0.11-1,0.18c-1.45,0.3-2.94,0.71-4.44,1.28c-4.15,1.59-7.49,4.05-10,7.36
			c-0.32,0.42-0.62,0.85-0.9,1.29c-0.08,0.11-0.15,0.23-0.22,0.35c-0.37,0.59-0.71,1.19-1.03,1.83c-0.26,0.51-0.51,1.03-0.74,1.57
			h-0.14c-1.64,0-3.13,1.37-3.56,3.26c-0.23,1.05-0.08,2.64,0.04,3.55c-0.52,0.18-1.55,0.54-2.08,0.82
			c-2.06,1.07-3.48,2.43-4.21,3.98c-1.85-0.04-3.71-0.05-5.58-0.06c-0.44-0.85-0.86-1.71-1.19-2.52c-0.67-1.63-1.06-4.13-1.4-6.33
			c-0.3-1.91-0.55-3.53-0.94-4.5c0.07,0.05,0.15,0.08,0.25,0.08c0,0,0,0,0.02,0c0.22-0.02,0.4-0.2,0.42-0.42
			c0.13-2.59,2.03-5.13,4.82-6.44c0.17-0.08,0.27-0.27,0.25-0.45s-0.15-0.33-0.32-0.39c-2.37-0.65-3.18-1.68-3.78-3.24
			c-0.03-0.07-0.05-0.13-0.06-0.2h0.12c1.21-0.1,2.45-0.2,2.96-1.02c1.08-1.73-0.72-3.09-3.44-5.13c-0.37-0.28-0.76-0.57-1.18-0.89
			c-1.59-1.21-3.41-1.98-5.24-2.22c-2.2-0.27-4.44-0.12-6.6,0.03c-1.38,0.1-2.84,0.2-4.3,0.35c-0.02-0.02-0.04-0.04-0.05-0.04
			c-0.1-0.06-0.23-0.08-0.35-0.05c-0.55,0.17-1.18,0.25-1.81,0.34c-0.74,0.08-1.49,0.18-2.2,0.43c-0.45,0.15-1.06,0.35-1.5,0.91
			c-0.59,0.76-0.42,2.17-0.3,3.2l0.03,0.3c0.07,0.52,0.15,1.06,0.52,1.43c0.34,0.35,0.72,0.69,1.23,0.75l0.17,0.04
			c1.44,0.18,2.72,0.35,3.85,0.4c-0.15,0.3-0.27,0.59-0.35,0.84c-1.59,5.09-4.21,9.81-7.58,13.68c-0.13,0.17-0.15,0.4-0.03,0.57
			c0.1,0.14,0.24,0.2,0.39,0.2c0.05,0,0.12-0.02,0.17-0.03c3.73-1.56,7.39-4.64,10.32-8.67c0.77-1.04,1.68-2.44,2.08-4.01
			c0.47,0.52,0.86,1.09,1.11,1.73c-0.24,0.02-0.51,0.02-0.79,0.15c-0.35,0.17-0.55,0.49-0.65,0.72c-0.49,0.98-0.47,2.05-0.44,3.01
			c0,0.47,0.02,0.96,0.13,1.44c0.12,0.55,0.34,1.04,0.67,1.42c-1.09,0.56-1.28,1.38-1.31,1.71c-0.07,0.69,0.24,1.38,0.79,1.87
			c-0.65,0.24-1.26,0.57-1.61,1.02c-0.25,0.32-0.37,0.71-0.32,1.1c0.13,0.92,0.62,1.56,1.09,1.96c-0.98,0.37-2.32,1.14-2.2,2.52
			c0.07,0.59,0.45,0.99,0.81,1.36c0.24,0.22,0.44,0.44,0.55,0.67c0.49,1.08-0.08,1.58-1.98,2.85c-2.22,1.5-5.56,3.77-6.7,9.26
			c-0.49,2.32-0.44,6.77-0.39,11.93c0.02,1.69,0.05,3.44,0.05,5.16c0,2.24,2.01,4,4.89,4.35c0.03,0.2,0.08,0.39,0.13,0.59
			c0.59,2.49,3.73,5.08,6.22,5.11c4.03,0.05,11.46,0.14,18.48,0.19c0.47,1.67,1.17,3.26,2.16,4.74c0.99,1.48,2.4,2.2,4.72,2.38
			c2.41,0.19,4.92,0.29,7.51,0.29c1.72,0,3.48-0.04,5.26-0.13c0.96-0.04,1.89-0.25,2.76-0.59c1.99,0.13,4.88,0.17,8.1,0.17
			c3.62,0,7.67-0.05,11.33-0.1c3.04-0.04,5.66-0.08,7.41-0.07c2.61,0.01,5.56,0.02,8.16-0.85c2.69-0.9,4.53-3.69,4.9-5.88
			c0.02-0.14-0.02-0.3-0.12-0.41c-0.14-0.16-0.21-0.24-2.62-0.27c1.49-1.27,2.47-3.1,2.73-4.63c0.02-0.15-0.02-0.3-0.12-0.41
			c-0.15-0.18-0.22-0.25-3.29-0.28C118.33,101.56,119.68,99.29,119.98,97.46z M106.66,114.5h-0.41c-1.75,0-4.21,0.03-7.02,0.07
			c-5.81,0.08-13.15,0.17-17.68,0.02c0.68-0.46,1.29-1.02,1.8-1.66c0.2-0.25,0.39-0.52,0.56-0.79c0.04-0.07,0.09-0.14,0.13-0.22
			c0.29-0.5,0.55-1.02,0.79-1.57c0.07-0.16,0.14-0.33,0.2-0.5c0.07-0.16,0.13-0.33,0.19-0.49c0.01-0.03,0.02-0.07,0.04-0.1
			c2.05-0.02,4.11-0.04,6.15-0.06c0.42,0,0.84-0.01,1.26-0.01c6.88-0.06,13.41-0.1,18.26-0.1c1.1,0,2.11,0,3.02,0h0
			c0.54,0,1.05,0,1.51,0c1.47,0.01,2.55,0.03,3.14,0.06c-0.51,1.81-2.08,3.9-4.11,4.58C112.06,114.52,109.19,114.52,106.66,114.5z
			 M77,115.1h-0.02c-1.75,0.08-3.48,0.12-5.17,0.12c-2.56,0-5.05-0.1-7.44-0.28c-2.48-0.2-3.38-1.05-3.97-1.93
			c-0.87-1.31-1.51-2.71-1.95-4.18c-0.09-0.29-0.17-0.59-0.24-0.89c-1.14-4.65-0.52-9.92,0.42-15.06c0.53-2.92,1.44-4.65,2.36-6.01
			c0.2-0.31,0.41-0.6,0.62-0.88c0.05-0.07,0.1-0.13,0.14-0.2c0.24-0.33,0.47-0.64,0.68-0.96l0.07-0.11c0.26-0.38,0.54-0.8,0.76-1.26
			c0.05-0.1,0.09-0.2,0.13-0.3c0.3-0.77,0.37-1.64-0.18-2.62c-0.19-0.34-0.45-0.68-0.79-1.04c-0.06-0.06-0.11-0.11-0.17-0.17
			c-0.8-0.77-1.55-1.59-2-2.92c-0.03-0.1-0.06-0.2-0.1-0.31c-0.02-0.08-0.04-0.16-0.06-0.24c-0.31-1.22-0.22-2.29,0.11-3.21
			c0.11-0.31,0.25-0.61,0.42-0.89c0.82-1.4,2.23-2.41,3.56-3.11c0.45-0.23,1.36-0.55,1.87-0.73c0.13-0.04,0.23-0.08,0.3-0.1
			l1.01,0.01l0.33,0h0.01c0.05,0.01,0.1,0.02,0.16,0.03c0-0.01,0-0.02,0-0.03l0.51,0l1.83,0.01l1,0.01l3.94,0.03h0.28l0.06,0
			l1.22,0.01c0,0,0,0,0.01,0c0.55,0.25,3.35,1.56,4.99,3.16c0.41,0.41,0.75,0.83,0.96,1.26c0.5,1.02,0.65,2.13,0.49,3.2
			c-0.19,1.21-0.78,2.38-1.75,3.34c-0.16,0.16-0.32,0.31-0.49,0.46c-0.47,0.43-0.97,0.89-1.28,1.46c-1.08,1.95,0.4,4.01,1.59,5.67
			l0.18,0.24c0.06,0.08,0.11,0.15,0.16,0.23c0.19,0.27,0.37,0.54,0.54,0.81c0.04,0.06,0.07,0.11,0.1,0.17
			c0.21,0.33,0.41,0.67,0.59,1c0.45,0.82,0.84,1.65,1.17,2.48c0.04,0.11,0.08,0.22,0.12,0.33c0.6,1.58,1,3.15,1.23,4.68
			c0.03,0.18,0.06,0.35,0.08,0.53h-0.05c0.02,0,0.03,0.01,0.05,0.01c0.02,0.16,0.04,0.33,0.06,0.49h-0.14
			c0.05,0.02,0.09,0.03,0.15,0.05c0.02,0.15,0.04,0.3,0.05,0.45c0.16,1.77,0.14,3.46,0.01,5c-0.01,0.14-0.03,0.28-0.04,0.42
			c0,0.03,0,0.06-0.01,0.08c-0.02,0.14-0.03,0.28-0.05,0.42c0,0.03,0,0.06-0.01,0.08c-0.01,0.14-0.03,0.28-0.05,0.42
			c-0.03,0.26-0.07,0.53-0.11,0.78c-0.18,1.13-0.41,2.17-0.71,3.13c-0.05,0.17-0.11,0.34-0.16,0.5c-0.06,0.17-0.12,0.34-0.18,0.5
			c-0.01,0.03-0.02,0.06-0.03,0.08c-0.06,0.17-0.13,0.33-0.2,0.49c-0.07,0.17-0.15,0.34-0.22,0.5c-0.21,0.45-0.44,0.88-0.69,1.28
			c-0.07,0.12-0.14,0.23-0.22,0.34c-0.26,0.37-0.55,0.71-0.87,1.02c-0.67,0.64-1.46,1.16-2.34,1.53c-0.38,0.16-0.78,0.3-1.18,0.39
			C77.98,115,77.49,115.07,77,115.1z M59.2,76.38c0.4,1.39,1.08,2.32,1.8,3.09c-0.37,0-0.73,0-1.1-0.01
			c-1.11-0.02-2.24-0.03-3.36-0.05h-0.47c-0.15,0-0.31-0.02-0.47,0c-2.25-0.04-4.52-0.05-6.79-0.02c-1.36,0-2.74,0.02-4.11,0.04
			c-0.65,0.02-1.29,0.03-1.95,0.05c-0.89,0.02-1.78,0.04-2.65,0.07c-0.2,0.02-0.41,0.03-0.61,0.07h-0.02
			c-0.4,0.02-0.81,0.03-1.21,0.07c-0.14,0.02-0.27,0-0.39-0.05c-0.15-0.05-0.29-0.15-0.39-0.28c-0.03-0.07-0.07-0.14-0.1-0.22
			c-0.07-0.2-0.07-0.45,0.03-0.74c0.02-0.1,0.07-0.2,0.14-0.32c0.25-0.47,0.74-1.01,1.6-1.55c0.1-0.05,0.16-0.15,0.18-0.25
			c5.39-0.24,10.11-0.12,14.67,0c0.39,0.02,0.75,0.02,1.12,0.03h0.49c0.15,0.02,0.3,0.02,0.45,0.02
			C57.12,76.34,58.16,76.37,59.2,76.38z M37.42,80.4c0.24,0.12,0.51,0.16,0.77,0.16h0.12c5.63-0.35,11.84-0.3,17.44-0.2h0.92
			c1.38,0.04,2.71,0.07,3.97,0.1c0.46,0.01,0.91,0.02,1.34,0.03c0.84,1.02,0.73,1.84,0.31,2.65c-0.48,0.01-0.96,0.01-1.44,0.01
			c-1.31,0.02-2.6,0.03-3.87,0.03h-0.92c-5.39,0.04-10.42,0.02-15.81-0.18c-0.07,0-0.15,0.07-0.15,0.15c0,0.08,0.05,0.15,0.14,0.15
			c4.11,0.15,8,0.2,11.99,0.2c1.28,0,2.56,0,3.87-0.02h0.92c1.24,0,2.52-0.02,3.83-0.04c0.42,0,0.84,0,1.26,0
			c-0.14,0.23-0.29,0.46-0.45,0.69l-0.08,0.11c-0.21,0.31-0.43,0.61-0.66,0.92c-0.18,0.25-0.37,0.51-0.57,0.79l-3.11,0.01h-0.94
			L37.4,86.05c-0.54-0.52-0.77-1.38-0.84-1.7C36.24,82.9,36.5,81.12,37.42,80.4z M69.05,61.15c0.09-0.01,0.18-0.02,0.26-0.02h0.28
			h0.53c0.33,0,0.66,0,0.99,0c0.82,0.01,1.62,0.02,2.25,0.06c0.12,0,0.23,0.01,0.34,0.02c0.43,0.03,0.74,0.07,0.9,0.13
			c0.95,0.37,1.52,1.3,1.76,2.14c-0.01,0.02-0.02,0.04-0.02,0.06h0.04c0.02,0.07,0.03,0.14,0.05,0.2c0.02,0.11,0.05,0.22,0.06,0.33
			v0c0.02,0.15,0.04,0.31,0.05,0.46c0.06,0.77-0.02,1.57-0.11,2.36l-0.76,0l-0.34,0l-3.92-0.03l-1-0.01l-1.89-0.02l-0.51,0l-0.51,0
			l-0.71,0c-0.11-0.84-0.26-2.31-0.06-3.21C67.03,62.28,67.98,61.29,69.05,61.15z M71.18,58.84c0.24-0.47,0.5-0.93,0.77-1.36
			c0.24-0.38,0.48-0.75,0.73-1.11c3.74-5.35,9.08-7.8,14.03-8.84c0.34-0.07,0.67-0.14,1-0.19c1.92-0.33,3.75-0.47,5.39-0.49
			c0.16,0,0.31,0,0.47,0c0.18,0,0.35,0,0.53,0c2.73,0.04,4.76,0.37,5.42,0.49c0.17,0.03,0.31,0.07,0.47,0.11h0.04c0,0,0,0,0.01,0
			c0,0,0,0,0.01,0c0,0,0,0,0.01,0c1.16,0.23,2.23,0.53,3.29,0.91h0.04c5.11,1.78,9.13,5.1,11.76,9.76
			c3.81,6.73,4.43,15.94,1.6,23.47c-2.6,6.91-8.39,13.08-16.66,15.2c-1.44,0.01-2.95,0.02-4.54,0.03c-0.58,0-1.16,0.01-1.74,0.01
			c-0.34,0-0.68,0.01-1.02,0.01c-1.82,0.02-3.62,0.03-5.36,0.05h0c-0.34-0.07-0.68-0.15-1.02-0.23c-0.22-1.61-0.61-3.27-1.21-4.93
			c-0.04-0.11-0.08-0.22-0.12-0.33c-0.31-0.83-0.69-1.67-1.12-2.5c0.06,0,0.12,0,0.18,0c0,0,0,0,0,0c1.19,0.59,2.52,1.09,4,1.47
			c0.69,0.18,1.37,0.32,2.03,0.43c0.4,0.07,0.79,0.12,1.18,0.16c0.79,0.09,1.56,0.14,2.31,0.14c8.57,0,14.53-5.61,16.89-12.09
			c2.11-5.78,1.61-12.8-1.3-17.91c-2.42-4.25-6.35-7.01-11.38-7.96c-0.88-0.16-4.99-0.83-9.51,0.18c-0.32,0.07-0.64,0.15-0.97,0.24
			c-1.26,0.35-2.53,0.83-3.76,1.5c-0.29,0.16-0.58,0.33-0.87,0.51c-0.42,0.26-0.83,0.55-1.23,0.85c-0.39,0.3-0.77,0.62-1.14,0.97
			c-1.32,1.24-2.5,2.81-3.45,4.78c-0.06-0.11-0.12-0.22-0.2-0.32c-0.08-0.14-0.18-0.26-0.28-0.39c-0.41-0.49-0.91-0.87-1.48-1.09
			c-0.23-0.09-0.62-0.15-1.15-0.19c-0.11-0.01-0.22-0.02-0.34-0.02c-0.62-0.04-1.39-0.05-2.32-0.06h-0.59
			C70.75,59.69,70.96,59.26,71.18,58.84z M79.89,58.41c0.31-0.35,0.64-0.67,0.98-0.98c0.35-0.32,0.71-0.62,1.09-0.89
			c0.3-0.22,0.61-0.43,0.92-0.63c0.29-0.18,0.57-0.35,0.86-0.51c1.22-0.67,2.49-1.15,3.74-1.5c0.33-0.09,0.65-0.17,0.97-0.24
			c4.45-0.99,8.48-0.33,9.34-0.17c4.92,0.93,8.78,3.62,11.15,7.79c2.85,5.02,3.35,11.94,1.27,17.62
			c-2.55,6.96-9.32,12.9-19.06,11.71c-0.39-0.05-0.79-0.11-1.19-0.18c-0.58-0.1-1.17-0.23-1.77-0.38c-1.2-0.31-2.29-0.69-3.29-1.14
			c-0.46-0.21-0.9-0.43-1.32-0.67c-0.06-0.11-0.13-0.23-0.2-0.35c-0.35-0.6-0.74-1.2-1.17-1.79l-0.17-0.24
			c-1.14-1.57-2.31-3.2-1.53-4.6c0.24-0.43,0.65-0.81,1.08-1.2c0.18-0.16,0.35-0.33,0.52-0.49c0.73-0.73,1.28-1.57,1.63-2.46
			c0.22-0.55,0.36-1.11,0.43-1.68c0.14-1.2-0.06-2.42-0.61-3.56c-0.22-0.46-0.57-0.91-0.98-1.33c-0.39-0.41-0.85-0.8-1.33-1.16
			c-1.44-1.08-3.08-1.91-3.84-2.26c0.09-0.81,0.19-1.68,0.14-2.56c-0.02-0.33-0.06-0.67-0.13-1c0-0.02,0-0.04-0.01-0.05
			c-0.07-0.33-0.18-0.63-0.3-0.92c0.69-1.49,1.52-2.75,2.44-3.82C79.66,58.65,79.77,58.53,79.89,58.41z M111.63,108.07
			c-3.97,0-9.48,0.03-16.38,0.08c-0.65,0-1.31,0.01-1.96,0.02c-0.39,0-0.78,0-1.16,0.01c-2.24,0.02-4.45,0.04-6.54,0.06
			c0.27-0.92,0.49-1.9,0.65-2.96c0.05-0.3,0.09-0.61,0.13-0.93c0.02-0.14,0.04-0.28,0.05-0.43c2.4-0.02,4.81-0.04,7.17-0.06
			c0.33,0,0.67,0,1-0.01c7.45-0.06,14.33-0.1,18.89-0.08c2.49,0,4.29,0.02,5.12,0.06c-0.45,1.59-1.71,3.39-3.38,4.27
			C114.26,108.08,113.08,108.07,111.63,108.07z M114.77,102.39c-0.45,0.15-0.92,0.27-1.39,0.37c-0.53,0-1.12,0-1.75,0
			c-3.97,0-9.48,0.03-16.38,0.08c-0.2,0-0.41,0-0.61,0c-0.33,0-0.67,0.01-1,0.01c-2.43,0.02-4.84,0.04-7.12,0.06
			c0.13-1.55,0.15-3.24-0.01-5c0.26,0,0.53,0,0.79-0.01c0.98-0.01,1.95-0.02,2.93-0.02h0.01c0.94-0.01,1.87-0.02,2.79-0.02
			c0.34,0,0.68-0.01,1.02-0.01c1.14-0.01,2.27-0.02,3.38-0.02c0.91-0.01,1.81-0.01,2.69-0.02c9.22-0.06,16.77-0.07,18.75,0.02
			C118.37,99.63,116.81,101.71,114.77,102.39z M53.89,72.59c0.16-0.02,0.35-0.02,0.52,0c1.6,0,3.18,0.03,4.75,0.04
			c-0.32,1.08-0.34,2.24-0.04,3.45c-1.03-0.01-2.05-0.03-3.08-0.05c-0.15-0.02-0.32-0.02-0.47-0.02c-0.17,0-0.34-0.02-0.52-0.02
			c-0.33,0-0.67-0.02-1.02-0.02c-4.57-0.12-9.28-0.24-14.68-0.02c-0.07-0.12-0.15-0.22-0.29-0.25c-1.18-0.39-1.66-1.08-1.69-1.6
			c-0.04-0.3,0.08-0.57,0.3-0.69c0.79-0.42,1.63-0.65,2.44-0.69c4.42-0.18,8.87-0.2,13.27-0.17C53.53,72.57,53.72,72.57,53.89,72.59
			z M54.59,51.23c-1.83,1.11-3.22,2.72-3.91,4.5c-0.1-0.32-0.2-0.64-0.35-0.94c-0.12-0.32-0.28-0.5-0.47-0.79
			c-0.02,0-0.02-0.02-0.02-0.02v-0.13c-0.08-0.15-0.2-0.31-0.32-0.45c-0.05-0.05-0.1-0.12-0.15-0.17c-0.64-0.71-1.55-1.31-2.71-1.81
			c-0.15-0.05-0.29-0.12-0.44-0.17c-0.05-0.02-0.12-0.05-0.17-0.07c0.15-0.06,0.3-0.13,0.44-0.22c0.13-0.05,0.25-0.1,0.37-0.18
			c0.17-0.08,0.32-0.17,0.47-0.28c0.08-0.05,0.17-0.1,0.25-0.17c0.2-0.14,0.4-0.28,0.59-0.44c0.17-0.15,0.32-0.28,0.49-0.45h0.02
			c0.2-0.2,0.39-0.42,0.57-0.65c0.07-0.08,0.14-0.18,0.2-0.28c0.1-0.2,0.2-0.39,0.35-0.54c0.19-0.29,0.34-0.57,0.47-0.88
			c0.08-0.17,0.16-0.35,0.23-0.54c0.05-0.14,0.1-0.27,0.15-0.4c0.03,0.12,0.07,0.22,0.12,0.33c0.04,0.15,0.08,0.31,0.15,0.45
			c0.03,0.15,0.08,0.28,0.13,0.42c0.05,0.15,0.1,0.3,0.15,0.44C51.8,49.28,52.63,50.46,54.59,51.23z M50.17,57.88
			c-0.03-0.06-0.06-0.13-0.12-0.18c-0.1-0.13-0.2-0.25-0.32-0.37c0.13-0.13,0.23-0.27,0.3-0.39C50.09,57.27,50.12,57.58,50.17,57.88
			z M30.15,44.78l-0.17-0.02c-0.22-0.03-0.47-0.27-0.69-0.49c-0.16-0.18-0.22-0.64-0.25-0.91L29,43.07
			c-0.1-0.75-0.25-2.05,0.12-2.52c0.23-0.31,0.59-0.44,1.04-0.59c0.62-0.22,1.31-0.3,2.04-0.4c0.49-0.05,1.01-0.12,1.49-0.24
			c0.02,0.08,0.04,0.17,0.05,0.27c0.1,1.38,0.2,2.74,0.32,4.12c0.02,0.27,0.04,0.54,0.07,0.79c0,0.02,0,0.02,0,0.02
			c0,0.29,0,0.51-0.02,0.69C33,45.15,31.66,44.98,30.15,44.78z M37.99,48.41c-0.37,1.42-1.19,2.69-1.95,3.73
			c-2.34,3.23-5.14,5.8-8.05,7.44c2.81-3.63,4.99-7.85,6.4-12.35c0.12-0.35,0.29-0.76,0.52-1.13c1.04,0.37,2.2,0.99,3.17,1.81
			C38.08,48.09,38.04,48.24,37.99,48.41z M39.03,47.54c-0.12-0.14-0.27-0.27-0.42-0.39c-0.15-0.14-0.31-0.25-0.47-0.35v-0.02
			c-0.82-0.62-1.75-1.1-2.64-1.43c-0.13-0.05-0.25-0.1-0.39-0.15c0-0.03,0-0.07-0.02-0.1c-0.02-0.2-0.04-0.4-0.05-0.61v-0.08
			c-0.03-0.25-0.05-0.52-0.07-0.77c-0.12-1.4-0.22-2.79-0.32-4.18c0-0.02,0-0.02,0-0.04c-0.02-0.05-0.02-0.08-0.02-0.13
			c1.38-0.12,2.74-0.22,4.01-0.32c2.12-0.15,4.3-0.3,6.42-0.03c1.67,0.2,3.33,0.91,4.8,2.03c0.41,0.32,0.81,0.61,1.18,0.89
			c2.67,2,3.82,2.92,3.21,3.9c-0.25,0.44-1.31,0.51-2.24,0.59c-0.13,0.02-0.25,0.02-0.37,0.03c-0.24-0.72-0.42-1.46-0.55-2.2
			c-0.05-0.22-0.24-0.37-0.44-0.37h-0.02c-0.2,0-0.39,0.17-0.44,0.37c-0.2,1.18-0.54,2.2-1.04,3.07c-0.17,0.34-0.39,0.65-0.62,0.94
			c0,0.02,0,0.02-0.02,0.04c-0.72,0.92-1.69,1.65-2.79,2.1h-1.9c-0.83,0.03-1.85,0.05-2.89,0.07
			C40.58,49.27,39.89,48.31,39.03,47.54z M39.35,51.69c0.08-0.15,0.15-0.25,0.23-0.28c0.1-0.05,0.27-0.05,0.42-0.07h0.32
			c1.28-0.02,2.55-0.03,3.54-0.08h0.25c0.02,0.08,0.05,0.15,0.08,0.2c0.06,0.07,0.13,0.14,0.23,0.15c2.08,0.57,3.56,1.38,4.39,2.37
			c0.23,0.28,0.42,0.61,0.57,0.92l0.02,0.34c0,0.41,0.02,0.82-0.13,1.18c-0.07,0.15-0.15,0.25-0.29,0.32
			c-0.16,0.12-0.42,0.15-0.72,0.12h-0.08c-2.3,0.17-4.64,0.25-6.96,0.25h-0.02c-0.47,0.02-0.89,0-1.19-0.17
			c-0.05-0.04-0.1-0.07-0.15-0.1c-0.05-0.04-0.08-0.07-0.14-0.12c-0.37-0.35-0.54-0.84-0.62-1.18c-0.08-0.4-0.1-0.82-0.1-1.26
			C38.98,53.42,38.97,52.48,39.35,51.69z M28.6,98.58c0-1.73-0.04-3.48-0.05-5.16c-0.05-4.91-0.1-9.53,0.37-11.74
			c1.08-5.13,4.1-7.18,6.32-8.67c1.7-1.14,3.16-2.14,2.3-4.02c-0.18-0.39-0.47-0.67-0.72-0.94c-0.28-0.28-0.52-0.54-0.55-0.79
			c-0.1-1.26,2.42-1.81,2.44-1.83c0.2-0.03,0.35-0.2,0.37-0.41c0.02-0.2-0.08-0.39-0.27-0.47c-0.05-0.02-1.26-0.55-1.43-1.83
			c-0.02-0.08-0.02-0.22,0.12-0.39c0.39-0.49,1.43-0.88,2.22-0.96c0.23-0.02,0.4-0.2,0.42-0.42c0.02-0.22-0.13-0.42-0.35-0.49
			c-0.75-0.18-1.32-0.85-1.28-1.51c0.05-0.5,0.51-0.92,1.26-1.14c0.44,0.18,0.94,0.22,1.43,0.22c0.02,0,0.03,0,0.03,0
			c2.34-0.02,4.69-0.1,7.01-0.27c0.24,0.02,0.45,0.02,0.64-0.02c0.02,0,0.02,0,0.02,0c0.15,0.13,0.28,0.3,0.44,0.51
			c0.45,0.6,0.79,2.69,1.09,4.72c0.35,2.25,0.75,4.8,1.46,6.53c0.28,0.69,0.64,1.43,1.03,2.17c-4.25-0.03-8.57-0.02-12.84,0.17
			c-0.94,0.03-1.92,0.3-2.83,0.79c-0.54,0.28-0.84,0.89-0.77,1.56c0.07,0.82,0.64,1.55,1.53,2.04c-0.77,0.6-1.21,1.24-1.4,1.83
			c-1.08,0-2.17,0.02-3.22,0.05c-0.08,0-0.15,0.08-0.15,0.17c0,0.08,0.07,0.15,0.15,0.15c1.02-0.03,2.08-0.05,3.14-0.05
			c-0.08,0.37-0.06,0.72,0.04,1.01c0.05,0.15,0.12,0.31,0.18,0.44c-0.14,0.1-0.25,0.25-0.37,0.41l-4.86,0.15
			c-0.08,0.02-0.15,0.08-0.15,0.17c0,0.08,0.08,0.15,0.15,0.15c0.02,0,0.02,0,0.02,0l4.64-0.15c-0.64,1.11-0.75,2.69-0.47,3.98
			c0.14,0.59,0.32,1.09,0.59,1.51l-7.19,0.02c-0.13,0-0.27,0.07-0.35,0.17c-0.08,0.12-0.12,0.27-0.06,0.41
			c1.11,3.73,1.88,7.22,2.69,10.92c0.32,1.43,0.62,2.89,0.98,4.4C30.11,101.59,28.6,100.24,28.6,98.58z M38.93,107.74
			c-2.1-0.03-4.86-2.3-5.36-4.42c-0.02-0.1-0.05-0.2-0.07-0.3c-0.05-0.15-0.08-0.3-0.12-0.45v-0.02c-0.04-0.17-0.07-0.31-0.1-0.47
			c-0.39-1.63-0.72-3.19-1.06-4.7c-0.07-0.3-0.14-0.59-0.18-0.87c-0.03-0.1-0.05-0.2-0.07-0.31c-0.69-3.11-1.38-6.1-2.28-9.24
			l7.36-0.02l1.18-0.02l12.35-0.04h0.47c1.83,0.02,3.63,0.02,5.36,0.02c0.15,0,0.32,0,0.47-0.02c0.15,0.02,0.32,0,0.47,0
			c0.83,0,1.65-0.02,2.43-0.02c-0.83,1.35-1.65,3.12-2.15,5.82c-0.94,5.17-1.56,10.48-0.46,15.24
			C50.23,107.88,42.9,107.78,38.93,107.74z"/>
		
			<radialGradient id="SVGID_00000017495126254546803640000013805557450224919476_" cx="26.2288" cy="34.9993" r="168.3161" gradientUnits="userSpaceOnUse">
			<stop  offset="0" style="stop-color:#00746D"/>
			<stop  offset="0.2174" style="stop-color:#00746D"/>
			<stop  offset="0.4101" style="stop-color:#09998F"/>
			<stop  offset="0.6425" style="stop-color:#16CABD"/>
			<stop  offset="1" style="stop-color:#16CABD"/>
		</radialGradient>
		<path style="fill:url(#SVGID_00000017495126254546803640000013805557450224919476_);" d="M60.75,91.83L62,91.85l1.06,0.02
			l11.92,0.19l0.79,0.01l0.81,0.01l5.21,0.08c0,0,0,0,0,0c0.09,0,0.16-0.07,0.17-0.16c0-0.09-0.07-0.17-0.16-0.17l-5.64-0.09
			l-0.78-0.01h0l-0.76-0.01l-11.41-0.18l-1.06-0.02l-1.37-0.02c-0.1-0.01-0.16,0.07-0.17,0.16C60.58,91.75,60.66,91.83,60.75,91.83z
			"/>
		
			<radialGradient id="SVGID_00000018198941210202711690000011972934752852632505_" cx="26.2288" cy="34.9993" r="168.3161" gradientUnits="userSpaceOnUse">
			<stop  offset="0" style="stop-color:#00746D"/>
			<stop  offset="0.2174" style="stop-color:#00746D"/>
			<stop  offset="0.4101" style="stop-color:#09998F"/>
			<stop  offset="0.6425" style="stop-color:#16CABD"/>
			<stop  offset="1" style="stop-color:#16CABD"/>
		</radialGradient>
		<path style="fill:url(#SVGID_00000018198941210202711690000011972934752852632505_);" d="M82.19,109.14
			c0.09,0,0.16-0.07,0.17-0.16c0-0.09-0.07-0.17-0.16-0.17c-0.2-0.01-0.41-0.02-0.62-0.03h-0.1c0,0,0,0-0.01,0h-0.04
			c-1.64-0.09-3.3-0.16-4.95-0.21c0,0,0,0-0.01,0c-0.45-0.01-0.9-0.03-1.35-0.04h0c-0.35-0.01-0.69-0.02-1.04-0.03
			c-0.93-0.02-1.85-0.04-2.78-0.05c-3.52-0.05-7.04-0.03-10.55,0.06c-0.47,0.01-0.93,0.02-1.39,0.04c-0.09,0-0.16,0.08-0.16,0.17
			c0,0.04,0.02,0.08,0.05,0.11c0.03,0.03,0.08,0.05,0.12,0.06l0.45-0.01c0.38-0.01,0.75-0.02,1.13-0.03
			c3.36-0.08,6.73-0.1,10.1-0.06c1.2,0.02,2.4,0.04,3.6,0.07c0,0,0.01,0,0.01,0c0.03,0,0.06,0,0.08,0c0.39,0.01,0.77,0.02,1.16,0.03
			c0,0,0,0,0,0c0.61,0.02,1.22,0.04,1.82,0.06c0,0,0.01,0,0.01,0C79.22,109,80.71,109.07,82.19,109.14
			C82.19,109.14,82.19,109.14,82.19,109.14z"/>
		
			<radialGradient id="SVGID_00000086670225867137067970000014055039206071939970_" cx="26.2288" cy="34.9993" r="168.3161" gradientUnits="userSpaceOnUse">
			<stop  offset="0" style="stop-color:#00746D"/>
			<stop  offset="0.2174" style="stop-color:#00746D"/>
			<stop  offset="0.4101" style="stop-color:#09998F"/>
			<stop  offset="0.6425" style="stop-color:#16CABD"/>
			<stop  offset="1" style="stop-color:#16CABD"/>
		</radialGradient>
		<path style="fill:url(#SVGID_00000086670225867137067970000014055039206071939970_);" d="M78.49,94.03c-0.31,0-0.62,0-0.93,0.01
			h-0.02c-0.09,0-0.16,0.08-0.16,0.17c0,0.09,0.07,0.16,0.17,0.16c0.18,0,0.35-0.01,0.53-0.01c0,0,0,0,0.01,0
			c0.32,0,0.64-0.01,0.96-0.01c0,0,0,0,0,0c0.35,0,0.7,0,1.05,0c0.75,0,1.51,0.01,2.27,0.03h0c0.09,0,0.16-0.07,0.16-0.16
			c0-0.09-0.07-0.17-0.16-0.17c-0.97-0.02-1.93-0.04-2.9-0.04C79.15,94.03,78.82,94.03,78.49,94.03z"/>
		
			<radialGradient id="SVGID_00000036971917545614014330000005661896087702428055_" cx="26.2288" cy="34.9993" r="168.3161" gradientUnits="userSpaceOnUse">
			<stop  offset="0" style="stop-color:#00746D"/>
			<stop  offset="0.2174" style="stop-color:#00746D"/>
			<stop  offset="0.4101" style="stop-color:#09998F"/>
			<stop  offset="0.6425" style="stop-color:#16CABD"/>
			<stop  offset="1" style="stop-color:#16CABD"/>
		</radialGradient>
		<path style="fill:url(#SVGID_00000036971917545614014330000005661896087702428055_);" d="M107.78,65.01
			c0.02,0.08,0.09,0.13,0.16,0.13c0.02,0,0.03,0,0.04,0c0.09-0.02,0.14-0.11,0.12-0.2c-0.56-2.26-1.84-4.35-3.59-5.88
			c-0.07-0.06-0.17-0.05-0.23,0.02c-0.06,0.07-0.06,0.18,0.01,0.24C105.99,60.79,107.23,62.82,107.78,65.01z"/>
	</g>
</g>
</svg>
