<?xml version="1.0" encoding="utf-8"?>
<!-- Generator: Adobe Illustrator 26.0.2, SVG Export Plug-In . SVG Version: 6.00 Build 0)  -->
<svg version="1.1" id="Calque_1" xmlns="http://www.w3.org/2000/svg" xmlns:xlink="http://www.w3.org/1999/xlink" x="0px" y="0px"
	 viewBox="0 0 147.4 147.4" style="enable-background:new 0 0 147.4 147.4;" xml:space="preserve">
<style type="text/css">
	.st0{fill:url(#SVGID_1_);}
	.st1{fill:url(#SVGID_00000016064107598461866820000003629295362276129957_);}
	.st2{fill:url(#SVGID_00000109013851199803923680000017572732916547531430_);}
	.st3{fill:url(#SVGID_00000109029827590945453880000010029636389102972560_);}
	.st4{fill:url(#SVGID_00000136391876586527326010000012269854072875868311_);}
	.st5{fill:url(#SVGID_00000000186383028277870670000004870197011799187609_);}
	.st6{fill:url(#SVGID_00000004525591442710271740000011530535820063958930_);}
	.st7{fill:url(#XMLID_00000049196781181558367040000017087422135971981237_);}
	.st8{fill:url(#XMLID_00000139291102357927771620000004004875884648944784_);}
	.st9{fill:url(#XMLID_00000126282270861683766900000004262846294186318503_);}
	.st10{fill:url(#XMLID_00000021835048769699308780000017696357612300265384_);}
	.st11{fill:url(#XMLID_00000168813673504174260310000008718845881890047909_);}
	.st12{fill:url(#XMLID_00000070812079775156485330000001515535779065187496_);}
	.st13{fill:url(#XMLID_00000000940899053916017520000005946024764619451059_);}
	.st14{fill:url(#XMLID_00000066497472741389161130000002480346488826861731_);}
	.st15{fill:none;stroke:#FFFFFF;stroke-miterlimit:10;}
	.st16{fill:url(#SVGID_00000170273398064037478890000011313183752742991767_);}
	.st17{fill:url(#SVGID_00000010286521520140412310000015323766159946282629_);}
	.st18{fill:url(#SVGID_00000017476976902795692330000005421417551698126000_);}
	.st19{fill:url(#SVGID_00000013901605084014759620000001080775665491606927_);}
	.st20{fill:url(#SVGID_00000119089286689541154530000007134194046930390954_);}
	.st21{fill:url(#SVGID_00000076584641635762371210000017529645672483893127_);}
	.st22{fill:url(#SVGID_00000114062160421337810060000006839813855880493495_);}
	.st23{fill:url(#SVGID_00000181056051578834428350000001995976570157384849_);}
	.st24{fill:url(#SVGID_00000147904243892284277090000011294918915602806457_);}
	.st25{fill:url(#SVGID_00000178168097673653368890000004871432855814292884_);}
	.st26{fill:url(#SVGID_00000075850165981671047920000015773668887323267993_);}
	.st27{fill:url(#SVGID_00000043433962489560948760000001344952173817146258_);}
	.st28{fill:url(#SVGID_00000135659027715404443430000009374434209645138070_);}
	.st29{fill:url(#SVGID_00000067937705285080787020000003078319389967235202_);}
	.st30{fill:url(#SVGID_00000065776926847582675030000004583376272987680930_);}
	.st31{fill:url(#SVGID_00000173870496273256675650000002396746858955233719_);}
	.st32{fill:url(#SVGID_00000079452076838593009520000002213321514129287055_);}
	.st33{fill:url(#SVGID_00000150791667864486522430000005644289375984635797_);}
	.st34{fill:url(#SVGID_00000004525046060452996150000015495617199431728034_);}
	.st35{fill:url(#SVGID_00000018953713662730628970000002540767210212739492_);}
	.st36{fill:url(#SVGID_00000139291206886945782770000000554887638130363281_);}
	.st37{fill:url(#SVGID_00000078021856934876620510000007064905082310132925_);}
	.st38{fill:url(#SVGID_00000121253518157750063150000005135901508603576509_);}
	.st39{fill:url(#SVGID_00000011002218499301493460000002198399406769794738_);}
	.st40{fill:url(#SVGID_00000009555177350448139430000008317181399240958350_);}
	.st41{fill:url(#SVGID_00000090994636567729772450000009040990544269370302_);}
	.st42{fill:url(#SVGID_00000181072013779058662230000005355281036342677126_);}
	.st43{fill:url(#SVGID_00000031181254976368412650000015233673796403813022_);}
	.st44{fill:url(#SVGID_00000125581502483331685730000010898199413943040135_);}
	.st45{fill:url(#SVGID_00000029035639612480396890000013406080821191459751_);}
	.st46{fill:url(#SVGID_00000114755184956600439640000002100589337162400446_);}
</style>
<g id="XMLID_00000164477496267816320490000015876916810693325745_">
	
		<radialGradient id="XMLID_00000092425663039083739790000008772190690470074496_" cx="61.7332" cy="31.4965" r="170.1927" gradientUnits="userSpaceOnUse">
		<stop  offset="0" style="stop-color:#FFFFFF"/>
		<stop  offset="1" style="stop-color:#C4BBBB"/>
	</radialGradient>
	
		<circle id="XMLID_00000098931244291172187980000002444064764161740945_" style="fill:url(#XMLID_00000092425663039083739790000008772190690470074496_);" cx="73.7" cy="73.7" r="73.7"/>
	
		<linearGradient id="XMLID_00000144317054815029069590000007995469069782096035_" gradientUnits="userSpaceOnUse" x1="5.0394" y1="73.702" x2="142.3644" y2="73.702">
		<stop  offset="0" style="stop-color:#C4BBBB"/>
		<stop  offset="1" style="stop-color:#FFFFFF"/>
	</linearGradient>
	
		<circle id="XMLID_00000119802588751761692120000004810902838124397460_" style="fill:url(#XMLID_00000144317054815029069590000007995469069782096035_);" cx="73.7" cy="73.7" r="68.7"/>
</g>
<g>
	<radialGradient id="SVGID_1_" cx="76.4029" cy="23.995" r="195.6608" gradientUnits="userSpaceOnUse">
		<stop  offset="0.2174" style="stop-color:#00746D"/>
		<stop  offset="0.4001" style="stop-color:#09968D"/>
		<stop  offset="0.6425" style="stop-color:#16CABD"/>
	</radialGradient>
	<path class="st0" d="M57.1,93.3c0,1.6,0.6,2.3,0.6,2.3c1.3,4.7,4.2,5.8,5.6,5.9l0.1,0l0.1,0c1.4-0.1,4.3-1.2,5.6-5.9
		c0,0,0.6-0.7,0.6-2.3c0-0.5-0.4-0.9-0.4-0.9s0.4-1.3,0.4-2.5c0-1.2-1.2-5.1-6.2-5.2l-0.1,0l-0.1,0c-5,0.1-6.2,4-6.2,5.2
		c0,1.3,0.4,2.5,0.4,2.5S57.1,92.8,57.1,93.3z"/>
	
		<radialGradient id="SVGID_00000155849345347714826880000017779143660296519830_" cx="76.3978" cy="23.996" r="195.6604" gradientUnits="userSpaceOnUse">
		<stop  offset="0.2174" style="stop-color:#00746D"/>
		<stop  offset="0.4001" style="stop-color:#09968D"/>
		<stop  offset="0.6425" style="stop-color:#16CABD"/>
	</radialGradient>
	<path style="fill:url(#SVGID_00000155849345347714826880000017779143660296519830_);" d="M52.1,83.1v30h22.6v-30H52.1z M74.3,104.1
		c-0.1-0.2-0.3-0.3-0.4-0.4c-2.2-1.7-3.3-1.4-4.7-2.2c-0.7-0.4-1-0.7-1.3-0.9c-0.2,0.2-0.4,0.4-0.6,0.5l0.1,4l-2.9,7.5h-1l1.1-6.7
		l-1.2-1.2l1.4-2.2c-0.6,0.2-1.1,0.2-1.3,0.3c0,0-0.1,0-0.1,0l-0.1,0l-0.1,0c0,0-0.1,0-0.1,0c-0.3,0-0.8-0.1-1.3-0.3l1.4,2.2
		l-1.2,1.2l1.1,6.7h-0.9l-2.9-7.5l0.1-4c-0.2-0.2-0.4-0.4-0.6-0.5c-0.3,0.2-0.6,0.5-1.3,0.9c-1.3,0.8-2.5,0.5-4.7,2.2
		c-0.1,0.1-0.3,0.2-0.4,0.4V83.4h21.8V104.1z"/>
	
		<radialGradient id="SVGID_00000147937004784107098200000010428319808409088702_" cx="76.405" cy="23.995" r="195.6602" gradientUnits="userSpaceOnUse">
		<stop  offset="0.2174" style="stop-color:#00746D"/>
		<stop  offset="0.4001" style="stop-color:#09968D"/>
		<stop  offset="0.6425" style="stop-color:#16CABD"/>
	</radialGradient>
	<path style="fill:url(#SVGID_00000147937004784107098200000010428319808409088702_);" d="M58.1,67.5c-0.2-0.2-0.5-0.3-0.9-0.3h-1v2
		h1c0.4,0,0.7-0.1,0.9-0.3c0.2-0.2,0.3-0.4,0.3-0.7S58.2,67.7,58.1,67.5z M66.9,67.5c-0.2-0.2-0.5-0.3-0.9-0.3h-1v2h1
		c0.4,0,0.7-0.1,0.9-0.3c0.2-0.2,0.3-0.4,0.3-0.7S67,67.7,66.9,67.5z M66.9,67.5c-0.2-0.2-0.5-0.3-0.9-0.3h-1v2h1
		c0.4,0,0.7-0.1,0.9-0.3c0.2-0.2,0.3-0.4,0.3-0.7S67,67.7,66.9,67.5z M58.1,67.5c-0.2-0.2-0.5-0.3-0.9-0.3h-1v2h1
		c0.4,0,0.7-0.1,0.9-0.3c0.2-0.2,0.3-0.4,0.3-0.7S58.2,67.7,58.1,67.5z M58.1,67.5c-0.2-0.2-0.5-0.3-0.9-0.3h-1v2h1
		c0.4,0,0.7-0.1,0.9-0.3c0.2-0.2,0.3-0.4,0.3-0.7S58.2,67.7,58.1,67.5z M66.9,67.5c-0.2-0.2-0.5-0.3-0.9-0.3h-1v2h1
		c0.4,0,0.7-0.1,0.9-0.3c0.2-0.2,0.3-0.4,0.3-0.7S67,67.7,66.9,67.5z M66.9,67.5c-0.2-0.2-0.5-0.3-0.9-0.3h-1v2h1
		c0.4,0,0.7-0.1,0.9-0.3c0.2-0.2,0.3-0.4,0.3-0.7S67,67.7,66.9,67.5z M58.1,67.5c-0.2-0.2-0.5-0.3-0.9-0.3h-1v2h1
		c0.4,0,0.7-0.1,0.9-0.3c0.2-0.2,0.3-0.4,0.3-0.7S58.2,67.7,58.1,67.5z M97.8,51.7c-1-1-2.3-1.6-3.8-1.6H80.9l7-21H77.4l-3.8,11.3
		l-3.8-11.3H59.4l7,21h-13c-1.5,0-2.9,0.6-3.8,1.6c-1,1-1.6,2.3-1.6,3.8v62.8h51.4V55.6C99.4,54.1,98.8,52.7,97.8,51.7z M68.5,56.2
		h10.5l-0.4-1.3h1.6v2.2H67.3v-2.2H68L68.5,56.2z M97.5,116.4H49.9V76.8h47.6V116.4z M53.3,73.4V65h4.1c0.8,0,1.5,0.1,2,0.4
		c0.6,0.2,1,0.6,1.3,1.1c0.3,0.5,0.5,1,0.5,1.7c0,0.6-0.2,1.2-0.5,1.7c-0.3,0.5-0.8,0.8-1.3,1.1c-0.6,0.3-1.2,0.4-2,0.4h-1.2v2.1
		H53.3z M70.2,73.4h-3l-1.4-2.1H65v2.1h-2.8V65h4c0.8,0,1.5,0.1,2,0.4c0.6,0.2,1,0.6,1.3,1.1c0.3,0.5,0.5,1,0.5,1.7
		c0,0.6-0.2,1.2-0.5,1.7c-0.3,0.4-0.7,0.7-1.1,1L70.2,73.4z M77.4,68.1v2h-3.6v1.1H78v2.1h-7V65h6.8v2.1h-4.1v1H77.4z M83.1,70.6
		c-0.2-0.1-0.4-0.2-0.7-0.2c-0.3-0.1-0.6-0.1-0.9-0.2c-0.3-0.1-0.7-0.1-1-0.3c-0.3-0.1-0.6-0.3-0.9-0.4c-0.3-0.2-0.5-0.4-0.7-0.7
		c-0.2-0.3-0.2-0.7-0.2-1.1c0-0.5,0.1-1,0.4-1.4c0.3-0.4,0.7-0.8,1.3-1c0.6-0.2,1.3-0.4,2.2-0.4c0.6,0,1.1,0.1,1.7,0.2
		c0.6,0.1,1.1,0.3,1.5,0.5l-0.8,2c-0.4-0.2-0.8-0.4-1.2-0.5C83.4,67,83,67,82.6,67c-0.3,0-0.5,0-0.6,0.1c-0.2,0-0.3,0.1-0.3,0.2
		c-0.1,0.1-0.1,0.2-0.1,0.3c0,0.1,0.1,0.3,0.3,0.3c0.2,0.1,0.4,0.2,0.7,0.2c0.3,0.1,0.6,0.1,0.9,0.2c0.3,0.1,0.7,0.1,1,0.3
		c0.3,0.1,0.6,0.3,0.9,0.5c0.3,0.2,0.5,0.4,0.7,0.7c0.2,0.3,0.2,0.7,0.2,1.1c0,0.5-0.2,1-0.4,1.4c-0.3,0.4-0.7,0.8-1.3,1
		c-0.6,0.3-1.3,0.4-2.2,0.4c-0.7,0-1.4-0.1-2-0.2c-0.7-0.2-1.2-0.4-1.6-0.6l0.9-2.1c0.4,0.2,0.8,0.4,1.3,0.5c0.5,0.1,1,0.2,1.4,0.2
		c0.3,0,0.5,0,0.6-0.1c0.2,0,0.3-0.1,0.3-0.2c0.1-0.1,0.1-0.2,0.1-0.2C83.4,70.9,83.3,70.7,83.1,70.6z M91,70.6
		c-0.2-0.1-0.4-0.2-0.7-0.2s-0.6-0.1-0.9-0.2c-0.3-0.1-0.7-0.1-1-0.3c-0.3-0.1-0.6-0.3-0.9-0.4c-0.3-0.2-0.5-0.4-0.7-0.7
		c-0.2-0.3-0.3-0.7-0.3-1.1c0-0.5,0.2-1,0.4-1.4c0.3-0.4,0.7-0.8,1.3-1c0.6-0.2,1.3-0.4,2.2-0.4c0.6,0,1.1,0.1,1.7,0.2
		c0.5,0.1,1,0.3,1.5,0.5l-0.9,2c-0.4-0.2-0.8-0.4-1.2-0.5C91.3,67,90.9,67,90.5,67c-0.3,0-0.5,0-0.7,0.1c-0.2,0-0.3,0.1-0.3,0.2
		s-0.1,0.2-0.1,0.3c0,0.1,0.1,0.3,0.2,0.3s0.4,0.2,0.7,0.2c0.3,0.1,0.6,0.1,0.9,0.2c0.3,0.1,0.7,0.1,1,0.3c0.3,0.1,0.6,0.3,0.9,0.5
		c0.3,0.2,0.5,0.4,0.7,0.7c0.2,0.3,0.2,0.7,0.2,1.1c0,0.5-0.1,1-0.4,1.4c-0.3,0.4-0.7,0.8-1.3,1c-0.6,0.3-1.3,0.4-2.2,0.4
		c-0.7,0-1.4-0.1-2-0.2c-0.6-0.2-1.2-0.4-1.6-0.6l0.9-2.1c0.4,0.2,0.9,0.4,1.3,0.5s1,0.2,1.4,0.2c0.3,0,0.5,0,0.6-0.1
		c0.2,0,0.3-0.1,0.3-0.2c0.1-0.1,0.1-0.2,0.1-0.2C91.3,70.9,91.2,70.7,91,70.6z M97.5,61.2H49.9v-5.7c0-1,0.4-1.8,1-2.5
		c0.6-0.6,1.5-1,2.5-1h13.7l0.4,1.1h-1.8v5.5h16.1v-5.5h-3.8l-0.4-1.1H94c1,0,1.8,0.4,2.5,1c0.6,0.6,1,1.5,1,2.5V61.2z M66,67.2h-1
		v2h1c0.4,0,0.7-0.1,0.9-0.3c0.2-0.2,0.3-0.4,0.3-0.7s-0.1-0.5-0.3-0.7C66.7,67.3,66.4,67.2,66,67.2z M58.1,68.9
		c0.2-0.2,0.3-0.4,0.3-0.7s-0.1-0.5-0.3-0.7c-0.2-0.2-0.5-0.3-0.9-0.3h-1v2h1C57.6,69.2,57.9,69.1,58.1,68.9z M58.1,67.5
		c-0.2-0.2-0.5-0.3-0.9-0.3h-1v2h1c0.4,0,0.7-0.1,0.9-0.3c0.2-0.2,0.3-0.4,0.3-0.7S58.2,67.7,58.1,67.5z M66.9,67.5
		c-0.2-0.2-0.5-0.3-0.9-0.3h-1v2h1c0.4,0,0.7-0.1,0.9-0.3c0.2-0.2,0.3-0.4,0.3-0.7S67,67.7,66.9,67.5z M66.9,67.5
		c-0.2-0.2-0.5-0.3-0.9-0.3h-1v2h1c0.4,0,0.7-0.1,0.9-0.3c0.2-0.2,0.3-0.4,0.3-0.7S67,67.7,66.9,67.5z M58.1,67.5
		c-0.2-0.2-0.5-0.3-0.9-0.3h-1v2h1c0.4,0,0.7-0.1,0.9-0.3c0.2-0.2,0.3-0.4,0.3-0.7S58.2,67.7,58.1,67.5z M58.1,67.5
		c-0.2-0.2-0.5-0.3-0.9-0.3h-1v2h1c0.4,0,0.7-0.1,0.9-0.3c0.2-0.2,0.3-0.4,0.3-0.7S58.2,67.7,58.1,67.5z M58.1,67.5
		c-0.2-0.2-0.5-0.3-0.9-0.3h-1v2h1c0.4,0,0.7-0.1,0.9-0.3c0.2-0.2,0.3-0.4,0.3-0.7S58.2,67.7,58.1,67.5z"/>
	
		<radialGradient id="SVGID_00000171677238762834017850000010472980190352282012_" cx="76.4029" cy="23.995" r="195.6608" gradientUnits="userSpaceOnUse">
		<stop  offset="0.2174" style="stop-color:#00746D"/>
		<stop  offset="0.4001" style="stop-color:#09968D"/>
		<stop  offset="0.6425" style="stop-color:#16CABD"/>
	</radialGradient>
	
		<rect x="77.8" y="111.1" style="fill:url(#SVGID_00000171677238762834017850000010472980190352282012_);" width="16.8" height="1.6"/>
	
		<radialGradient id="SVGID_00000156561619842791763230000013263194672089014462_" cx="76.4029" cy="23.995" r="195.6608" gradientUnits="userSpaceOnUse">
		<stop  offset="0.2174" style="stop-color:#00746D"/>
		<stop  offset="0.4001" style="stop-color:#09968D"/>
		<stop  offset="0.6425" style="stop-color:#16CABD"/>
	</radialGradient>
	
		<rect x="77.8" y="107.6" style="fill:url(#SVGID_00000156561619842791763230000013263194672089014462_);" width="16.8" height="1.6"/>
	
		<radialGradient id="SVGID_00000116950604577055718370000005356845123023065005_" cx="76.4029" cy="23.995" r="195.6608" gradientUnits="userSpaceOnUse">
		<stop  offset="0.2174" style="stop-color:#00746D"/>
		<stop  offset="0.4001" style="stop-color:#09968D"/>
		<stop  offset="0.6425" style="stop-color:#16CABD"/>
	</radialGradient>
	
		<rect x="77.8" y="104.1" style="fill:url(#SVGID_00000116950604577055718370000005356845123023065005_);" width="16.8" height="1.6"/>
	
		<radialGradient id="SVGID_00000023983631359182925860000012821216170809594250_" cx="76.4029" cy="23.995" r="195.6608" gradientUnits="userSpaceOnUse">
		<stop  offset="0.2174" style="stop-color:#00746D"/>
		<stop  offset="0.4001" style="stop-color:#09968D"/>
		<stop  offset="0.6425" style="stop-color:#16CABD"/>
	</radialGradient>
	
		<rect x="77.8" y="100.6" style="fill:url(#SVGID_00000023983631359182925860000012821216170809594250_);" width="16.8" height="1.6"/>
	
		<radialGradient id="SVGID_00000079461577106499479480000012863858419865153952_" cx="76.4029" cy="23.995" r="195.6608" gradientUnits="userSpaceOnUse">
		<stop  offset="0.2174" style="stop-color:#00746D"/>
		<stop  offset="0.4001" style="stop-color:#09968D"/>
		<stop  offset="0.6425" style="stop-color:#16CABD"/>
	</radialGradient>
	
		<rect x="77.8" y="87.3" style="fill:url(#SVGID_00000079461577106499479480000012863858419865153952_);" width="11.7" height="4.3"/>
</g>
</svg>
