<?xml version="1.0" encoding="utf-8"?>
<!-- Generator: Adobe Illustrator 26.0.2, SVG Export Plug-In . SVG Version: 6.00 Build 0)  -->
<svg version="1.1" id="Calque_1" xmlns="http://www.w3.org/2000/svg" xmlns:xlink="http://www.w3.org/1999/xlink" x="0px" y="0px"
	 viewBox="0 0 147.4 147.4" style="enable-background:new 0 0 147.4 147.4;" xml:space="preserve">
<style type="text/css">
	.st0{fill:url(#SVGID_1_);}
	.st1{fill:url(#SVGID_00000147918029044618968190000012078158210261179792_);}
	.st2{fill:url(#SVGID_00000041259675850653292420000006068276397613561497_);}
	.st3{fill:url(#SVGID_00000001632637689757168980000002205483835477870004_);}
	.st4{fill:url(#SVGID_00000015349738109841185840000005123194081861381564_);}
	.st5{fill:url(#SVGID_00000039842076159833272560000000339213052752414382_);}
	.st6{fill:url(#SVGID_00000077318178791953544760000014903512013235145151_);}
	.st7{fill:url(#XMLID_00000134222885993070628920000007686134298488645807_);}
	.st8{fill:url(#XMLID_00000000905003195537218940000015790503538292908934_);}
	.st9{fill:url(#XMLID_00000061457525661845886360000011001534716046321831_);}
	.st10{fill:url(#XMLID_00000050644692124784031730000017359179365305328012_);}
	.st11{fill:url(#XMLID_00000072973128225785139380000015630366714222755498_);}
	.st12{fill:url(#XMLID_00000075128757758755200600000014068644834264708246_);}
	.st13{fill:url(#XMLID_00000142879392180360083640000011938771733071961758_);}
	.st14{fill:url(#XMLID_00000006674537785995203090000003094644468891728815_);}
	.st15{fill:none;stroke:#FFFFFF;stroke-miterlimit:10;}
	.st16{fill:url(#SVGID_00000175312572548829654190000002158603511903111608_);}
	.st17{fill:url(#SVGID_00000036246120866324842180000014604748059777859715_);}
	.st18{fill:url(#SVGID_00000101802373746367800750000000220309663148206727_);}
	.st19{fill:url(#SVGID_00000080908295342785763430000002722391905968203399_);}
	.st20{fill:url(#SVGID_00000029021044629016447090000014452936540811623344_);}
	.st21{fill:url(#SVGID_00000173846295746650312260000009291750428960740023_);}
	.st22{fill:url(#SVGID_00000087372215427147394090000000676366855748451206_);}
	.st23{fill:url(#SVGID_00000129170610931186232170000009713986699230002564_);}
	.st24{fill:url(#SVGID_00000145050175284625661970000014136133111616157582_);}
	.st25{fill:url(#SVGID_00000083086271570147858330000016152459269498544302_);}
	.st26{fill:url(#SVGID_00000149339695759006377390000015336757998361916841_);}
	.st27{fill:url(#SVGID_00000021821577000998038750000013190508052532267967_);}
	.st28{fill:url(#SVGID_00000077293000967818429000000006388342199120943752_);}
	.st29{fill:url(#SVGID_00000109743976745709555430000014459508363318880163_);}
	.st30{fill:url(#SVGID_00000033359955411711881250000010113114956639429770_);}
	.st31{fill:url(#SVGID_00000046310325010347037100000014539103490104288446_);}
	.st32{fill:url(#SVGID_00000043457747588516486710000017248927115262248072_);}
	.st33{fill:url(#SVGID_00000111174397228500517710000017037819013541307579_);}
	.st34{fill:url(#SVGID_00000013160298504948208040000008306123078327929018_);}
	.st35{fill:url(#SVGID_00000130636032901382678480000017089055742091966371_);}
	.st36{fill:url(#SVGID_00000124156733110758845390000012413017982052815257_);}
	.st37{fill:url(#SVGID_00000166642555767916981430000012308861513848076179_);}
	.st38{fill:url(#SVGID_00000078733785550089301000000013576537353573581466_);}
	.st39{fill:url(#SVGID_00000166654862623479439860000001194201164039822740_);}
	.st40{fill:url(#SVGID_00000181795021595742691610000014662504921054555034_);}
	.st41{fill:url(#SVGID_00000126287646200432460450000016749470413574183817_);}
	.st42{fill:url(#SVGID_00000004511109260562020240000003817882949378253993_);}
	.st43{fill:url(#SVGID_00000047025296736284074070000016653694758548312492_);}
	.st44{fill:url(#SVGID_00000107567893192798946850000005379603450692607633_);}
	.st45{fill:url(#SVGID_00000082364361196168509880000005863266988008294285_);}
	.st46{fill:url(#SVGID_00000068675028946645499800000000869148160382403738_);}
</style>
<g id="XMLID_00000083791383007287906550000013103031594513604791_">
	
		<radialGradient id="XMLID_00000145023338256388994050000000100139160433455262_" cx="61.7332" cy="31.4965" r="170.1927" gradientUnits="userSpaceOnUse">
		<stop  offset="0" style="stop-color:#FFFFFF"/>
		<stop  offset="1" style="stop-color:#C4BBBB"/>
	</radialGradient>
	
		<circle id="XMLID_00000145019146898336047520000001803809394081140646_" style="fill:url(#XMLID_00000145023338256388994050000000100139160433455262_);" cx="73.7" cy="73.7" r="73.7"/>
	
		<linearGradient id="XMLID_00000016037334014800242420000005069168567002537888_" gradientUnits="userSpaceOnUse" x1="5.0394" y1="73.702" x2="142.3644" y2="73.702">
		<stop  offset="0" style="stop-color:#C4BBBB"/>
		<stop  offset="1" style="stop-color:#FFFFFF"/>
	</linearGradient>
	
		<circle id="XMLID_00000031910629873438496920000015356884881149544602_" style="fill:url(#XMLID_00000016037334014800242420000005069168567002537888_);" cx="73.7" cy="73.7" r="68.7"/>
</g>
<g>
	<radialGradient id="SVGID_1_" cx="75.3621" cy="16.3683" r="177.0844" gradientUnits="userSpaceOnUse">
		<stop  offset="0.2174" style="stop-color:#00746D"/>
		<stop  offset="0.4001" style="stop-color:#09968D"/>
		<stop  offset="0.6425" style="stop-color:#16CABD"/>
	</radialGradient>
	<path class="st0" d="M89.1,67.3c1.3-0.5,0.8-2.7,0.8-2.7s-4-16.1-4.6-17.9c-0.9-3-4.7-2.9-6-3c-1.5-0.1-1.8-0.6-1.8-0.6l-0.1-1.4
		c1-0.7,1.9-2,2.5-4.2c0,0,0.6-0.6,0.6-2c0-0.5-0.4-0.8-0.4-0.8s0.4-1.1,0.4-2.2c0-1.1-1.1-4.4-5.3-4.5c0,0-0.1,0-0.1,0
		c0,0-0.1,0-0.1,0c-4.3,0.1-5.3,3.4-5.3,4.5c0,1.1,0.4,2.2,0.4,2.2s-0.4,0.3-0.4,0.8c0,1.4,0.6,2,0.6,2c0.5,1.9,1.3,3.1,2.2,3.9
		l-0.1,1.6c0,0-0.3,0.5-1.8,0.6c-1.3,0.1-5.1,0.1-6,3c-0.6,1.8-4.6,17.9-4.6,17.9s-0.5,2.2,0.8,2.7c1.5,0.6,2.5,0,3.4-3.3L68,51.5
		l-1,17.9l-0.6,32.2c0,0-0.3,2.2,1.4,2.7c0,0,2.3,0.5,3-2.1c0.8-2.6,3.1-29.6,3.1-29.6s0.1-1.9,0.9-2c0.8,0.2,0.9,2,0.9,2
		s2.3,27,3.1,29.6c0.8,2.6,3,2.1,3,2.1c1.7-0.5,1.4-2.7,1.4-2.7l-0.6-32.2l-1-17.9L85.7,64C86.6,67.3,87.6,67.9,89.1,67.3z"/>
	
		<radialGradient id="SVGID_00000027580637064359047550000010050286706946549176_" cx="75.3621" cy="16.3683" r="177.0844" gradientUnits="userSpaceOnUse">
		<stop  offset="0.2174" style="stop-color:#00746D"/>
		<stop  offset="0.4001" style="stop-color:#09968D"/>
		<stop  offset="0.6425" style="stop-color:#16CABD"/>
	</radialGradient>
	<path style="fill:url(#SVGID_00000027580637064359047550000010050286706946549176_);" d="M56.1,58.9c-0.9-3-4.7-2.9-6-3
		c-1.5-0.1-1.8-0.6-1.8-0.6l-0.1-1.4c1-0.7,1.9-2,2.5-4.2c0,0,0.6-0.6,0.6-2c0-0.5-0.4-0.8-0.4-0.8s0.4-1.1,0.4-2.2
		c0-1.1-1.1-4.4-5.3-4.5c0,0,0,0-0.1,0c0,0-0.1,0-0.1,0c-4.3,0.1-5.3,3.4-5.3,4.5c0,1.1,0.4,2.2,0.4,2.2s-0.4,0.3-0.4,0.8
		c0,1.4,0.6,2,0.6,2c0.5,1.9,1.3,3.1,2.2,3.9l-0.1,1.6c0,0-0.3,0.5-1.8,0.6c-1.3,0.1-5.1,0.1-6,3c-0.6,1.8-4.6,17.9-4.6,17.9
		s-0.5,2.2,0.8,2.7c1.5,0.6,2.5,0,3.4-3.3l3.8-12.5l-1,17.9l-0.6,32.2c0,0-0.3,2.2,1.4,2.7c0,0,2.3,0.5,3-2.1
		c0.8-2.6,3.1-29.6,3.1-29.6s0.1-1.9,0.9-2c0.8,0.2,0.9,2,0.9,2s2.3,27,3.1,29.6c0.8,2.6,3,2.1,3,2.1c1.7-0.5,1.4-2.7,1.4-2.7
		l-0.6-32.2l-1-17.9l3.8,12.5c1,3.4,1.9,3.9,3.4,3.3c1.3-0.5,0.8-2.7,0.8-2.7S56.6,60.7,56.1,58.9z"/>
	
		<radialGradient id="SVGID_00000152247692746120394250000006560039790431156157_" cx="75.3621" cy="16.3683" r="177.0844" gradientUnits="userSpaceOnUse">
		<stop  offset="0.2174" style="stop-color:#00746D"/>
		<stop  offset="0.4001" style="stop-color:#09968D"/>
		<stop  offset="0.6425" style="stop-color:#16CABD"/>
	</radialGradient>
	<path style="fill:url(#SVGID_00000152247692746120394250000006560039790431156157_);" d="M115.5,78.1c1.2-0.4,0.7-2.5,0.7-2.5
		s-3.8-15-4.3-16.7c-0.8-2.8-4.4-2.7-5.6-2.8c-1.4-0.1-1.7-0.6-1.7-0.6l-0.1-2.2c1-0.7,2-2,2.6-4.2c0,0,0.6-0.6,0.6-2
		c0-0.5-0.4-0.8-0.4-0.8s0.4-1.1,0.4-2.2c0-0.8-0.6-2.7-2.4-3.8c-2.2-1.4-4.3-1.3-5.9-0.5c-1-1.4-5.7-1.1-6.4,3.4
		c-0.7,4.7,2.9,4.4,0.6,7.9c0,0,4.2-1.4,2.8-4.6C95,43.5,96.4,40.1,99,40c-1.2,0.8-2,2-2,3.2c-0.1,0.3-0.1,0.6-0.1,0.8
		c0,1.1,0.4,2.2,0.4,2.2s-0.4,0.3-0.4,0.8c0,1.4,0.6,2,0.6,2c0.6,2.2,1.6,3.5,2.6,4.2l-0.1,2.2c0,0-0.3,0.5-1.7,0.6
		c-1.2,0.1-4.8,0.1-5.6,2.8c-0.5,1.7-4.3,16.7-4.3,16.7s-0.4,2.1,0.7,2.5c1.4,0.5,2.3,0,3.2-3.1l3.6-11.7l-0.5,9.5L88.8,92
		c0,0,2.1,0.8,5.8,1.5l-0.3,16.6c0,0-0.2,2,1.3,2.5c0,0,2.1,0.5,2.8-2c0.4-1.3,1.2-9.4,1.9-16.5c0.7,0,1.4,0.1,1.9,0.1
		c0.5,0,1.2,0,1.9-0.1c0.7,7.1,1.5,15.2,1.9,16.5c0.7,2.4,2.8,2,2.8,2c1.6-0.5,1.3-2.5,1.3-2.5l-0.3-16.6c3.7-0.6,5.8-1.5,5.8-1.5
		l-6.4-19.2l-0.5-9.5l3.6,11.7C113.2,78.1,114.1,78.6,115.5,78.1z"/>
</g>
</svg>
